{"glyphs":{"0":{"ha":799,"x_min":57,"x_max":793,"o":"m 467 936 q 258 508 311 807 q 243 174 224 301 q 382 68 278 101 q 511 238 457 125 q 596 531 565 351 q 603 842 626 711 q 467 936 563 911 m 351 -4 q 147 115 233 -4 q 94 500 57 243 q 238 874 133 729 q 481 1017 343 1018 q 706 876 619 1015 q 755 504 793 738 q 608 133 717 271 q 351 -4 499 -4 z "},"1":{"ha":474,"x_min":103,"x_max":481,"o":"m 396 739 l 288 246 l 268 -1 q 103 29 182 -17 l 271 779 l 307 869 l 288 878 l 197 747 q 118 771 138 731 l 249 1025 q 481 967 403 1057 l 396 739 z "},"2":{"ha":696,"x_min":0,"x_max":679,"o":"m 394 922 q 246 826 314 922 l 296 724 q 225 683 278 693 q 104 819 153 742 q 239 981 154 918 q 417 1043 324 1043 q 595 923 511 1043 q 679 680 679 803 q 469 382 679 557 l 153 117 l 163 107 l 604 139 q 607 67 619 108 q 561 -14 594 25 l 190 21 l 83 -4 q 4 138 0 46 l 375 468 q 558 697 493 576 q 495 860 538 799 q 394 922 453 922 z "},"3":{"ha":739,"x_min":15,"x_max":714,"o":"m 83 819 q 221 981 135 919 q 410 1043 307 1043 q 611 951 513 1043 q 708 750 710 858 q 677 671 707 704 q 575 603 647 638 l 425 531 q 699 290 714 443 q 513 100 689 176 q 71 -3 338 24 q 33 93 15 38 q 363 174 243 131 q 567 286 482 217 q 286 476 529 394 l 303 542 l 571 725 q 503 856 561 801 q 388 910 444 910 q 224 826 293 910 l 272 724 q 201 683 254 693 q 83 819 128 744 z "},"4":{"ha":786,"x_min":32,"x_max":788,"o":"m 611 1032 q 779 951 718 1032 l 694 733 l 615 368 l 775 374 q 781 313 788 346 q 751 256 774 279 l 593 263 l 572 -1 q 404 31 478 -21 l 460 269 l 414 271 l 83 258 q 32 353 36 289 l 538 1024 q 611 1032 569 1032 m 313 356 l 481 363 l 526 561 l 632 929 l 615 935 l 190 356 l 313 356 z "},"5":{"ha":757,"x_min":47,"x_max":747,"o":"m 668 397 q 549 131 665 263 q 302 -1 433 -1 q 51 58 171 -1 q 64 160 47 119 q 111 211 81 200 l 361 97 q 554 386 524 204 q 502 456 538 431 q 396 494 467 481 l 240 522 q 165 565 185 533 q 158 658 146 596 l 208 886 q 238 976 219 947 q 292 1018 257 1006 l 382 990 l 703 1039 q 744 955 742 999 q 724 886 747 911 l 378 907 l 254 617 l 406 606 q 606 544 543 594 q 668 397 669 494 z "},"6":{"ha":813,"x_min":74,"x_max":810,"o":"m 597 669 q 760 422 801 669 q 687 233 744 331 q 547 66 629 135 q 398 -4 465 -3 q 273 19 331 -6 q 166 95 215 43 q 95 244 117 147 q 93 467 74 340 q 322 897 136 750 q 768 1031 507 1044 q 760 899 810 990 q 421 853 549 911 q 292 655 335 744 q 225 413 249 565 q 235 236 213 313 q 404 556 306 443 q 597 669 503 669 m 608 381 q 614 502 629 451 q 536 554 599 553 q 383 388 457 501 q 271 160 308 275 q 394 103 317 99 q 521 202 450 106 q 608 381 592 299 z "},"7":{"ha":674,"x_min":88,"x_max":758,"o":"m 649 1022 q 707 867 758 975 l 217 3 q 151 -6 186 -11 q 92 24 117 0 l 460 721 l 575 890 l 568 899 l 107 883 q 100 952 88 910 q 149 1036 113 994 l 561 994 l 649 1022 z "},"8":{"ha":774,"x_min":64,"x_max":779,"o":"m 779 807 q 765 744 779 774 q 711 683 751 715 q 524 556 646 629 q 656 439 610 496 q 699 299 701 382 q 632 141 696 217 q 481 27 568 65 q 314 -6 393 -11 q 133 60 203 -3 q 70 206 64 124 q 130 346 76 289 q 335 506 183 403 q 201 622 247 568 q 158 749 154 676 q 224 894 161 822 q 374 1005 288 965 q 545 1041 460 1044 q 705 963 631 1038 q 779 807 779 888 m 439 99 q 574 263 525 158 q 525 358 569 314 q 400 460 481 403 q 206 253 278 356 q 265 128 210 167 q 439 99 321 89 m 457 599 q 644 758 549 664 q 490 950 632 914 q 378 876 435 925 q 292 772 321 826 q 323 708 296 740 q 378 653 350 675 q 457 599 406 632 z "},"9":{"ha":815,"x_min":76,"x_max":792,"o":"m 241 906 q 300 973 241 906 q 490 1040 360 1040 q 706 910 621 1040 q 762 554 792 779 q 602 192 732 329 q 215 -17 472 54 q 168 35 188 0 q 156 101 149 71 q 510 240 376 144 q 628 590 607 390 q 615 779 638 699 q 447 472 544 582 q 261 363 350 363 q 124 429 172 363 q 96 610 76 496 q 241 906 122 771 m 319 478 q 469 638 396 531 q 579 857 542 746 q 476 931 538 918 q 338 819 415 918 q 244 628 261 721 q 238 556 239 589 q 257 501 238 524 q 319 478 276 479 z "},"\u0000":{"ha":0,"x_min":0,"x_max":0,"o":""},"\r":{"ha":603,"x_min":0,"x_max":0,"o":""}," ":{"ha":603,"x_min":0,"x_max":0,"o":""},"!":{"ha":451,"x_min":40,"x_max":476,"o":"m 263 83 q 190 20 233 46 q 115 -6 147 -6 q 62 14 82 -6 q 40 65 42 33 q 90 152 50 111 q 171 199 129 193 q 229 161 200 199 q 263 83 258 124 m 354 853 l 239 310 q 146 314 204 268 l 206 608 l 281 1224 q 476 1181 410 1254 l 354 853 z "},"\"":{"ha":465,"x_min":169,"x_max":549,"o":"m 375 936 l 436 1247 q 549 1247 507 1276 l 532 1136 l 449 919 q 375 936 400 913 m 169 936 l 232 1247 q 346 1247 301 1276 l 328 1136 l 247 919 q 169 936 200 913 z "},"#":{"ha":1014,"x_min":47,"x_max":1053,"o":"m 1004 783 l 821 781 l 739 410 l 938 424 q 925 328 975 397 l 725 325 l 681 -33 q 602 -37 650 -44 q 522 -1 554 -29 l 596 322 l 372 319 l 329 -33 q 251 -37 299 -44 q 171 -1 204 -29 l 243 318 l 78 315 q 86 407 47 347 l 263 401 l 311 615 l 340 775 l 151 772 q 156 863 119 801 l 356 857 l 418 1203 q 594 1172 531 1225 l 486 853 l 583 850 l 707 858 l 769 1203 q 946 1172 881 1225 l 843 868 l 1017 879 q 1004 783 1053 854 m 663 619 l 692 779 l 468 776 l 385 399 l 506 394 l 614 401 l 663 619 z "},"$":{"ha":831,"x_min":28,"x_max":797,"o":"m 536 879 l 486 585 q 608 510 563 540 q 707 431 654 481 q 779 332 760 381 q 660 124 760 210 q 389 6 561 39 l 357 -179 q 253 -128 288 -199 l 301 18 q 126 129 204 57 q 28 267 47 201 q 95 338 60 319 q 186 338 131 356 q 241 209 210 257 q 333 114 272 161 l 351 169 l 407 475 q 153 672 213 579 q 118 758 125 714 q 276 944 165 868 q 510 1036 388 1019 l 540 1200 q 640 1158 610 1222 l 588 1018 q 797 822 729 954 q 654 749 779 731 q 553 924 617 861 l 536 879 m 433 615 l 493 943 q 341 861 413 917 q 271 767 269 806 q 314 695 272 729 q 433 615 356 661 m 621 314 q 582 372 621 343 q 463 444 543 401 l 404 99 q 560 188 500 129 q 621 314 621 246 z "},"%":{"ha":1007,"x_min":85,"x_max":968,"o":"m 500 532 l 801 1165 q 922 1129 894 1179 l 224 -115 q 115 -76 139 -125 l 500 532 m 785 501 q 689 282 718 438 q 675 107 668 176 q 733 51 688 71 q 829 278 799 114 q 840 453 847 381 q 785 501 826 492 m 947 280 q 936 214 947 280 q 863 69 925 147 q 724 -10 801 -10 q 597 65 646 -10 q 571 272 549 139 q 652 488 593 406 q 790 569 711 571 q 919 490 869 568 q 947 280 968 413 m 319 954 q 225 735 253 890 q 210 560 206 632 q 268 504 222 526 q 365 729 335 567 q 376 907 383 833 q 319 954 363 944 m 483 731 q 472 665 483 731 q 399 521 461 599 q 260 443 338 443 q 133 517 182 443 q 106 725 85 592 q 188 941 128 858 q 326 1023 247 1024 q 454 943 404 1022 q 483 731 504 864 z "},"&":{"ha":881,"x_min":121,"x_max":819,"o":"m 396 10 q 489 0 463 26 l 490 -214 q 403 -245 438 -243 q 335 -221 369 -247 l 396 10 m 618 1001 q 524 1011 551 985 l 522 1225 q 610 1256 578 1254 q 678 1232 643 1258 l 618 1001 m 151 685 q 343 862 225 799 q 590 925 461 925 q 801 824 718 925 q 785 761 808 785 q 694 724 761 738 l 608 842 q 315 686 439 833 q 474 576 357 613 q 588 606 536 586 q 619 496 644 579 q 417 444 497 479 q 279 331 336 408 q 337 244 293 282 q 440 189 381 207 q 717 360 622 250 q 794 340 768 371 q 806 258 819 308 q 429 99 646 143 q 226 182 304 124 q 121 314 147 240 q 224 452 164 404 q 379 526 285 500 q 226 585 289 540 q 151 685 163 631 z "},"'":{"ha":258,"x_min":167,"x_max":342,"o":"m 167 936 l 229 1247 q 342 1247 299 1276 l 325 1136 l 244 919 q 167 936 197 913 z "},"(":{"ha":733,"x_min":225,"x_max":788,"o":"m 596 1008 q 471 765 521 910 q 407 464 421 621 q 426 190 393 307 q 554 -50 460 74 q 460 -89 518 -100 q 251 499 225 167 q 393 910 269 724 q 708 1210 517 1096 q 788 1150 774 1213 l 596 1008 z "},")":{"ha":733,"x_min":10,"x_max":574,"o":"m 90 -90 q 10 -32 26 -94 l 204 111 q 327 355 278 211 q 390 656 376 499 q 372 930 404 814 q 243 1169 339 1046 q 339 1210 279 1215 q 547 619 574 954 q 405 209 528 396 q 90 -90 282 22 z "},"*":{"ha":511,"x_min":163,"x_max":597,"o":"m 425 1101 l 588 1124 q 578 1044 597 1083 l 425 1065 l 539 968 q 476 913 519 929 l 393 1039 l 396 882 q 317 882 358 869 l 357 1039 l 246 913 q 196 969 211 932 l 332 1065 l 174 1044 q 183 1124 163 1085 l 340 1101 l 222 1200 q 285 1254 246 1239 l 367 1129 l 364 1285 q 444 1285 406 1294 l 404 1129 l 515 1254 q 564 1199 551 1238 l 425 1101 z "},"+":{"ha":961,"x_min":96,"x_max":878,"o":"m 547 503 l 861 519 q 872 478 878 510 q 839 414 867 446 l 529 413 l 467 85 q 422 83 449 74 q 372 121 394 93 l 439 411 l 129 410 q 147 510 96 446 l 456 501 l 503 824 q 546 827 515 839 q 601 781 576 815 l 547 503 z "},",":{"ha":319,"x_min":-75,"x_max":215,"o":"m 215 65 q 128 -83 193 -11 q -17 -201 63 -154 q -75 -160 -61 -193 l 35 -46 l 36 151 q 154 155 104 183 q 215 65 204 126 z "},"-":{"ha":718,"x_min":72,"x_max":676,"o":"m 658 519 q 671 478 676 510 q 638 414 665 446 l 88 403 q 76 446 72 418 q 103 503 81 474 l 364 497 l 658 519 z "},".":{"ha":339,"x_min":3,"x_max":221,"o":"m 221 88 q 153 25 194 50 q 81 0 113 0 q 28 19 49 0 q 3 69 7 39 q 46 156 10 115 q 122 200 82 196 q 183 164 151 200 q 221 88 214 128 z "},"/":{"ha":678,"x_min":-26,"x_max":781,"o":"m 358 532 l 660 1165 q 781 1129 753 1179 l 82 -115 q -26 -76 -3 -125 l 358 532 z "},":":{"ha":361,"x_min":24,"x_max":318,"o":"m 318 583 q 252 521 293 546 q 179 496 211 496 q 126 515 147 496 q 101 565 106 535 q 144 651 108 611 q 221 697 179 692 q 281 660 250 697 q 318 583 311 624 m 242 88 q 176 25 217 50 q 103 0 135 0 q 50 19 71 0 q 24 69 29 39 q 67 156 31 115 q 144 200 103 196 q 204 164 174 200 q 242 88 235 128 z "},";":{"ha":353,"x_min":-60,"x_max":318,"o":"m 231 65 q 143 -83 208 -11 q -3 -201 78 -154 q -60 -160 -49 -192 l 50 -46 l 51 151 q 169 155 119 183 q 231 65 219 126 m 318 583 q 252 521 293 546 q 179 496 211 496 q 126 515 147 496 q 101 565 106 535 q 144 651 108 611 q 221 697 179 692 q 281 660 250 697 q 318 583 311 624 z "},"<":{"ha":828,"x_min":85,"x_max":781,"o":"m 492 610 l 219 486 l 708 222 q 646 136 708 161 l 376 299 l 97 443 q 114 539 85 492 l 742 824 q 774 774 767 808 q 764 708 781 740 l 492 610 z "},"=":{"ha":893,"x_min":65,"x_max":864,"o":"m 803 403 q 815 360 821 393 q 781 297 808 328 l 81 285 q 69 328 65 300 q 96 386 74 357 l 451 379 l 803 403 m 846 667 q 858 624 864 656 q 825 561 853 593 l 125 550 q 114 593 110 565 q 140 650 118 621 l 496 643 l 846 667 z "},">":{"ha":828,"x_min":82,"x_max":779,"o":"m 156 738 q 218 824 156 800 l 767 517 q 750 421 779 468 l 421 279 l 122 136 q 90 185 97 151 q 99 251 82 219 l 646 474 l 389 625 l 156 738 z "},"?":{"ha":946,"x_min":183,"x_max":956,"o":"m 406 83 q 333 20 376 46 q 258 -6 290 -6 q 206 15 225 -6 q 183 65 186 35 q 233 152 193 111 q 314 199 272 193 q 372 161 343 199 q 406 83 401 124 m 313 804 q 256 876 282 804 q 246 1022 229 947 q 732 1204 503 1204 q 902 1114 849 1204 q 913 897 956 1024 q 740 688 871 769 q 394 556 608 607 l 343 261 q 275 285 278 240 l 261 561 q 300 623 274 593 q 356 669 326 653 q 653 774 531 701 q 810 943 776 847 q 775 1090 836 1032 q 349 939 557 1082 l 363 819 q 313 804 329 804 z "},"@":{"ha":1363,"x_min":36,"x_max":1342,"o":"m 904 38 q 835 219 792 113 l 819 229 q 733 136 804 213 q 625 18 661 60 q 437 88 501 22 q 371 265 372 154 q 424 490 369 375 q 574 680 478 604 q 775 757 669 756 q 908 618 851 715 q 932 760 910 717 q 1043 756 1007 767 q 1103 710 1079 746 l 990 496 q 933 122 957 301 q 1251 493 1193 272 q 1143 804 1233 694 q 851 979 1053 914 q 373 760 571 954 q 175 326 175 567 q 295 4 175 131 q 607 -171 415 -122 q 846 -24 757 -115 q 910 -44 893 -25 q 926 -104 928 -62 q 614 -253 832 -196 q 199 -52 363 -210 q 36 335 36 106 q 154 692 36 524 q 456 958 272 861 q 842 1056 640 1056 q 1192 895 1043 1056 q 1342 522 1342 735 q 1212 235 1342 372 q 904 38 1082 97 m 526 268 q 599 125 526 168 q 839 347 776 289 l 882 531 q 767 663 839 615 q 590 507 653 614 q 526 268 526 400 z "},"A":{"ha":856,"x_min":-8,"x_max":853,"o":"m 688 483 l 833 511 q 851 467 853 497 q 825 403 849 438 l 696 396 l 726 8 q 628 3 679 -6 q 549 40 578 13 l 561 388 l 376 376 l 311 368 l 156 8 q 56 3 104 -6 q -8 42 8 13 l 153 347 l 50 333 q 58 442 11 383 l 207 447 l 303 629 l 442 985 q 622 1021 529 1031 q 689 1006 660 1017 l 665 768 l 688 483 m 347 451 l 563 460 l 564 460 l 549 886 l 535 883 l 347 451 z "},"B":{"ha":861,"x_min":89,"x_max":826,"o":"m 432 1025 q 722 951 618 1025 q 825 778 826 876 q 781 625 824 679 q 636 518 739 571 l 635 508 q 775 442 713 490 q 804 333 804 393 q 681 58 801 181 q 229 0 485 -11 q 89 114 99 33 q 218 625 174 397 l 250 913 l 196 904 q 163 952 168 924 q 175 999 158 981 q 432 1025 289 1025 m 253 92 q 569 131 442 86 q 646 326 643 219 q 631 403 646 367 q 506 463 574 449 q 319 467 438 478 l 253 92 m 667 754 q 597 888 669 836 q 392 925 525 939 l 328 544 q 581 586 481 542 q 650 661 635 633 q 667 754 665 689 z "},"C":{"ha":847,"x_min":63,"x_max":829,"o":"m 565 935 q 315 741 417 882 q 213 458 213 600 q 267 238 213 317 q 443 111 322 160 q 703 281 604 176 q 760 265 740 288 q 776 210 779 242 q 638 96 731 154 q 449 0 546 38 q 63 446 63 89 q 163 764 63 588 q 625 1040 374 1000 q 768 930 717 1006 q 829 768 819 854 q 749 722 796 733 q 657 729 703 711 q 588 938 644 872 l 565 935 z "},"D":{"ha":910,"x_min":67,"x_max":896,"o":"m 439 1026 q 772 901 653 1026 q 893 575 890 775 q 817 283 896 415 q 586 61 738 150 q 203 0 399 0 q 67 107 90 29 q 222 679 176 436 l 225 900 l 172 889 q 135 943 140 913 q 149 993 131 974 q 439 1026 274 1026 m 299 483 l 249 107 q 513 139 403 110 q 735 558 739 304 q 647 822 732 722 q 401 913 563 921 q 299 483 329 607 z "},"E":{"ha":757,"x_min":65,"x_max":819,"o":"m 328 549 q 632 579 335 550 q 647 519 650 557 q 621 447 643 482 q 314 460 431 463 l 228 110 q 628 179 431 136 q 661 144 653 171 q 635 39 675 96 l 197 0 q 65 111 69 32 q 232 683 182 421 l 249 900 q 176 918 224 914 q 181 999 153 972 q 789 1015 457 1024 q 803 923 819 979 q 736 833 786 867 l 639 906 q 408 908 506 921 l 367 767 l 328 549 z "},"F":{"ha":751,"x_min":92,"x_max":819,"o":"m 332 522 l 638 553 q 649 496 653 536 q 622 421 646 456 q 315 432 453 438 q 271 13 288 221 q 178 5 239 -6 q 92 47 117 15 q 243 713 175 332 l 249 901 q 176 919 224 915 q 181 1000 153 974 q 789 1017 457 1025 q 803 924 819 981 q 736 833 786 867 l 639 907 q 408 910 511 921 l 367 768 l 332 522 z "},"G":{"ha":900,"x_min":72,"x_max":857,"o":"m 742 332 l 732 336 q 464 0 642 126 q 165 156 254 51 q 74 419 75 261 q 174 744 72 578 q 363 931 246 850 q 631 1036 481 1011 q 853 775 819 976 q 774 721 819 735 q 683 729 729 707 q 660 848 675 803 q 608 935 646 893 l 588 935 q 330 740 435 881 q 224 438 225 600 q 279 231 224 300 q 349 165 310 193 q 450 107 388 138 q 704 424 619 251 l 699 431 l 483 393 q 451 459 454 422 q 478 521 447 496 q 810 518 642 493 q 829 306 857 438 q 795 174 814 233 q 739 4 776 115 q 671 6 703 -3 q 626 40 639 15 q 742 332 721 236 z "},"H":{"ha":985,"x_min":53,"x_max":967,"o":"m 242 986 q 356 1026 313 1026 q 433 1011 400 1026 l 324 574 l 321 544 l 518 549 l 714 579 q 736 704 724 625 l 751 986 q 866 1026 822 1026 q 943 1011 910 1026 l 839 597 l 946 614 q 965 570 967 600 q 936 504 963 540 l 826 496 q 772 10 774 31 q 667 4 725 -7 q 592 50 610 15 q 697 486 668 340 l 311 457 q 261 10 285 235 q 157 4 214 -7 q 81 50 100 15 q 176 440 147 300 l 92 429 q 104 540 53 481 l 197 542 q 226 704 214 628 l 242 986 z "},"I":{"ha":351,"x_min":28,"x_max":381,"o":"m 189 986 q 301 1026 257 1026 q 381 1011 346 1026 l 271 574 q 242 307 264 499 q 208 10 219 115 q 105 4 163 -7 q 28 50 47 15 q 172 704 126 417 l 189 986 z "},"J":{"ha":801,"x_min":35,"x_max":932,"o":"m 449 917 l 194 892 q 178 999 144 946 q 892 1007 565 1024 q 868 896 932 968 l 611 919 l 524 556 q 502 344 518 493 q 478 96 486 194 q 388 20 449 44 q 251 3 328 -4 q 110 120 168 49 q 35 264 53 192 q 109 326 68 310 q 188 322 150 343 q 296 100 203 199 l 318 111 q 440 711 413 536 l 449 917 z "},"K":{"ha":864,"x_min":47,"x_max":868,"o":"m 207 990 q 324 1029 279 1029 q 400 1014 369 1029 l 289 574 l 288 556 l 471 679 l 756 1029 q 838 998 811 1022 q 868 929 864 974 q 645 726 789 846 q 376 529 501 607 q 764 140 494 233 q 760 58 783 99 q 676 0 736 18 q 460 199 554 67 q 311 496 365 332 l 279 474 q 228 10 240 143 q 123 4 181 -7 q 47 50 65 15 q 190 704 146 422 l 207 990 z "},"L":{"ha":674,"x_min":24,"x_max":628,"o":"m 196 986 q 388 1011 310 1051 l 272 538 l 188 107 q 582 179 382 133 q 614 144 607 169 q 592 47 628 96 l 154 0 q 24 107 33 35 q 182 703 111 340 l 196 986 z "},"M":{"ha":1029,"x_min":18,"x_max":1069,"o":"m 899 1004 q 1001 1026 958 1026 q 1069 1006 1043 1026 l 961 572 q 933 315 956 506 q 900 10 911 125 q 795 4 851 -7 q 718 50 739 15 q 857 672 808 386 l 861 744 l 588 285 q 503 278 536 271 q 433 314 471 285 q 299 742 338 506 l 261 574 q 232 319 256 511 q 197 10 208 126 q 94 4 151 -7 q 18 50 36 15 q 163 703 114 410 l 181 997 q 283 1025 231 1025 q 368 997 336 1025 q 461 488 389 700 l 533 378 l 739 688 l 899 1004 z "},"N":{"ha":926,"x_min":10,"x_max":974,"o":"m 782 986 q 895 1026 850 1026 q 974 1011 940 1026 l 861 575 q 830 319 854 511 q 793 10 806 126 q 696 3 746 -4 q 614 39 646 11 q 318 839 447 376 l 256 574 q 224 301 249 493 q 190 10 200 108 q 86 4 143 -7 q 10 50 29 15 q 160 703 107 399 l 178 986 q 308 1026 250 1026 q 372 1010 339 1026 q 583 340 468 651 l 661 199 q 764 701 740 549 l 782 986 z "},"O":{"ha":882,"x_min":11,"x_max":863,"o":"m 221 443 q 267 238 221 336 q 399 89 314 140 q 601 265 525 164 q 721 504 676 367 q 667 757 704 650 q 554 943 629 864 q 313 730 404 867 q 221 443 221 593 m 564 1031 q 698 956 629 1031 q 813 760 767 881 q 861 532 860 640 q 785 299 863 424 q 598 87 708 174 q 404 0 488 0 q 242 69 321 0 q 117 236 164 138 q 142 711 11 458 q 330 942 214 854 q 564 1031 446 1031 z "},"P":{"ha":799,"x_min":86,"x_max":817,"o":"m 422 1029 q 710 945 606 1029 q 817 743 815 861 q 604 424 817 536 q 306 361 458 374 q 267 13 299 293 q 172 3 235 -6 q 86 43 110 13 q 218 653 150 268 l 242 915 l 175 913 q 158 963 157 938 q 176 1000 158 989 q 422 1029 279 1029 m 400 929 l 324 581 q 313 439 321 536 q 556 510 474 467 q 641 607 610 546 q 672 736 672 668 q 601 881 669 826 q 400 929 532 935 z "},"Q":{"ha":907,"x_min":11,"x_max":863,"o":"m 401 0 q 242 69 321 0 q 117 236 164 138 q 142 711 11 458 q 330 942 214 854 q 564 1031 446 1031 q 698 956 629 1031 q 813 760 767 881 q 861 519 860 640 q 746 242 863 399 q 499 25 629 85 l 542 -50 l 693 -128 q 655 -207 694 -181 q 550 -231 615 -233 l 414 0 l 401 0 m 221 443 q 267 238 221 336 q 399 89 314 140 q 601 265 525 164 q 721 504 676 367 q 667 757 704 650 q 554 943 629 864 q 313 730 404 867 q 221 443 221 593 z "},"R":{"ha":844,"x_min":79,"x_max":801,"o":"m 174 914 q 156 965 156 939 q 174 1001 156 990 q 421 1032 283 1032 q 701 955 601 1032 q 801 772 801 878 q 745 597 800 667 q 565 460 690 526 q 396 444 451 446 q 519 256 444 324 q 733 138 593 188 q 726 58 754 97 q 638 0 697 18 q 333 442 381 149 l 311 440 q 260 13 293 247 q 165 3 226 -6 q 79 43 104 13 q 215 658 147 272 l 243 915 l 174 914 m 322 588 l 317 513 q 529 547 421 517 q 620 642 593 594 q 647 765 647 690 q 586 889 647 840 q 401 932 525 938 l 322 588 z "},"S":{"ha":831,"x_min":28,"x_max":797,"o":"m 621 314 q 572 379 621 344 q 453 451 524 414 q 310 530 382 488 q 183 633 239 572 q 118 758 128 693 q 285 950 167 872 q 531 1039 403 1028 q 797 822 714 983 q 654 749 779 731 q 598 871 629 826 q 521 951 567 915 q 353 870 436 931 q 271 763 269 810 q 317 692 272 729 q 429 617 363 656 q 565 538 496 579 q 695 443 635 497 q 779 332 756 389 q 651 117 758 204 q 356 0 543 29 q 147 110 243 31 q 28 267 50 190 q 95 338 60 319 q 186 338 131 356 q 251 197 214 247 q 368 89 288 146 q 549 177 478 115 q 621 314 621 239 z "},"T":{"ha":801,"x_min":111,"x_max":901,"o":"m 411 913 l 160 890 q 143 999 111 944 q 885 1011 485 1024 q 897 965 901 996 q 864 899 893 933 l 576 921 l 493 564 q 436 10 483 449 q 333 4 390 -7 q 256 49 276 15 q 404 714 353 397 l 411 913 z "},"U":{"ha":840,"x_min":68,"x_max":885,"o":"m 378 0 q 165 78 246 0 q 68 249 83 156 q 175 990 154 742 q 293 1029 247 1029 q 368 1014 339 1029 q 224 297 228 553 q 300 134 218 194 q 510 121 382 74 q 631 340 590 210 q 706 686 671 469 l 693 990 q 809 1029 763 1029 q 885 1014 856 1029 q 842 774 869 940 q 791 495 814 608 q 739 297 768 382 q 663 139 710 211 q 378 0 571 0 z "},"V":{"ha":813,"x_min":144,"x_max":889,"o":"m 706 740 l 675 981 q 791 1014 739 1015 q 878 983 843 1013 q 817 718 889 858 q 676 474 771 636 q 528 218 581 313 l 449 7 q 347 2 401 -8 q 260 46 293 13 l 144 969 q 240 1013 182 1004 q 325 999 297 1022 l 344 379 l 385 110 l 706 740 z "},"W":{"ha":1193,"x_min":146,"x_max":1278,"o":"m 1096 743 l 1065 988 q 1268 990 1188 1050 q 1208 722 1278 863 l 960 222 l 896 7 q 794 2 850 -8 q 708 44 739 13 l 664 458 l 536 215 l 458 7 q 358 2 411 -8 q 271 46 304 13 l 146 976 q 240 1019 182 1011 q 325 1004 297 1026 l 350 379 l 392 126 l 642 597 l 599 889 q 769 925 679 965 l 779 417 l 829 110 l 1096 743 z "},"X":{"ha":890,"x_min":19,"x_max":936,"o":"m 492 578 l 817 1028 q 936 922 918 1035 q 517 515 779 788 q 810 139 681 232 q 784 52 818 92 q 679 0 750 13 q 551 199 617 69 q 458 439 485 329 l 144 0 q 47 39 74 8 q 22 115 19 69 q 440 511 154 215 q 297 728 381 631 q 131 883 214 826 q 157 978 124 939 q 256 1026 190 1018 q 399 831 336 954 q 492 578 463 708 z "},"Y":{"ha":831,"x_min":151,"x_max":888,"o":"m 151 969 q 232 1024 183 1010 q 319 1018 281 1039 l 358 767 l 472 468 l 478 468 l 511 531 l 724 810 l 671 1000 q 888 992 808 1061 q 822 799 886 881 q 544 458 757 718 q 489 10 508 322 q 400 -1 458 -10 q 308 38 342 8 q 396 419 360 181 q 151 969 324 608 z "},"Z":{"ha":853,"x_min":8,"x_max":876,"o":"m 169 68 l 163 63 l 174 32 q 38 1 136 -8 q 11 86 8 35 q 203 325 11 142 q 376 495 286 407 q 551 689 465 583 q 682 883 638 794 l 674 894 q 311 917 417 894 q 257 772 267 857 q 103 821 133 753 q 265 1029 146 981 q 478 990 346 1007 q 707 969 611 972 l 736 1039 q 833 1023 801 1038 q 876 971 864 1008 q 613 578 832 828 q 200 157 393 329 l 206 144 q 621 129 536 140 q 660 243 646 179 q 817 192 788 269 q 658 0 788 88 q 434 47 578 29 q 169 68 290 64 z "},"[":{"ha":753,"x_min":144,"x_max":811,"o":"m 638 1117 l 540 1111 l 474 878 l 375 360 l 319 -1 l 576 35 q 556 -44 597 1 l 214 -101 q 144 -25 156 -71 l 293 581 l 386 1196 l 803 1204 q 776 1108 811 1164 l 638 1117 z "},"\\":{"ha":661,"x_min":90,"x_max":589,"o":"m 90 1169 q 132 1215 103 1203 q 194 1213 161 1226 l 358 506 l 589 -142 q 481 -161 553 -187 l 90 1169 z "},"]":{"ha":783,"x_min":10,"x_max":701,"o":"m 518 328 l 496 -43 l 44 -106 q 39 6 10 -51 l 332 11 l 432 581 l 532 1117 l 268 1110 q 251 1203 226 1172 l 656 1185 q 701 1083 696 1147 l 518 328 z "},"^":{"ha":676,"x_min":75,"x_max":675,"o":"m 675 571 q 600 543 644 543 q 539 558 556 543 l 414 992 l 138 543 q 96 551 114 540 q 75 581 78 563 l 383 1071 q 521 1054 472 1088 l 675 571 z "},"_":{"ha":889,"x_min":-39,"x_max":735,"o":"m 717 -68 q 729 -110 735 -78 q 696 -174 724 -142 l -6 -185 q 11 -85 -39 -149 l 365 -90 l 717 -68 z "},"`":{"ha":344,"x_min":147,"x_max":411,"o":"m 301 1113 l 411 849 q 343 825 394 814 l 267 935 l 147 1051 q 208 1111 163 1096 q 301 1113 254 1126 z "},"a":{"ha":778,"x_min":42,"x_max":778,"o":"m 488 226 l 297 18 q 108 88 172 22 q 43 265 44 154 q 96 490 42 375 q 246 680 150 604 q 447 757 342 756 q 582 614 525 717 l 583 617 q 607 760 585 714 q 719 755 679 767 q 778 710 758 743 l 667 497 q 631 10 646 329 q 531 4 586 -7 q 442 49 475 15 l 504 211 l 488 226 m 199 268 q 271 125 199 168 q 515 350 482 318 l 556 526 q 438 663 514 611 q 262 507 325 614 q 199 268 199 400 z "},"b":{"ha":753,"x_min":56,"x_max":731,"o":"m 238 553 l 256 535 q 454 757 340 646 q 653 644 592 722 q 731 451 707 576 q 548 155 685 271 q 210 0 411 39 q 56 126 71 35 q 192 750 132 419 l 207 1100 q 310 1140 268 1133 q 393 1126 351 1146 l 313 796 l 283 636 l 238 553 m 203 97 q 464 231 364 132 q 588 456 564 329 q 547 569 576 528 q 457 638 517 611 q 260 433 350 543 q 203 97 232 235 z "},"c":{"ha":715,"x_min":47,"x_max":665,"o":"m 458 760 q 600 685 547 744 q 665 543 653 626 q 595 499 639 510 q 507 501 551 488 q 490 598 506 563 q 438 669 474 633 l 408 664 q 265 527 321 613 q 206 355 210 442 q 233 204 201 268 q 350 99 264 140 q 590 225 504 146 q 642 154 653 228 q 501 59 594 106 q 329 0 408 13 q 114 124 181 32 q 53 338 47 215 q 101 504 54 418 q 458 760 256 717 z "},"d":{"ha":726,"x_min":42,"x_max":801,"o":"m 486 224 l 297 18 q 109 86 175 19 q 43 261 43 153 q 166 598 42 440 q 450 757 290 756 q 582 624 525 744 q 610 750 583 629 l 611 1100 q 719 1140 678 1135 q 801 1126 760 1146 l 717 808 q 606 10 690 600 q 507 3 557 -6 q 433 43 457 11 l 501 210 l 486 224 m 271 125 l 515 350 l 558 526 q 498 620 525 592 q 443 667 471 649 q 265 510 331 619 q 199 268 200 400 q 271 125 199 168 z "},"e":{"ha":715,"x_min":42,"x_max":663,"o":"m 433 768 q 613 653 563 740 q 643 444 663 565 q 197 289 406 332 q 343 100 214 156 q 582 218 496 143 q 627 201 615 218 q 633 146 639 185 q 501 58 597 103 q 329 0 404 14 q 113 121 185 29 q 44 340 42 213 q 93 510 49 417 q 433 768 242 703 m 193 372 l 193 364 q 511 479 344 403 q 494 601 515 556 q 417 675 474 646 l 396 669 q 253 535 311 622 q 193 372 196 447 z "},"f":{"ha":557,"x_min":-22,"x_max":672,"o":"m 213 653 l 199 992 q 464 1156 315 1139 q 606 1080 551 1139 q 672 940 660 1021 q 604 896 649 908 q 519 899 560 883 q 498 994 515 960 q 440 1063 481 1029 q 336 1007 386 1051 q 318 660 340 882 l 564 707 q 584 663 585 693 q 561 597 583 632 l 311 583 q 233 10 279 286 q 131 3 182 -6 q 63 43 81 13 q 197 564 146 286 l 19 532 q 21 643 -22 583 l 211 643 l 213 653 z "},"g":{"ha":742,"x_min":43,"x_max":775,"o":"m 489 228 l 297 18 q 108 88 174 22 q 43 265 43 154 q 97 490 43 375 q 247 681 151 604 q 446 757 342 757 q 582 619 521 743 q 604 760 583 715 q 715 756 676 767 q 775 710 754 744 l 654 463 q 578 20 619 303 q 532 -297 538 -262 q 434 -365 501 -340 q 292 -390 367 -389 q 130 -269 190 -340 q 56 -125 69 -199 q 130 -58 88 -75 q 210 -64 172 -42 q 328 -285 222 -192 q 383 -265 361 -287 q 453 81 419 -133 l 506 214 l 489 228 m 199 271 q 271 125 199 168 q 515 350 482 318 l 556 528 l 554 526 q 443 667 507 626 q 264 511 329 619 q 199 271 199 403 z "},"h":{"ha":775,"x_min":35,"x_max":735,"o":"m 251 557 l 265 538 q 529 757 386 685 q 667 697 615 750 q 735 578 719 643 l 681 442 q 656 10 660 251 q 560 4 607 -6 q 482 44 513 14 q 576 558 504 208 q 519 635 567 614 q 269 429 396 579 q 206 10 236 181 q 103 3 154 -6 q 35 43 53 13 q 200 750 131 346 l 208 1096 q 313 1139 269 1132 q 397 1126 356 1146 l 315 801 l 301 621 l 251 557 z "},"i":{"ha":354,"x_min":44,"x_max":351,"o":"m 157 499 l 151 728 q 328 731 274 782 l 272 535 q 224 10 253 360 q 124 4 178 -7 q 44 50 69 15 q 157 499 103 231 m 349 914 q 350 895 349 914 q 325 849 351 876 q 260 822 299 822 q 193 849 221 822 q 164 913 165 875 q 190 978 163 951 q 256 1004 217 1004 q 321 978 294 1004 q 349 914 347 951 z "},"j":{"ha":410,"x_min":-201,"x_max":467,"o":"m -51 -61 q 61 -285 -36 -193 l 85 -274 q 118 -29 96 -194 q 154 233 140 136 q 253 760 194 514 q 365 756 325 767 q 431 713 404 746 l 310 450 q 232 -303 260 133 q 150 -369 213 -346 q 13 -386 88 -392 q -130 -266 -74 -336 q -201 -126 -186 -196 q -130 -58 -172 -76 q -51 -61 -87 -40 m 466 914 q 466 896 466 914 q 442 852 467 878 q 379 826 417 826 q 315 851 342 826 q 288 913 289 876 q 312 976 286 950 q 375 1001 338 1001 q 439 976 413 1001 q 466 914 465 950 z "},"k":{"ha":735,"x_min":15,"x_max":693,"o":"m 226 501 l 233 489 q 615 760 413 651 q 676 713 660 753 q 667 624 693 672 q 272 429 428 546 q 650 133 388 226 q 649 63 672 101 q 571 0 626 24 q 385 140 474 53 q 235 326 296 226 q 188 10 219 222 q 84 4 135 -6 q 15 44 33 14 q 186 806 113 344 l 160 1085 q 331 1133 228 1150 q 265 556 338 1004 l 226 501 z "},"l":{"ha":378,"x_min":50,"x_max":401,"o":"m 203 750 l 213 1097 q 401 1126 325 1164 l 317 810 q 233 10 260 249 q 128 4 188 -7 q 50 50 69 15 q 203 750 153 410 z "},"m":{"ha":1133,"x_min":29,"x_max":1090,"o":"m 615 10 q 509 5 551 -6 q 449 42 467 15 q 558 565 501 361 q 485 640 535 618 q 381 563 429 611 q 263 429 332 515 q 200 10 233 197 q 99 3 149 -6 q 29 43 49 13 q 154 507 108 292 l 121 711 q 292 758 193 778 q 285 618 303 722 l 244 550 l 258 536 q 324 615 299 586 q 399 686 350 644 q 501 757 447 728 q 688 644 625 742 l 642 572 l 656 564 q 886 757 768 693 q 1028 692 975 744 q 1090 578 1081 640 l 1038 435 q 1015 10 1019 253 q 919 4 967 -6 q 842 44 872 14 q 933 558 867 225 q 876 635 922 611 q 663 468 774 592 q 615 10 618 313 z "},"n":{"ha":768,"x_min":29,"x_max":726,"o":"m 244 550 l 256 539 q 521 757 378 688 q 658 697 606 750 q 726 578 711 643 l 672 435 q 650 10 653 218 q 554 4 601 -6 q 476 44 507 14 q 568 558 504 243 q 511 635 560 611 q 261 429 392 579 q 200 10 242 254 q 99 3 149 -6 q 29 43 49 13 q 154 507 108 292 l 121 711 q 292 761 193 776 q 285 618 303 722 l 244 550 z "},"o":{"ha":722,"x_min":39,"x_max":685,"o":"m 39 325 q 97 519 39 414 q 248 699 156 625 q 423 774 340 774 q 592 646 506 774 q 682 415 679 518 q 550 142 685 283 q 289 0 415 0 q 123 99 207 0 q 39 325 39 199 m 410 683 q 176 342 215 563 q 294 83 182 181 q 468 212 407 136 q 553 400 529 288 q 410 683 529 569 z "},"p":{"ha":754,"x_min":-29,"x_max":740,"o":"m 242 550 l 254 538 q 451 757 356 668 q 658 644 593 725 q 740 426 722 563 q 609 184 706 285 q 349 0 513 83 q 213 54 271 15 q 143 -371 172 -244 q 42 -377 90 -386 q -29 -337 -7 -368 q 154 499 90 74 l 118 711 q 289 761 189 776 q 282 618 300 722 l 242 550 m 340 97 q 506 240 443 161 q 597 432 568 319 q 454 638 583 585 q 257 428 351 549 q 242 301 253 397 q 224 153 231 206 q 340 97 278 113 z "},"q":{"ha":754,"x_min":40,"x_max":768,"o":"m 494 228 l 304 18 q 110 85 178 19 q 42 263 43 151 q 95 489 40 375 q 244 679 150 603 q 442 757 339 756 q 574 632 515 744 q 597 760 581 724 q 768 710 731 772 l 660 497 q 595 156 638 386 q 524 -206 553 -75 l 532 -214 q 622 -128 557 -190 q 696 -60 688 -67 q 739 -100 735 -56 q 613 -256 704 -147 q 504 -385 521 -364 q 363 -285 363 -361 q 494 228 465 92 m 197 268 q 276 125 197 167 q 390 230 306 151 q 518 347 475 308 l 554 525 q 503 610 526 579 q 440 667 479 642 q 263 510 328 619 q 197 268 197 400 z "},"r":{"ha":600,"x_min":35,"x_max":610,"o":"m 250 550 l 264 538 q 458 757 383 675 q 567 693 525 746 q 610 564 608 640 q 451 539 528 497 q 425 621 454 601 q 269 444 333 519 q 206 10 240 206 q 104 3 154 -6 q 35 43 54 13 q 160 507 119 311 l 126 711 q 297 761 197 776 q 290 618 308 724 l 250 550 z "},"s":{"ha":683,"x_min":26,"x_max":622,"o":"m 465 232 q 296 350 465 275 q 169 426 231 378 q 92 526 107 475 q 215 700 117 631 q 433 778 313 769 q 622 593 583 731 q 583 546 618 561 q 483 542 547 531 q 417 703 475 631 q 291 635 349 683 q 233 559 233 588 q 286 499 233 531 q 405 436 339 467 q 533 354 471 406 q 610 246 596 303 q 491 70 583 135 q 257 0 399 6 q 109 76 175 19 q 26 196 43 133 q 85 263 54 244 q 163 269 117 282 q 268 72 186 143 q 412 138 358 90 q 465 232 465 185 z "},"t":{"ha":586,"x_min":26,"x_max":611,"o":"m 590 797 q 611 752 611 782 q 589 686 611 722 l 351 678 q 289 110 350 665 q 478 204 399 144 q 526 189 515 206 q 533 136 536 172 q 403 55 482 93 q 250 0 325 17 q 115 93 136 17 q 247 660 203 426 l 69 626 q 71 739 26 678 l 256 738 l 249 950 q 431 965 363 1021 l 365 754 l 590 797 z "},"u":{"ha":767,"x_min":38,"x_max":761,"o":"m 115 385 l 124 617 l 124 758 q 300 710 235 781 q 190 182 285 550 q 288 115 207 139 q 496 342 421 236 l 496 344 q 588 760 542 590 q 701 753 663 764 q 761 710 740 743 l 651 497 q 622 10 626 285 q 526 4 575 -6 q 446 44 478 14 l 513 215 l 496 229 q 293 0 415 124 q 38 150 75 28 l 115 385 z "},"v":{"ha":675,"x_min":38,"x_max":699,"o":"m 518 718 q 699 729 633 799 q 350 1 629 307 q 231 18 288 -3 q 156 82 175 39 q 180 327 179 242 q 154 518 181 413 l 38 661 q 199 757 71 764 q 304 121 340 560 l 317 113 q 560 560 511 346 l 518 718 z "},"w":{"ha":1036,"x_min":38,"x_max":1063,"o":"m 689 118 l 700 111 q 928 565 867 306 l 882 724 q 1063 739 997 807 q 740 1 1017 324 q 623 18 678 -6 q 553 85 568 42 q 583 407 590 261 l 574 411 q 331 1 508 232 q 213 19 268 -4 q 142 82 158 42 q 169 320 167 231 q 156 518 172 410 l 38 661 q 199 757 74 764 q 290 119 335 549 l 303 117 q 536 542 442 293 l 449 671 q 611 750 492 767 q 697 454 679 600 q 689 118 714 308 z "},"x":{"ha":760,"x_min":13,"x_max":738,"o":"m 400 450 l 617 757 q 701 733 672 760 q 738 651 729 707 q 586 538 656 600 q 421 376 517 475 q 649 154 497 228 q 639 63 668 108 q 544 0 610 18 q 365 308 396 119 l 133 0 q 40 40 68 8 q 15 117 13 72 q 347 385 188 232 q 114 601 257 543 q 138 699 107 658 q 226 757 169 740 q 400 450 369 650 z "},"y":{"ha":718,"x_min":26,"x_max":754,"o":"m 493 346 q 582 760 546 653 q 693 754 654 765 q 754 710 732 743 l 631 474 q 510 -303 583 239 q 406 -370 475 -349 q 256 -389 338 -392 q 99 -269 158 -342 q 26 -124 39 -196 q 101 -58 58 -75 q 179 -64 143 -42 q 299 -285 196 -200 q 363 -269 344 -290 q 439 94 400 -137 l 496 200 l 478 215 q 321 58 421 149 q 46 222 78 94 l 114 417 q 117 758 129 604 q 296 710 226 781 q 260 503 279 586 q 196 253 242 421 q 234 201 210 221 q 311 165 258 182 q 493 346 439 264 z "},"z":{"ha":757,"x_min":22,"x_max":738,"o":"m 232 510 q 92 557 119 489 q 244 757 129 714 q 575 689 446 694 l 601 757 q 694 742 664 757 q 738 692 724 728 q 199 151 714 519 l 203 139 q 292 136 231 138 q 511 119 433 131 q 549 228 538 169 q 685 174 672 257 q 531 0 650 61 q 171 68 394 61 l 165 63 l 176 31 q 47 0 149 -7 q 24 81 22 38 q 63 168 25 125 q 163 257 101 211 q 292 351 225 303 q 432 467 360 400 q 549 603 504 535 l 542 615 q 279 649 425 615 q 232 510 239 592 z "},"{":{"ha":904,"x_min":156,"x_max":800,"o":"m 575 1218 q 800 1121 676 1218 q 740 1043 797 1064 l 588 1138 l 533 1106 q 574 785 617 928 q 484 642 550 697 q 331 585 418 588 l 326 564 q 478 306 481 467 q 307 -3 475 146 l 344 -53 l 533 -15 q 562 -50 551 -28 q 567 -93 572 -72 q 338 -143 442 -136 q 224 -78 272 -125 q 156 35 176 -32 q 322 324 315 140 q 283 458 324 397 q 183 546 243 519 l 218 663 q 364 732 300 663 q 438 903 428 801 q 382 1124 447 1006 q 470 1192 417 1165 q 575 1218 524 1218 z "},"|":{"ha":349,"x_min":-21,"x_max":440,"o":"m 253 1326 q 364 1368 321 1368 q 440 1353 407 1368 l 264 588 q 213 194 258 526 q 156 -257 168 -137 q 53 -261 108 -272 q -21 -215 -3 -250 q 163 728 74 138 l 253 1326 z "},"}":{"ha":904,"x_min":138,"x_max":783,"o":"m 615 761 q 654 626 614 688 q 754 538 694 564 l 719 421 q 575 351 639 421 q 501 180 511 282 q 556 -40 490 78 q 363 -140 492 -129 q 138 -37 251 -115 q 197 39 140 22 l 350 -54 l 404 -22 q 364 299 321 156 q 454 441 389 386 q 607 499 519 496 l 613 519 q 460 774 456 619 q 632 1086 461 940 l 593 1136 l 404 1099 q 371 1176 361 1129 q 588 1226 475 1222 q 707 1172 654 1224 q 783 1049 760 1121 q 615 761 622 943 z "},"~":{"ha":901,"x_min":76,"x_max":815,"o":"m 275 583 q 453 547 393 569 q 594 474 513 524 l 604 472 l 715 572 q 785 565 757 579 q 815 526 814 551 q 601 381 747 435 q 288 494 393 410 l 278 490 l 182 388 q 108 400 140 385 q 78 438 76 415 q 275 583 161 539 z "}," ":{"ha":603,"x_min":0,"x_max":0,"o":""},"¡":{"ha":563,"x_min":49,"x_max":485,"o":"m 263 721 q 335 784 292 758 q 410 810 378 810 q 463 790 443 810 q 485 739 483 769 q 435 652 475 693 q 354 606 396 611 q 296 643 325 606 q 263 721 267 681 m 171 -49 l 286 494 q 379 490 321 536 l 319 196 l 244 -419 q 49 -376 115 -450 l 171 -49 z "},"¢":{"ha":718,"x_min":47,"x_max":671,"o":"m 543 885 l 489 753 q 611 676 564 732 q 671 547 658 619 q 603 500 646 513 q 518 501 560 488 q 454 654 511 600 l 360 101 q 592 225 513 150 q 643 154 657 228 q 511 62 600 107 q 342 3 422 17 l 311 -179 q 207 -128 243 -199 l 265 18 q 99 145 151 60 q 51 324 47 231 q 101 504 56 418 q 411 747 235 689 l 443 926 q 543 885 513 949 m 301 126 l 396 656 q 262 521 314 603 q 206 360 210 439 q 224 224 203 282 q 301 126 244 167 z "},"£":{"ha":918,"x_min":69,"x_max":836,"o":"m 371 707 l 324 907 q 604 1054 432 1032 q 755 976 700 1035 q 821 839 810 917 q 753 794 797 806 q 663 797 708 783 q 645 893 661 858 q 590 964 629 928 q 464 908 506 946 q 447 528 488 742 l 699 554 q 683 463 732 533 l 432 456 q 319 133 389 282 q 636 104 472 104 l 721 179 q 746 0 836 132 q 269 51 481 10 q 157 0 232 4 q 74 99 79 46 q 126 193 69 153 l 203 168 q 317 453 276 318 l 133 449 q 143 536 108 478 l 335 519 q 371 707 358 613 z "},"¤":{"ha":957,"x_min":65,"x_max":947,"o":"m 446 151 q 311 214 381 151 l 172 60 q 86 94 107 65 q 82 165 65 124 l 256 275 q 194 457 194 363 q 300 706 194 575 l 122 835 q 131 905 107 876 q 219 935 154 933 l 353 764 q 583 878 471 878 q 710 806 642 878 l 839 947 q 926 913 904 942 q 931 842 947 885 l 764 738 q 839 554 838 626 q 710 289 839 418 l 881 181 q 877 110 899 139 q 789 75 856 81 l 647 233 q 446 151 540 151 m 332 472 q 451 231 338 324 q 624 351 564 281 q 707 526 685 422 q 567 792 689 678 q 332 472 371 682 z "},"¥":{"ha":847,"x_min":128,"x_max":889,"o":"m 374 276 q 400 417 386 347 l 397 422 l 151 383 q 133 438 132 406 q 156 494 133 469 l 371 490 q 153 969 299 671 q 233 1024 185 1010 q 321 1018 282 1039 l 360 767 l 468 454 l 474 454 l 501 517 l 725 810 l 672 1000 q 889 992 810 1061 q 816 790 888 881 q 592 515 744 700 l 794 553 q 818 509 818 540 q 793 442 818 478 l 540 439 q 515 294 526 381 l 789 339 q 812 295 811 328 q 788 228 813 263 l 507 217 q 490 10 497 119 q 401 -1 460 -10 q 310 38 343 8 q 357 203 333 101 l 147 165 q 128 219 128 188 q 151 276 129 250 l 374 276 z "},"¦":{"ha":360,"x_min":-31,"x_max":456,"o":"m 94 421 q 194 442 143 442 q 276 419 246 442 l 179 67 q 166 -78 178 38 q 150 -257 154 -194 q 49 -271 101 -281 q -31 -235 -4 -261 q 58 128 44 49 l 94 421 m 267 1344 q 375 1368 328 1368 q 456 1346 422 1368 l 353 983 q 339 849 351 965 q 322 667 326 733 q 222 658 275 651 q 143 685 169 664 q 170 787 154 726 q 194 878 186 847 q 231 1043 218 969 l 267 1344 z "},"§":{"ha":829,"x_min":11,"x_max":800,"o":"m 650 390 q 581 467 639 431 q 477 524 535 494 q 401 563 419 553 q 218 404 218 451 q 328 289 224 349 q 504 200 406 244 q 650 390 649 290 m 525 951 q 372 887 458 939 q 286 803 286 835 q 329 738 286 771 q 438 672 372 704 q 572 603 503 639 q 701 519 640 568 q 786 415 763 469 q 579 154 756 239 q 698 78 675 103 q 731 32 721 53 q 321 -269 669 -214 q 131 -181 218 -240 q 11 -64 43 -122 q 157 33 69 64 q 219 -85 185 -42 q 335 -182 254 -129 q 507 -106 443 -156 q 572 8 571 -57 q 501 73 572 35 q 342 148 429 111 q 176 249 256 185 q 82 386 96 314 q 324 604 163 533 q 235 660 267 638 q 172 717 203 682 q 132 790 142 753 q 244 925 176 869 q 539 1039 371 1025 q 800 819 721 982 q 672 756 783 746 q 608 878 640 835 q 525 951 575 921 z "},"¨":{"ha":454,"x_min":115,"x_max":479,"o":"m 139 990 q 151 1001 139 990 q 196 1013 163 1013 q 253 990 229 1013 q 276 934 276 967 q 253 878 276 901 q 196 854 229 854 q 139 878 163 854 q 115 934 115 901 q 139 990 115 967 m 433 933 q 456 957 433 957 q 479 933 479 957 q 473 917 479 924 q 457 910 467 910 q 440 917 447 910 q 433 933 433 924 z "},"©":{"ha":1097,"x_min":58,"x_max":1094,"o":"m 822 663 q 689 626 775 603 q 674 711 688 681 q 629 771 660 742 l 604 767 q 481 650 529 724 q 430 501 433 576 q 453 372 426 426 q 554 281 479 317 q 758 392 686 322 q 803 329 811 392 q 683 248 764 288 q 536 199 603 208 q 353 304 410 225 q 300 472 296 383 q 343 628 304 560 q 646 849 472 813 q 767 785 722 836 q 822 663 813 733 m 1011 522 q 991 658 1003 603 q 953 771 979 713 q 889 868 928 829 q 631 997 801 956 q 295 830 422 964 q 140 518 168 696 q 247 215 160 326 q 510 53 335 103 q 913 275 779 79 q 1011 522 985 381 m 58 519 q 231 869 97 726 q 638 1058 376 1025 q 947 928 840 1029 q 1072 682 1036 844 q 1094 524 1086 615 q 924 176 1058 321 q 747 53 854 101 q 503 -7 639 6 q 172 174 281 32 q 58 519 63 317 z "},"ª":{"ha":590,"x_min":88,"x_max":658,"o":"m 494 931 l 496 933 q 513 1046 496 1013 q 658 1006 631 1054 l 572 838 q 547 454 553 643 q 464 449 514 440 q 386 485 414 458 l 433 608 l 422 618 q 293 461 375 560 q 145 517 199 464 q 90 651 92 569 q 180 917 88 792 q 390 1042 272 1042 q 494 931 450 1011 m 274 554 l 443 721 l 443 722 l 474 860 q 394 951 439 921 q 267 827 313 910 q 221 665 221 744 q 274 554 221 586 z "},"«":{"ha":779,"x_min":82,"x_max":749,"o":"m 664 321 q 655 235 676 275 q 600 194 633 194 l 372 488 q 386 549 372 521 l 560 676 l 703 792 q 744 742 739 778 q 718 656 749 707 l 469 496 l 551 413 l 664 321 m 367 321 q 358 235 379 275 q 301 194 336 194 l 82 488 q 96 549 82 517 l 240 667 l 386 792 q 428 742 422 778 q 403 656 433 707 l 179 496 l 261 413 l 367 321 z "},"¬":{"ha":1285,"x_min":92,"x_max":1242,"o":"m 678 560 l 1218 583 q 1231 513 1242 568 l 1176 233 q 1130 222 1157 218 q 1078 249 1103 226 l 1131 476 l 107 465 q 97 508 92 481 q 124 567 101 536 l 678 560 z "},"­":{"ha":718,"x_min":72,"x_max":676,"o":"m 658 519 q 671 478 676 510 q 638 414 665 446 l 88 403 q 76 446 72 418 q 103 503 81 474 l 364 497 l 658 519 z "},"®":{"ha":701,"x_min":121,"x_max":715,"o":"m 453 1036 q 656 931 604 1014 q 696 842 683 888 q 715 731 708 797 q 609 524 692 608 q 375 425 526 439 q 185 529 247 447 q 121 728 124 611 q 225 933 143 849 q 453 1036 307 1017 m 379 461 q 668 729 624 486 q 613 910 654 849 q 449 1000 571 971 q 256 904 329 981 q 167 726 183 828 q 229 553 178 617 q 379 461 281 489 m 328 914 q 432 924 376 924 q 525 895 488 924 q 562 828 563 867 q 541 764 561 790 q 475 714 521 738 q 419 708 431 708 q 464 640 438 664 q 540 599 490 617 q 538 569 550 585 q 503 546 526 553 q 390 706 407 601 l 379 706 q 361 551 374 640 q 326 548 347 544 q 296 564 306 551 q 346 786 321 647 l 356 878 l 328 879 q 328 914 311 900 m 460 749 q 501 817 501 781 q 413 885 501 890 l 385 761 l 382 735 q 460 749 419 736 z "},"¯":{"ha":496,"x_min":89,"x_max":582,"o":"m 564 956 q 576 922 582 947 q 542 864 569 896 l 117 853 q 132 940 89 883 l 356 933 l 564 956 z "},"°":{"ha":611,"x_min":143,"x_max":624,"o":"m 411 999 q 281 801 301 929 q 346 653 286 714 q 443 728 410 685 q 489 836 476 772 q 411 999 478 928 m 429 1058 q 554 983 489 1058 q 622 846 619 907 q 524 681 624 765 q 331 597 425 597 q 208 656 271 597 q 144 786 144 715 q 237 967 143 876 q 429 1058 331 1058 z "},"±":{"ha":967,"x_min":79,"x_max":906,"o":"m 575 653 l 889 669 q 899 627 906 660 q 865 564 893 594 l 557 561 l 514 336 q 418 372 474 311 l 464 561 l 156 558 q 172 658 124 594 l 482 651 l 511 874 q 554 877 524 889 q 610 831 585 865 l 575 653 m 826 288 q 838 245 843 278 q 804 181 832 213 l 94 175 q 84 217 79 189 q 111 275 89 246 l 471 268 l 826 288 z "},"²":{"ha":418,"x_min":51,"x_max":449,"o":"m 308 940 q 224 892 264 940 l 244 839 q 206 815 235 818 q 121 917 151 858 q 197 1008 149 972 q 298 1043 244 1043 q 400 974 351 1043 q 449 831 449 906 q 339 664 449 757 l 185 539 l 190 533 l 408 556 q 411 501 419 540 q 381 443 403 463 l 171 464 l 110 449 q 70 492 88 461 q 51 551 53 522 l 263 740 q 369 872 336 806 q 347 925 361 910 q 308 940 333 940 z "},"³":{"ha":432,"x_min":68,"x_max":464,"o":"m 106 917 q 183 1008 135 972 q 290 1043 232 1043 q 405 990 349 1043 q 460 875 461 938 q 383 793 460 829 l 315 760 q 424 706 383 738 q 458 626 464 674 q 349 513 453 563 q 97 449 244 464 q 76 483 83 461 q 72 521 68 506 q 244 572 181 546 q 351 638 307 597 q 308 682 338 664 q 219 721 279 700 l 228 769 l 357 865 q 285 940 343 940 q 203 900 239 940 l 228 851 q 185 825 217 833 q 142 867 165 839 q 106 917 118 894 z "},"´":{"ha":278,"x_min":108,"x_max":406,"o":"m 240 1099 q 347 1093 297 1111 q 406 1042 397 1075 l 169 818 q 108 851 111 818 l 199 982 l 240 1099 z "},"µ":{"ha":771,"x_min":-92,"x_max":767,"o":"m 503 343 l 503 344 q 594 760 547 590 q 707 753 668 764 q 767 710 746 742 l 657 497 q 628 10 635 308 q 533 4 581 -6 q 453 44 485 14 l 518 215 l 501 229 q 299 0 418 122 q 161 36 226 6 q 110 -160 147 -19 q 56 -376 74 -301 q -32 -382 8 -397 q -92 -331 -72 -367 q 131 407 71 133 q 129 758 136 524 q 306 710 239 782 q 194 172 286 540 q 293 115 232 131 q 503 343 421 229 z "},"¶":{"ha":857,"x_min":99,"x_max":928,"o":"m 735 1017 l 761 1147 q 928 1119 867 1171 l 822 854 l 725 367 q 681 6 703 192 q 606 -2 653 -10 q 533 31 560 6 l 643 506 l 718 924 q 618 917 660 926 l 488 367 l 440 6 q 367 -2 413 -10 q 292 31 321 6 q 394 454 353 260 q 174 528 249 471 q 107 689 99 586 q 236 922 121 844 q 735 1017 382 1021 z "},"·":{"ha":378,"x_min":88,"x_max":306,"o":"m 306 433 q 238 371 279 396 q 165 346 197 346 q 113 365 133 346 q 88 415 92 385 q 131 501 94 461 q 207 546 167 542 q 267 510 236 546 q 306 433 299 474 z "},"¸":{"ha":464,"x_min":-93,"x_max":353,"o":"m 149 -108 q 245 -68 193 -68 q 325 -106 297 -68 q 341 -208 353 -143 q 273 -312 329 -272 q 142 -351 217 -351 q 6 -322 68 -350 q -93 -244 -57 -293 q -60 -187 -90 -190 q 108 -268 18 -268 q 213 -201 197 -268 q 200 -142 219 -168 q 114 -181 157 -147 q 43 -137 54 -181 l 124 31 l 221 31 l 149 -108 z "},"¹":{"ha":306,"x_min":100,"x_max":368,"o":"m 319 867 l 260 586 l 249 446 q 119 465 169 435 l 211 869 l 239 933 l 225 940 l 171 868 q 131 867 157 863 q 100 881 106 871 l 178 1029 q 283 1031 219 1040 q 368 996 347 1021 l 319 867 z "},"º":{"ha":603,"x_min":101,"x_max":628,"o":"m 413 1040 q 553 944 482 1040 q 626 768 624 849 q 521 558 628 665 q 310 450 414 450 q 171 526 239 450 q 101 694 103 601 q 199 926 101 811 q 413 1040 296 1040 m 397 971 q 236 711 257 871 q 318 522 240 606 q 497 757 469 597 q 397 971 481 871 z "},"»":{"ha":779,"x_min":71,"x_max":739,"o":"m 154 665 q 165 751 144 711 q 219 792 186 792 l 447 499 q 433 438 447 465 l 260 310 l 117 194 q 76 244 81 208 q 101 329 71 279 l 350 492 l 267 574 l 154 665 m 453 665 q 463 751 442 711 q 518 792 485 792 l 736 499 q 724 438 739 467 l 581 319 l 433 194 q 392 244 397 208 q 418 329 388 279 l 640 492 l 558 574 l 453 665 z "},"¼":{"ha":1015,"x_min":63,"x_max":929,"o":"m 772 575 q 918 531 882 575 l 869 407 l 829 217 l 924 221 q 922 176 929 206 q 901 136 914 147 l 813 139 l 800 -10 q 739 -12 776 -17 q 682 8 701 -7 l 713 142 l 686 143 l 507 138 q 497 144 506 139 q 485 151 489 149 q 473 159 481 154 q 461 169 465 164 q 451 190 451 183 l 729 571 q 772 575 754 575 m 638 210 l 729 214 l 751 308 l 807 507 l 796 510 l 583 210 l 638 210 m 447 532 l 749 1165 q 869 1129 842 1179 l 171 -115 q 63 -76 86 -125 l 447 532 m 269 940 l 215 868 q 176 867 201 863 q 144 881 150 871 l 222 1029 q 328 1031 264 1040 q 413 996 392 1021 l 364 867 l 304 586 l 293 446 q 164 465 214 435 l 256 869 l 283 933 l 269 940 z "},"½":{"ha":1006,"x_min":63,"x_max":936,"o":"m 447 532 l 749 1165 q 869 1129 842 1179 l 171 -115 q 63 -76 86 -125 l 447 532 m 365 867 l 306 586 l 294 446 q 165 465 215 435 l 257 869 l 285 933 l 271 940 l 217 868 q 177 867 203 863 q 146 881 151 871 l 224 1029 q 329 1031 265 1040 q 414 996 393 1021 l 365 867 m 858 392 q 797 458 842 458 q 711 410 751 458 l 732 358 q 693 335 722 338 q 610 435 643 375 q 685 526 638 490 q 785 561 732 561 q 888 493 839 561 q 936 351 936 425 q 826 182 936 276 l 672 57 l 678 53 l 896 74 q 899 20 907 58 q 868 -37 890 -18 l 658 -18 l 597 -32 q 558 11 575 -19 q 540 71 540 42 l 750 258 q 858 392 821 322 z "},"¾":{"ha":1013,"x_min":81,"x_max":1003,"o":"m 847 575 q 992 531 957 575 l 942 407 l 901 217 l 997 221 q 995 176 1003 206 q 975 136 988 147 l 885 139 l 874 -10 q 813 -12 850 -17 q 756 8 775 -7 l 786 142 l 761 143 l 581 138 q 566 147 579 138 q 547 160 553 156 q 525 190 525 174 l 804 571 q 847 575 826 575 m 713 210 l 801 214 l 824 308 l 881 507 l 871 510 l 657 210 l 713 210 m 521 532 l 822 1165 q 943 1129 915 1179 l 244 -115 q 136 -76 160 -125 l 521 532 m 297 940 q 215 900 251 940 l 240 851 q 197 825 229 833 q 154 867 178 839 q 118 917 131 894 q 196 1008 147 972 q 303 1043 244 1043 q 417 990 361 1043 q 472 875 474 938 q 396 793 472 829 l 328 760 q 436 706 396 738 q 471 626 476 674 q 361 513 465 563 q 110 449 257 464 q 88 483 96 461 q 85 521 81 506 q 256 572 193 546 q 364 638 319 597 q 321 682 350 664 q 232 721 292 700 l 240 769 l 369 865 q 297 940 356 940 z "},"¿":{"ha":913,"x_min":-107,"x_max":665,"o":"m 443 717 q 515 780 472 754 q 591 806 558 806 q 644 786 624 806 q 665 735 664 767 q 616 648 656 689 q 535 601 576 607 q 476 639 506 601 q 443 717 447 676 m 536 -4 q 593 -76 567 -4 q 603 -222 619 -147 q 117 -404 346 -404 q -53 -314 0 -404 q -65 -97 -107 -224 q 109 112 -22 31 q 454 244 240 193 l 506 539 q 574 515 571 560 l 588 239 q 549 177 575 207 q 493 131 522 147 q 195 26 318 99 q 39 -143 72 -47 q 74 -290 13 -232 q 500 -139 292 -282 l 486 -19 q 536 -4 519 -4 z "},"À":{"ha":856,"x_min":-8,"x_max":853,"o":"m 688 483 l 833 511 q 851 467 853 497 q 825 403 849 438 l 696 396 l 726 8 q 628 3 679 -6 q 549 40 578 13 l 561 388 l 376 376 l 311 368 l 156 8 q 56 3 104 -6 q -8 42 8 13 l 153 347 l 50 333 q 58 442 11 383 l 207 447 l 303 629 l 442 985 q 622 1021 529 1031 q 689 1006 660 1017 l 665 768 l 688 483 m 347 451 l 563 460 l 564 460 l 549 886 l 535 883 l 347 451 m 603 1101 l 526 1211 l 407 1328 q 468 1388 422 1372 q 561 1389 514 1403 l 671 1125 q 603 1101 654 1090 z "},"Á":{"ha":856,"x_min":-8,"x_max":890,"o":"m 688 483 l 833 511 q 851 467 853 497 q 825 403 849 438 l 696 396 l 726 8 q 628 3 679 -6 q 549 40 578 13 l 561 388 l 376 376 l 311 368 l 156 8 q 56 3 104 -6 q -8 42 8 13 l 153 347 l 50 333 q 58 442 11 383 l 207 447 l 303 629 l 442 985 q 622 1021 529 1031 q 689 1006 660 1017 l 665 768 l 688 483 m 347 451 l 563 460 l 564 460 l 549 886 l 535 883 l 347 451 m 890 1318 l 654 1094 q 593 1128 596 1094 l 683 1258 l 725 1375 q 832 1369 782 1388 q 890 1318 882 1351 z "},"Â":{"ha":856,"x_min":-8,"x_max":860,"o":"m 688 483 l 833 511 q 851 467 853 497 q 825 403 849 438 l 696 396 l 726 8 q 628 3 679 -6 q 549 40 578 13 l 561 388 l 376 376 l 311 368 l 156 8 q 56 3 104 -6 q -8 42 8 13 l 153 347 l 50 333 q 58 442 11 383 l 207 447 l 303 629 l 442 985 q 622 1021 529 1031 q 689 1006 660 1017 l 665 768 l 688 483 m 347 451 l 563 460 l 564 460 l 549 886 l 535 883 l 347 451 m 649 1268 l 461 1104 q 401 1146 406 1107 l 619 1347 q 756 1331 704 1365 l 860 1126 q 811 1101 839 1107 q 722 1113 761 1092 l 649 1268 z "},"Ã":{"ha":856,"x_min":-8,"x_max":904,"o":"m 742 1185 l 828 1289 q 882 1281 860 1296 q 899 1242 904 1267 q 725 1099 846 1156 q 531 1210 583 1136 l 522 1207 l 444 1103 q 391 1115 414 1100 q 369 1153 368 1131 q 414 1208 394 1186 q 470 1257 433 1231 q 551 1300 507 1283 q 736 1186 685 1254 l 742 1185 m 688 483 l 833 511 q 851 467 853 497 q 825 403 849 438 l 696 396 l 726 8 q 628 3 679 -6 q 549 40 578 13 l 561 388 l 376 376 l 311 368 l 156 8 q 56 3 104 -6 q -8 42 8 13 l 153 347 l 50 333 q 58 442 11 383 l 207 447 l 303 629 l 442 985 q 622 1021 529 1031 q 689 1006 660 1017 l 665 768 l 688 483 m 347 451 l 563 460 l 564 460 l 549 886 l 535 883 l 347 451 z "},"Ä":{"ha":856,"x_min":-8,"x_max":853,"o":"m 688 483 l 833 511 q 851 467 853 497 q 825 403 849 438 l 696 396 l 726 8 q 628 3 679 -6 q 549 40 578 13 l 561 388 l 376 376 l 311 368 l 156 8 q 56 3 104 -6 q -8 42 8 13 l 153 347 l 50 333 q 58 442 11 383 l 207 447 l 303 629 l 442 985 q 622 1021 529 1031 q 689 1006 660 1017 l 665 768 l 688 483 m 347 451 l 563 460 l 564 460 l 549 886 l 535 883 l 347 451 m 539 1154 q 527 1142 539 1154 q 482 1131 515 1131 q 425 1154 449 1131 q 401 1210 401 1178 q 425 1266 401 1243 q 482 1289 449 1289 q 539 1266 515 1289 q 563 1210 563 1243 q 539 1154 563 1178 m 759 1193 q 756 1190 759 1193 q 743 1186 753 1186 q 726 1193 733 1186 q 719 1210 719 1200 q 742 1233 719 1233 q 765 1210 765 1233 q 759 1193 765 1200 z "},"Å":{"ha":856,"x_min":-8,"x_max":856,"o":"m 688 483 l 833 511 q 851 467 853 497 q 825 403 849 438 l 696 396 l 726 8 q 628 3 679 -6 q 549 40 578 13 l 561 388 l 376 376 l 311 368 l 156 8 q 56 3 104 -6 q -8 42 8 13 l 153 347 l 50 333 q 58 442 11 383 l 207 447 l 303 629 l 442 985 q 622 1021 529 1031 q 689 1006 660 1017 l 665 768 l 688 483 m 347 451 l 563 460 l 564 460 l 549 886 l 535 883 l 347 451 m 833 1244 q 821 1213 833 1244 q 751 1137 810 1181 q 626 1093 693 1093 q 525 1135 558 1093 q 513 1240 492 1176 q 592 1347 535 1304 q 718 1390 650 1390 q 821 1349 786 1390 q 833 1244 856 1308 m 649 1140 q 688 1154 665 1140 q 725 1242 711 1186 q 693 1342 751 1342 q 657 1329 685 1342 q 618 1242 631 1290 q 649 1140 586 1140 z "},"Æ":{"ha":1115,"x_min":-26,"x_max":1132,"o":"m 539 886 l 364 503 l 546 510 l 553 890 l 539 886 m 892 1022 q 1099 1017 990 1022 q 1115 931 1132 986 q 1044 839 1097 875 l 960 913 q 728 910 875 926 l 688 797 l 674 525 q 981 557 843 538 q 997 501 1000 539 q 969 431 993 463 q 660 428 815 444 l 618 197 l 618 107 q 988 176 783 114 q 1026 114 1025 161 q 1008 40 1026 67 q 614 0 801 0 q 526 17 556 0 q 464 74 497 33 l 542 429 l 326 418 l 138 8 q 37 3 85 -6 q -26 42 -11 13 l 181 410 l 63 401 q 75 508 24 451 l 235 508 l 301 624 l 446 979 q 892 1022 606 1022 z "},"Ç":{"ha":847,"x_min":63,"x_max":829,"o":"m 565 935 q 315 741 417 882 q 213 458 213 600 q 267 238 213 317 q 443 111 322 160 q 703 281 604 176 q 760 265 740 288 q 776 210 779 242 q 660 110 736 161 q 499 21 585 58 l 432 -108 q 528 -68 476 -68 q 608 -106 581 -68 q 624 -208 636 -143 q 556 -312 613 -272 q 426 -351 500 -351 q 289 -322 351 -350 q 190 -244 226 -293 q 224 -187 193 -190 q 391 -268 301 -268 q 496 -201 481 -268 q 483 -142 503 -168 q 397 -181 440 -147 q 326 -137 338 -181 l 399 13 q 63 446 63 114 q 163 764 63 588 q 625 1040 374 1000 q 768 930 717 1006 q 829 768 819 854 q 749 722 796 733 q 657 729 703 711 q 588 938 644 872 l 565 935 z "},"È":{"ha":757,"x_min":65,"x_max":819,"o":"m 476 1389 l 586 1125 q 518 1101 569 1090 l 442 1211 l 322 1328 q 383 1388 338 1372 q 476 1389 429 1403 m 328 549 q 632 579 335 550 q 647 519 650 557 q 621 447 643 482 q 314 460 431 463 l 228 110 q 628 179 431 136 q 661 144 653 171 q 635 39 675 96 l 197 0 q 65 111 69 32 q 232 683 182 421 l 249 900 q 176 918 224 914 q 181 999 153 972 q 789 1015 457 1024 q 803 923 819 979 q 736 833 786 867 l 639 906 q 408 908 506 921 l 367 767 l 328 549 z "},"É":{"ha":757,"x_min":65,"x_max":819,"o":"m 328 549 q 632 579 335 550 q 647 519 650 557 q 621 447 643 482 q 314 460 431 463 l 228 110 q 628 179 431 136 q 661 144 653 171 q 635 39 675 96 l 197 0 q 65 111 69 32 q 232 683 182 421 l 249 900 q 176 918 224 914 q 181 999 153 972 q 789 1015 457 1024 q 803 923 819 979 q 736 833 786 867 l 639 906 q 408 908 506 921 l 367 767 l 328 549 m 639 1375 q 746 1369 696 1388 q 804 1318 796 1351 l 568 1094 q 507 1128 510 1094 l 597 1258 l 639 1375 z "},"Ê":{"ha":757,"x_min":65,"x_max":819,"o":"m 328 549 q 632 579 335 550 q 647 519 650 557 q 621 447 643 482 q 314 460 431 463 l 228 110 q 628 179 431 136 q 661 144 653 171 q 635 39 675 96 l 197 0 q 65 111 69 32 q 232 683 182 421 l 249 900 q 176 918 224 914 q 181 999 153 972 q 789 1015 457 1024 q 803 923 819 979 q 736 833 786 867 l 639 906 q 408 908 506 921 l 367 767 l 328 549 m 315 1146 l 533 1347 q 669 1331 618 1365 l 774 1126 q 725 1101 753 1107 q 636 1113 675 1092 l 563 1268 l 375 1104 q 315 1146 319 1107 z "},"Ë":{"ha":757,"x_min":65,"x_max":819,"o":"m 339 1266 q 351 1277 339 1266 q 396 1289 363 1289 q 453 1266 429 1289 q 476 1210 476 1243 q 453 1154 476 1178 q 396 1131 429 1131 q 339 1154 363 1131 q 315 1210 315 1178 q 339 1266 315 1243 m 633 1210 q 656 1233 633 1233 q 679 1210 679 1233 q 673 1193 679 1200 q 657 1186 667 1186 q 640 1193 647 1186 q 633 1210 633 1200 m 328 549 q 632 579 335 550 q 647 519 650 557 q 621 447 643 482 q 314 460 431 463 l 228 110 q 628 179 431 136 q 661 144 653 171 q 635 39 675 96 l 197 0 q 65 111 69 32 q 232 683 182 421 l 249 900 q 176 918 224 914 q 181 999 153 972 q 789 1015 457 1024 q 803 923 819 979 q 736 833 786 867 l 639 906 q 408 908 506 921 l 367 767 l 328 549 z "},"Ì":{"ha":351,"x_min":28,"x_max":381,"o":"m 242 1389 l 351 1125 q 283 1101 335 1090 l 207 1211 l 88 1328 q 149 1388 103 1372 q 242 1389 194 1403 m 189 986 q 301 1026 257 1026 q 381 1011 346 1026 l 271 574 q 242 307 264 499 q 208 10 219 115 q 105 4 163 -7 q 28 50 47 15 q 172 704 126 417 l 189 986 z "},"Í":{"ha":351,"x_min":28,"x_max":571,"o":"m 406 1375 q 513 1369 463 1388 q 571 1318 563 1351 l 335 1094 q 274 1128 276 1094 l 364 1258 l 406 1375 m 189 986 q 301 1026 257 1026 q 381 1011 346 1026 l 271 574 q 242 307 264 499 q 208 10 219 115 q 105 4 163 -7 q 28 50 47 15 q 172 704 126 417 l 189 986 z "},"Î":{"ha":351,"x_min":28,"x_max":540,"o":"m 82 1146 l 300 1347 q 436 1331 385 1365 l 540 1126 q 492 1101 519 1107 q 403 1113 442 1092 l 329 1268 l 142 1104 q 82 1146 86 1107 m 189 986 q 301 1026 257 1026 q 381 1011 346 1026 l 271 574 q 242 307 264 499 q 208 10 219 115 q 105 4 163 -7 q 28 50 47 15 q 172 704 126 417 l 189 986 z "},"Ï":{"ha":351,"x_min":28,"x_max":446,"o":"m 189 986 q 301 1026 257 1026 q 381 1011 346 1026 l 271 574 q 242 307 264 499 q 208 10 219 115 q 105 4 163 -7 q 28 50 47 15 q 172 704 126 417 l 189 986 m 106 1266 q 117 1277 106 1266 q 163 1289 129 1289 q 219 1266 196 1289 q 243 1210 243 1243 q 219 1154 243 1178 q 163 1131 196 1131 q 106 1154 129 1131 q 82 1210 82 1178 q 106 1266 82 1243 m 400 1210 q 423 1233 400 1233 q 446 1210 446 1233 q 440 1193 446 1200 q 424 1186 433 1186 q 407 1193 414 1186 q 400 1210 400 1200 z "},"Ð":{"ha":919,"x_min":28,"x_max":906,"o":"m 449 1026 q 781 901 663 1026 q 903 575 900 775 q 826 283 906 415 q 596 61 747 150 q 213 0 408 0 q 76 107 100 29 q 189 479 154 340 l 65 464 q 31 521 33 489 q 51 569 28 553 l 207 556 q 232 679 222 624 l 235 900 l 182 889 q 145 943 150 913 q 158 993 140 974 q 449 1026 283 1026 m 308 483 l 258 107 q 522 139 413 110 q 744 558 749 304 q 657 822 742 722 q 411 913 572 921 q 328 564 344 628 l 547 592 q 582 550 575 579 q 564 493 589 521 l 311 493 l 308 483 z "},"Ñ":{"ha":926,"x_min":10,"x_max":974,"o":"m 782 986 q 895 1026 850 1026 q 974 1011 940 1026 l 861 575 q 830 319 854 511 q 793 10 806 126 q 696 3 746 -4 q 614 39 646 11 q 318 839 447 376 l 256 574 q 224 301 249 493 q 190 10 200 108 q 86 4 143 -7 q 10 50 29 15 q 160 703 107 399 l 178 986 q 308 1026 250 1026 q 372 1010 339 1026 q 583 340 468 651 l 661 199 q 764 701 740 549 l 782 986 m 501 1207 l 424 1103 q 370 1115 393 1100 q 349 1153 347 1131 q 393 1208 374 1186 q 449 1257 413 1231 q 531 1300 486 1283 q 715 1186 664 1254 l 721 1185 l 807 1289 q 861 1281 839 1296 q 878 1242 883 1267 q 704 1099 825 1156 q 510 1210 563 1136 l 501 1207 z "},"Ò":{"ha":882,"x_min":11,"x_max":863,"o":"m 536 1392 l 646 1128 q 578 1104 629 1093 l 501 1214 l 382 1331 q 443 1390 397 1375 q 536 1392 489 1406 m 221 443 q 267 238 221 336 q 399 89 314 140 q 601 265 525 164 q 721 504 676 367 q 667 757 704 650 q 554 943 629 864 q 313 730 404 867 q 221 443 221 593 m 564 1031 q 698 956 629 1031 q 813 760 767 881 q 861 532 860 640 q 785 299 863 424 q 598 87 708 174 q 404 0 488 0 q 242 69 321 0 q 117 236 164 138 q 142 711 11 458 q 330 942 214 854 q 564 1031 446 1031 z "},"Ó":{"ha":882,"x_min":11,"x_max":864,"o":"m 221 443 q 267 238 221 336 q 399 89 314 140 q 601 265 525 164 q 721 504 676 367 q 667 757 704 650 q 554 943 629 864 q 313 730 404 867 q 221 443 221 593 m 564 1031 q 698 956 629 1031 q 813 760 767 881 q 861 532 860 640 q 785 299 863 424 q 598 87 708 174 q 404 0 488 0 q 242 69 321 0 q 117 236 164 138 q 142 711 11 458 q 330 942 214 854 q 564 1031 446 1031 m 699 1378 q 806 1372 756 1390 q 864 1321 856 1354 l 628 1097 q 567 1131 569 1097 l 657 1261 l 699 1378 z "},"Ô":{"ha":882,"x_min":11,"x_max":863,"o":"m 221 443 q 267 238 221 336 q 399 89 314 140 q 601 265 525 164 q 721 504 676 367 q 667 757 704 650 q 554 943 629 864 q 313 730 404 867 q 221 443 221 593 m 564 1031 q 698 956 629 1031 q 813 760 767 881 q 861 532 860 640 q 785 299 863 424 q 598 87 708 174 q 404 0 488 0 q 242 69 321 0 q 117 236 164 138 q 142 711 11 458 q 330 942 214 854 q 564 1031 446 1031 m 375 1149 l 593 1350 q 729 1333 678 1368 l 833 1129 q 783 1104 813 1110 q 696 1115 735 1094 l 622 1271 l 435 1107 q 375 1149 379 1110 z "},"Õ":{"ha":882,"x_min":11,"x_max":879,"o":"m 526 1303 q 711 1189 660 1257 l 717 1188 l 803 1292 q 857 1284 835 1299 q 874 1244 879 1269 q 700 1101 821 1158 q 506 1213 558 1139 l 497 1210 l 419 1106 q 366 1118 389 1103 q 344 1156 343 1133 q 389 1211 369 1189 q 445 1260 408 1233 q 526 1303 482 1286 m 221 443 q 267 238 221 336 q 399 89 314 140 q 601 265 525 164 q 721 504 676 367 q 667 757 704 650 q 554 943 629 864 q 313 730 404 867 q 221 443 221 593 m 564 1031 q 698 956 629 1031 q 813 760 767 881 q 861 532 860 640 q 785 299 863 424 q 598 87 708 174 q 404 0 488 0 q 242 69 321 0 q 117 236 164 138 q 142 711 11 458 q 330 942 214 854 q 564 1031 446 1031 z "},"Ö":{"ha":882,"x_min":11,"x_max":863,"o":"m 399 1269 q 410 1280 399 1269 q 456 1292 422 1292 q 513 1269 489 1292 q 536 1213 536 1246 q 513 1157 536 1181 q 456 1133 489 1133 q 399 1157 422 1133 q 375 1213 375 1181 q 399 1269 375 1246 m 693 1213 q 716 1236 693 1236 q 739 1213 739 1236 q 733 1196 739 1203 q 717 1189 726 1189 q 700 1196 707 1189 q 693 1213 693 1203 m 564 1031 q 698 956 629 1031 q 813 760 767 881 q 861 532 860 640 q 785 299 863 424 q 598 87 708 174 q 404 0 488 0 q 242 69 321 0 q 117 236 164 138 q 142 711 11 458 q 330 942 214 854 q 564 1031 446 1031 m 221 443 q 267 238 221 336 q 399 89 314 140 q 601 265 525 164 q 721 504 676 367 q 667 757 704 650 q 554 943 629 864 q 313 730 404 867 q 221 443 221 593 z "},"×":{"ha":893,"x_min":99,"x_max":829,"o":"m 465 503 l 750 828 q 809 810 789 826 q 825 757 829 794 l 504 458 l 742 215 q 705 160 729 176 q 651 154 681 143 l 450 407 l 172 149 q 101 224 99 164 l 410 458 l 175 753 q 199 808 175 789 q 257 825 222 826 l 465 503 z "},"Ø":{"ha":1001,"x_min":6,"x_max":1057,"o":"m 443 0 q 214 146 321 0 l 122 0 q 35 39 64 14 q 6 111 7 64 l 157 240 q 111 421 111 342 q 183 712 110 569 q 372 942 256 854 q 607 1031 489 1031 q 717 979 660 1031 q 818 843 774 928 l 928 1024 q 1057 919 1050 1006 l 860 749 q 903 530 901 636 q 827 299 904 424 q 640 87 750 174 q 443 0 529 0 m 261 443 q 274 340 261 390 l 719 721 q 596 943 681 853 q 354 729 447 865 q 261 443 261 593 m 740 644 l 299 260 q 442 89 350 143 q 642 265 567 164 q 763 504 718 367 q 740 644 753 585 z "},"Ù":{"ha":840,"x_min":68,"x_max":885,"o":"m 475 1389 l 585 1125 q 517 1101 568 1090 l 440 1211 l 321 1328 q 382 1388 336 1372 q 475 1389 428 1403 m 378 0 q 165 78 246 0 q 68 249 83 156 q 175 990 154 742 q 293 1029 247 1029 q 368 1014 339 1029 q 224 297 228 553 q 300 134 218 194 q 510 121 382 74 q 631 340 590 210 q 706 686 671 469 l 693 990 q 809 1029 763 1029 q 885 1014 856 1029 q 842 774 869 940 q 791 495 814 608 q 739 297 768 382 q 663 139 710 211 q 378 0 571 0 z "},"Ú":{"ha":840,"x_min":68,"x_max":885,"o":"m 378 0 q 165 78 246 0 q 68 249 83 156 q 175 990 154 742 q 293 1029 247 1029 q 368 1014 339 1029 q 224 297 228 553 q 300 134 218 194 q 510 121 382 74 q 631 340 590 210 q 706 686 671 469 l 693 990 q 809 1029 763 1029 q 885 1014 856 1029 q 842 774 869 940 q 791 495 814 608 q 739 297 768 382 q 663 139 710 211 q 378 0 571 0 m 638 1375 q 744 1369 694 1388 q 803 1318 794 1351 l 567 1094 q 506 1128 508 1094 l 596 1258 l 638 1375 z "},"Û":{"ha":840,"x_min":68,"x_max":885,"o":"m 378 0 q 165 78 246 0 q 68 249 83 156 q 175 990 154 742 q 293 1029 247 1029 q 368 1014 339 1029 q 224 297 228 553 q 300 134 218 194 q 510 121 382 74 q 631 340 590 210 q 706 686 671 469 l 693 990 q 809 1029 763 1029 q 885 1014 856 1029 q 842 774 869 940 q 791 495 814 608 q 739 297 768 382 q 663 139 710 211 q 378 0 571 0 m 315 1146 l 533 1347 q 669 1331 618 1365 l 774 1126 q 725 1101 753 1107 q 636 1113 675 1092 l 563 1268 l 375 1104 q 315 1146 319 1107 z "},"Ü":{"ha":840,"x_min":68,"x_max":885,"o":"m 339 1266 q 351 1277 339 1266 q 396 1289 363 1289 q 453 1266 429 1289 q 476 1210 476 1243 q 453 1154 476 1178 q 396 1131 429 1131 q 339 1154 363 1131 q 315 1210 315 1178 q 339 1266 315 1243 m 633 1210 q 656 1233 633 1233 q 679 1210 679 1233 q 673 1193 679 1200 q 657 1186 667 1186 q 640 1193 647 1186 q 633 1210 633 1200 m 693 990 q 809 1029 763 1029 q 885 1014 856 1029 q 842 774 869 940 q 791 495 814 608 q 739 297 768 382 q 663 139 710 211 q 378 0 571 0 q 165 78 246 0 q 68 249 83 156 q 175 990 154 742 q 293 1029 247 1029 q 368 1014 339 1029 q 224 297 228 553 q 300 134 218 194 q 510 121 382 74 q 631 340 590 210 q 706 686 671 469 l 693 990 z "},"Ý":{"ha":831,"x_min":151,"x_max":888,"o":"m 650 1375 q 757 1369 707 1388 q 815 1318 807 1351 l 579 1094 q 518 1128 521 1094 l 608 1258 l 650 1375 m 151 969 q 232 1024 183 1010 q 319 1018 281 1039 l 358 767 l 472 468 l 478 468 l 511 531 l 724 810 l 671 1000 q 888 992 808 1061 q 822 799 886 881 q 544 458 757 718 q 489 10 508 322 q 400 -1 458 -10 q 308 38 342 8 q 396 419 360 181 q 151 969 324 608 z "},"Þ":{"ha":793,"x_min":75,"x_max":806,"o":"m 432 1126 l 353 811 q 539 854 449 851 q 731 755 658 826 q 804 594 803 683 q 759 441 806 504 q 604 306 713 378 q 290 307 425 269 q 257 14 263 58 q 160 3 222 -7 q 75 44 97 14 q 151 338 121 190 q 203 592 182 486 q 236 750 225 697 l 244 1097 q 432 1126 357 1164 m 551 393 q 634 487 607 444 q 659 588 661 529 q 617 695 657 647 q 510 763 578 743 q 339 724 436 768 q 297 374 311 501 q 551 393 425 351 z "},"ß":{"ha":846,"x_min":19,"x_max":796,"o":"m 453 104 q 602 192 546 122 q 658 336 658 261 q 622 463 658 411 q 515 533 586 514 l 406 493 q 362 608 353 557 q 421 692 371 660 l 506 667 q 632 858 632 725 q 565 988 632 938 q 378 1026 499 1039 l 301 892 q 185 7 231 314 q 85 3 133 -7 q 19 43 38 14 q 178 883 157 558 q 251 1035 206 978 q 375 1126 296 1092 q 654 1060 549 1139 q 760 871 760 982 q 565 614 757 688 l 564 604 q 738 499 681 572 q 796 338 796 426 q 697 121 794 217 q 433 0 600 25 q 250 71 306 6 q 297 163 258 124 q 390 204 336 201 l 453 104 z "},"à":{"ha":778,"x_min":42,"x_max":778,"o":"m 488 226 l 297 18 q 108 88 172 22 q 43 265 44 154 q 96 490 42 375 q 246 680 150 604 q 447 757 342 756 q 582 614 525 717 l 583 617 q 607 760 585 714 q 719 755 679 767 q 778 710 758 743 l 667 497 q 631 10 646 329 q 531 4 586 -7 q 442 49 475 15 l 504 211 l 488 226 m 199 268 q 271 125 199 168 q 515 350 482 318 l 556 526 q 438 663 514 611 q 262 507 325 614 q 199 268 199 400 m 518 825 l 442 935 l 322 1051 q 383 1111 338 1096 q 476 1113 429 1126 l 586 849 q 518 825 569 814 z "},"á":{"ha":778,"x_min":42,"x_max":804,"o":"m 488 226 l 297 18 q 108 88 172 22 q 43 265 44 154 q 96 490 42 375 q 246 680 150 604 q 447 757 342 756 q 582 614 525 717 l 583 617 q 607 760 585 714 q 719 755 679 767 q 778 710 758 743 l 667 497 q 631 10 646 329 q 531 4 586 -7 q 442 49 475 15 l 504 211 l 488 226 m 199 268 q 271 125 199 168 q 515 350 482 318 l 556 526 q 438 663 514 611 q 262 507 325 614 q 199 268 199 400 m 804 1042 l 568 818 q 507 851 510 818 l 597 982 l 639 1099 q 746 1093 696 1111 q 804 1042 796 1075 z "},"â":{"ha":778,"x_min":42,"x_max":778,"o":"m 488 226 l 297 18 q 108 88 172 22 q 43 265 44 154 q 96 490 42 375 q 246 680 150 604 q 447 757 342 756 q 582 614 525 717 l 583 617 q 607 760 585 714 q 719 755 679 767 q 778 710 758 743 l 667 497 q 631 10 646 329 q 531 4 586 -7 q 442 49 475 15 l 504 211 l 488 226 m 199 268 q 271 125 199 168 q 515 350 482 318 l 556 526 q 438 663 514 611 q 262 507 325 614 q 199 268 199 400 m 563 992 l 375 828 q 315 869 319 831 l 533 1071 q 669 1054 618 1089 l 774 850 q 725 825 753 831 q 636 836 675 815 l 563 992 z "},"ã":{"ha":778,"x_min":42,"x_max":819,"o":"m 657 908 l 743 1013 q 797 1005 775 1019 q 814 965 819 990 q 640 822 761 879 q 446 933 499 860 l 438 931 l 360 826 q 306 839 329 824 q 285 876 283 854 q 329 932 310 910 q 385 981 349 954 q 467 1024 422 1007 q 651 910 600 978 l 657 908 m 488 226 l 297 18 q 108 88 172 22 q 43 265 44 154 q 96 490 42 375 q 246 680 150 604 q 447 757 342 756 q 582 614 525 717 l 583 617 q 607 760 585 714 q 719 755 679 767 q 778 710 758 743 l 667 497 q 631 10 646 329 q 531 4 586 -7 q 442 49 475 15 l 504 211 l 488 226 m 199 268 q 271 125 199 168 q 515 350 482 318 l 556 526 q 438 663 514 611 q 262 507 325 614 q 199 268 199 400 z "},"ä":{"ha":778,"x_min":42,"x_max":778,"o":"m 488 226 l 297 18 q 108 88 172 22 q 43 265 44 154 q 96 490 42 375 q 246 680 150 604 q 447 757 342 756 q 582 614 525 717 l 583 617 q 607 760 585 714 q 719 755 679 767 q 778 710 758 743 l 667 497 q 631 10 646 329 q 531 4 586 -7 q 442 49 475 15 l 504 211 l 488 226 m 199 268 q 271 125 199 168 q 515 350 482 318 l 556 526 q 438 663 514 611 q 262 507 325 614 q 199 268 199 400 m 453 878 q 441 866 453 878 q 396 854 429 854 q 339 878 363 854 q 315 934 315 901 q 339 990 315 967 q 396 1013 363 1013 q 453 990 429 1013 q 476 934 476 967 q 453 878 476 901 m 673 917 q 670 913 673 917 q 657 910 667 910 q 640 917 647 910 q 633 933 633 924 q 656 957 633 957 q 679 933 679 957 q 673 917 679 924 z "},"å":{"ha":778,"x_min":42,"x_max":778,"o":"m 488 226 l 297 18 q 108 88 172 22 q 43 265 44 154 q 96 490 42 375 q 246 680 150 604 q 447 757 342 756 q 582 614 525 717 l 583 617 q 607 760 585 714 q 719 755 679 767 q 778 710 758 743 l 667 497 q 631 10 646 329 q 531 4 586 -7 q 442 49 475 15 l 504 211 l 488 226 m 199 268 q 271 125 199 168 q 515 350 482 318 l 556 526 q 438 663 514 611 q 262 507 325 614 q 199 268 199 400 m 748 968 q 736 936 748 968 q 667 860 725 904 q 541 817 608 817 q 440 858 474 817 q 428 964 407 900 q 508 1071 450 1028 q 633 1114 565 1114 q 736 1073 701 1114 q 748 968 771 1032 m 564 864 q 603 878 581 864 q 640 965 626 910 q 608 1065 667 1065 q 572 1053 600 1065 q 533 965 546 1014 q 564 864 501 864 z "},"æ":{"ha":1189,"x_min":44,"x_max":1131,"o":"m 201 268 q 274 125 201 168 q 514 346 372 217 q 557 528 519 425 q 440 663 517 611 q 265 507 328 614 q 201 268 201 400 m 886 675 l 864 669 q 717 535 776 619 q 657 365 658 450 q 974 479 835 413 q 959 597 978 551 q 886 675 940 643 m 808 100 q 1054 225 979 154 q 1099 208 1088 225 q 1106 153 1111 192 q 965 59 1064 107 q 792 0 867 11 q 594 156 649 47 l 572 4 q 439 47 483 -17 l 499 211 l 485 225 q 300 18 306 25 q 112 88 176 22 q 46 265 47 154 q 99 490 44 375 q 249 680 153 604 q 450 757 344 756 q 582 617 519 721 q 606 760 583 713 q 729 733 703 778 l 683 625 q 913 768 778 740 q 1083 653 1035 740 q 1111 444 1131 565 q 660 290 885 335 q 808 100 678 153 z "},"ç":{"ha":715,"x_min":47,"x_max":665,"o":"m 354 -108 q 451 -68 399 -68 q 531 -106 503 -68 q 547 -208 558 -143 q 478 -312 535 -272 q 348 -351 422 -351 q 211 -322 274 -350 q 113 -244 149 -293 q 146 -187 115 -190 q 313 -268 224 -268 q 418 -201 403 -268 q 406 -142 425 -168 q 319 -181 363 -147 q 249 -137 260 -181 l 315 3 q 111 127 175 36 q 53 338 47 218 q 101 504 54 418 q 458 760 256 717 q 600 685 547 744 q 665 543 653 626 q 595 499 639 510 q 507 501 551 488 q 490 598 506 563 q 438 669 474 633 l 408 664 q 265 527 321 613 q 206 355 210 442 q 233 204 201 268 q 350 99 264 140 q 590 225 504 146 q 642 154 653 228 q 424 25 568 79 l 354 -108 z "},"è":{"ha":715,"x_min":42,"x_max":663,"o":"m 433 768 q 613 653 563 740 q 643 444 663 565 q 197 289 406 332 q 343 100 214 156 q 582 218 496 143 q 627 201 615 218 q 633 146 639 185 q 501 58 597 103 q 329 0 404 14 q 113 121 185 29 q 44 340 42 213 q 93 510 49 417 q 433 768 242 703 m 193 372 l 193 364 q 511 479 344 403 q 494 601 515 556 q 417 675 474 646 l 396 669 q 253 535 311 622 q 193 372 196 447 m 431 825 l 354 935 l 235 1051 q 296 1111 250 1096 q 389 1113 342 1126 l 499 849 q 431 825 482 814 z "},"é":{"ha":715,"x_min":42,"x_max":717,"o":"m 433 768 q 613 653 563 740 q 643 444 663 565 q 197 289 406 332 q 343 100 214 156 q 582 218 496 143 q 627 201 615 218 q 633 146 639 185 q 501 58 597 103 q 329 0 404 14 q 113 121 185 29 q 44 340 42 213 q 93 510 49 417 q 433 768 242 703 m 193 372 l 193 364 q 511 479 344 403 q 494 601 515 556 q 417 675 474 646 l 396 669 q 253 535 311 622 q 193 372 196 447 m 717 1042 l 481 818 q 419 851 422 818 l 510 982 l 551 1099 q 658 1093 608 1111 q 717 1042 708 1075 z "},"ê":{"ha":715,"x_min":42,"x_max":686,"o":"m 433 768 q 613 653 563 740 q 643 444 663 565 q 197 289 406 332 q 343 100 214 156 q 582 218 496 143 q 627 201 615 218 q 633 146 639 185 q 501 58 597 103 q 329 0 404 14 q 113 121 185 29 q 44 340 42 213 q 93 510 49 417 q 433 768 242 703 m 193 372 l 193 364 q 511 479 344 403 q 494 601 515 556 q 417 675 474 646 l 396 669 q 253 535 311 622 q 193 372 196 447 m 475 992 l 288 828 q 228 869 232 831 l 446 1071 q 582 1054 531 1089 l 686 850 q 636 825 665 831 q 549 836 588 815 l 475 992 z "},"ë":{"ha":715,"x_min":42,"x_max":663,"o":"m 433 768 q 613 653 563 740 q 643 444 663 565 q 197 289 406 332 q 343 100 214 156 q 582 218 496 143 q 627 201 615 218 q 633 146 639 185 q 501 58 597 103 q 329 0 404 14 q 113 121 185 29 q 44 340 42 213 q 93 510 49 417 q 433 768 242 703 m 193 372 l 193 364 q 511 479 344 403 q 494 601 515 556 q 417 675 474 646 l 396 669 q 253 535 311 622 q 193 372 196 447 m 365 878 q 353 866 365 878 q 308 854 342 854 q 251 878 275 854 q 228 934 228 901 q 251 990 228 967 q 308 1013 275 1013 q 365 990 342 1013 q 389 934 389 967 q 365 878 389 901 m 585 917 q 582 913 585 917 q 569 910 579 910 q 553 917 560 910 q 546 933 546 924 q 569 957 546 957 q 592 933 592 957 q 585 917 592 924 z "},"ì":{"ha":353,"x_min":43,"x_max":326,"o":"m 217 1113 l 326 849 q 258 825 310 814 l 182 935 l 63 1051 q 124 1111 78 1096 q 217 1113 169 1126 m 156 499 l 150 728 q 326 731 272 782 l 271 535 q 222 10 251 360 q 122 4 176 -7 q 43 50 67 15 q 156 499 101 231 z "},"í":{"ha":353,"x_min":43,"x_max":544,"o":"m 156 499 l 150 728 q 326 731 272 782 l 271 535 q 222 10 251 360 q 122 4 176 -7 q 43 50 67 15 q 156 499 101 231 m 379 1099 q 486 1093 436 1111 q 544 1042 536 1075 l 308 818 q 247 851 250 818 l 338 982 l 379 1099 z "},"î":{"ha":353,"x_min":43,"x_max":515,"o":"m 156 499 l 150 728 q 326 731 272 782 l 271 535 q 222 10 251 360 q 122 4 176 -7 q 43 50 67 15 q 156 499 101 231 m 57 869 l 275 1071 q 411 1054 360 1089 l 515 850 q 467 825 494 831 q 378 836 417 815 l 304 992 l 117 828 q 57 869 61 831 z "},"ï":{"ha":353,"x_min":43,"x_max":421,"o":"m 81 990 q 92 1001 81 990 q 138 1013 104 1013 q 194 990 171 1013 q 218 934 218 967 q 194 878 218 901 q 138 854 171 854 q 81 878 104 854 q 57 934 57 901 q 81 990 57 967 m 375 933 q 398 957 375 957 q 421 933 421 957 q 415 917 421 924 q 399 910 408 910 q 382 917 389 910 q 375 933 375 924 m 156 499 l 150 728 q 326 731 272 782 l 271 535 q 222 10 251 360 q 122 4 176 -7 q 43 50 67 15 q 156 499 101 231 z "},"ð":{"ha":699,"x_min":46,"x_max":747,"o":"m 542 994 l 690 1058 q 735 1027 722 1050 q 732 971 747 1004 l 574 929 q 647 571 649 758 q 567 228 646 383 q 322 0 489 72 q 119 109 192 21 q 47 317 46 197 q 144 580 47 456 q 400 749 240 704 q 532 600 485 692 q 478 897 531 750 l 304 835 q 256 879 265 853 q 264 929 246 906 l 443 958 l 340 1076 q 372 1124 350 1111 q 438 1135 393 1136 q 542 994 494 1075 m 189 315 q 315 92 189 157 q 526 485 499 232 q 462 584 492 547 q 382 647 432 621 q 237 505 285 592 q 189 315 189 418 z "},"ñ":{"ha":768,"x_min":29,"x_max":733,"o":"m 571 908 l 657 1013 q 711 1005 689 1019 q 728 965 733 990 q 554 822 675 879 q 360 933 413 860 l 351 931 l 274 826 q 220 839 243 824 q 199 876 197 854 q 243 932 224 910 q 299 981 263 954 q 381 1024 336 1007 q 565 910 514 978 l 571 908 m 244 550 l 256 539 q 521 757 378 688 q 658 697 606 750 q 726 578 711 643 l 672 435 q 650 10 653 218 q 554 4 601 -6 q 476 44 507 14 q 568 558 504 243 q 511 635 560 611 q 261 429 392 579 q 200 10 242 254 q 99 3 149 -6 q 29 43 49 13 q 154 507 108 292 l 121 711 q 292 761 193 776 q 285 618 303 722 l 244 550 z "},"ò":{"ha":722,"x_min":39,"x_max":685,"o":"m 39 325 q 97 519 39 414 q 248 699 156 625 q 423 774 340 774 q 592 646 506 774 q 682 415 679 518 q 550 142 685 283 q 289 0 415 0 q 123 99 207 0 q 39 325 39 199 m 410 683 q 176 342 215 563 q 294 83 182 181 q 468 212 407 136 q 553 400 529 288 q 410 683 529 569 m 385 1113 l 494 849 q 426 825 478 814 l 350 935 l 231 1051 q 292 1111 246 1096 q 385 1113 338 1126 z "},"ó":{"ha":722,"x_min":39,"x_max":714,"o":"m 507 982 l 549 1099 q 656 1093 606 1111 q 714 1042 706 1075 l 478 818 q 417 851 419 818 l 507 982 m 39 325 q 97 519 39 414 q 248 699 156 625 q 423 774 340 774 q 592 646 506 774 q 682 415 679 518 q 550 142 685 283 q 289 0 415 0 q 123 99 207 0 q 39 325 39 199 m 410 683 q 176 342 215 563 q 294 83 182 181 q 468 212 407 136 q 553 400 529 288 q 410 683 529 569 z "},"ô":{"ha":722,"x_min":39,"x_max":685,"o":"m 225 869 l 443 1071 q 579 1054 528 1089 l 683 850 q 633 825 663 831 q 546 836 585 815 l 472 992 l 285 828 q 225 869 229 831 m 39 325 q 97 519 39 414 q 248 699 156 625 q 423 774 340 774 q 592 646 506 774 q 682 415 679 518 q 550 142 685 283 q 289 0 415 0 q 123 99 207 0 q 39 325 39 199 m 410 683 q 176 342 215 563 q 294 83 182 181 q 468 212 407 136 q 553 400 529 288 q 410 683 529 569 z "},"õ":{"ha":722,"x_min":39,"x_max":728,"o":"m 39 325 q 97 519 39 414 q 248 699 156 625 q 423 774 340 774 q 592 646 506 774 q 682 415 679 518 q 550 142 685 283 q 289 0 415 0 q 123 99 207 0 q 39 325 39 199 m 410 683 q 176 342 215 563 q 294 83 182 181 q 468 212 407 136 q 553 400 529 288 q 410 683 529 569 m 346 931 l 268 826 q 215 839 238 824 q 193 876 192 854 q 238 932 218 910 q 294 981 257 954 q 375 1024 331 1007 q 560 910 508 978 l 565 908 l 651 1013 q 706 1005 683 1019 q 722 965 728 990 q 549 822 669 879 q 354 933 407 860 l 346 931 z "},"ö":{"ha":722,"x_min":39,"x_max":685,"o":"m 249 990 q 260 1001 249 990 q 306 1013 272 1013 q 363 990 339 1013 q 386 934 386 967 q 363 878 386 901 q 306 854 339 854 q 249 878 272 854 q 225 934 225 901 q 249 990 225 967 m 543 933 q 566 957 543 957 q 589 933 589 957 q 583 917 589 924 q 567 910 576 910 q 550 917 557 910 q 543 933 543 924 m 39 325 q 97 519 39 414 q 248 699 156 625 q 423 774 340 774 q 592 646 506 774 q 682 415 679 518 q 550 142 685 283 q 289 0 415 0 q 123 99 207 0 q 39 325 39 199 m 410 683 q 176 342 215 563 q 294 83 182 181 q 468 212 407 136 q 553 400 529 288 q 410 683 529 569 z "},"÷":{"ha":992,"x_min":44,"x_max":967,"o":"m 651 699 q 592 641 629 664 q 525 618 554 618 q 476 635 496 618 q 454 682 457 653 q 491 759 458 722 q 561 800 524 796 q 617 767 588 800 q 651 699 646 735 m 571 213 q 510 156 547 179 q 444 133 474 133 q 396 151 415 133 q 374 196 376 168 q 410 273 378 236 q 481 315 443 310 q 536 282 507 315 q 571 213 565 249 m 949 529 q 960 488 967 519 q 926 424 954 456 l 76 413 q 92 513 44 449 l 518 507 l 949 529 z "},"ø":{"ha":826,"x_min":-6,"x_max":842,"o":"m 356 0 q 265 32 314 0 q 176 117 215 64 l 92 0 q 24 28 46 6 q -6 96 1 50 l 131 200 q 106 339 106 264 q 164 519 106 414 q 315 699 222 625 q 489 774 407 774 q 660 646 571 774 l 756 778 q 842 688 839 764 l 701 575 q 748 407 746 485 q 687 231 750 329 q 530 66 624 132 q 356 0 436 0 m 247 290 l 575 544 q 476 683 539 624 q 242 342 281 563 q 247 290 244 308 m 597 490 l 264 224 q 361 83 292 144 q 535 213 474 136 q 618 400 596 289 q 597 490 611 447 z "},"ù":{"ha":767,"x_min":38,"x_max":761,"o":"m 115 385 l 124 617 l 124 758 q 300 710 235 781 q 190 182 285 550 q 288 115 207 139 q 496 342 421 236 l 496 344 q 588 760 542 590 q 701 753 663 764 q 761 710 740 743 l 651 497 q 622 10 626 285 q 526 4 575 -6 q 446 44 478 14 l 513 215 l 496 229 q 293 0 415 124 q 38 150 75 28 l 115 385 m 438 825 l 361 935 l 242 1051 q 303 1111 257 1096 q 396 1113 349 1126 l 506 849 q 438 825 489 814 z "},"ú":{"ha":767,"x_min":38,"x_max":761,"o":"m 115 385 l 124 617 l 124 758 q 300 710 235 781 q 190 182 285 550 q 288 115 207 139 q 496 342 421 236 l 496 344 q 588 760 542 590 q 701 753 663 764 q 761 710 740 743 l 651 497 q 622 10 626 285 q 526 4 575 -6 q 446 44 478 14 l 513 215 l 496 229 q 293 0 415 124 q 38 150 75 28 l 115 385 m 724 1042 l 488 818 q 426 851 429 818 l 517 982 l 558 1099 q 665 1093 615 1111 q 724 1042 715 1075 z "},"û":{"ha":767,"x_min":38,"x_max":761,"o":"m 115 385 l 124 617 l 124 758 q 300 710 235 781 q 190 182 285 550 q 288 115 207 139 q 496 342 421 236 l 496 344 q 588 760 542 590 q 701 753 663 764 q 761 710 740 743 l 651 497 q 622 10 626 285 q 526 4 575 -6 q 446 44 478 14 l 513 215 l 496 229 q 293 0 415 124 q 38 150 75 28 l 115 385 m 482 992 l 294 828 q 235 869 239 831 l 453 1071 q 589 1054 538 1089 l 693 850 q 644 825 672 831 q 556 836 594 815 l 482 992 z "},"ü":{"ha":767,"x_min":38,"x_max":761,"o":"m 115 385 l 124 617 l 124 758 q 300 710 235 781 q 190 182 285 550 q 288 115 207 139 q 496 342 421 236 l 496 344 q 588 760 542 590 q 701 753 663 764 q 761 710 740 743 l 651 497 q 622 10 626 285 q 526 4 575 -6 q 446 44 478 14 l 513 215 l 496 229 q 293 0 415 124 q 38 150 75 28 l 115 385 m 372 878 q 360 866 372 878 q 315 854 349 854 q 258 878 282 854 q 235 934 235 901 q 258 990 235 967 q 315 1013 282 1013 q 372 990 349 1013 q 396 934 396 967 q 372 878 396 901 m 592 917 q 589 913 592 917 q 576 910 586 910 q 560 917 567 910 q 553 933 553 924 q 576 957 553 957 q 599 933 599 957 q 592 917 599 924 z "},"ý":{"ha":718,"x_min":26,"x_max":754,"o":"m 493 346 q 582 760 546 653 q 693 754 654 765 q 754 710 732 743 l 631 474 q 510 -303 583 239 q 406 -370 475 -349 q 256 -389 338 -392 q 99 -269 158 -342 q 26 -124 39 -196 q 101 -58 58 -75 q 179 -64 143 -42 q 299 -285 196 -200 q 363 -269 344 -290 q 439 94 400 -137 l 496 200 l 478 215 q 321 58 421 149 q 46 222 78 94 l 114 417 q 117 758 129 604 q 296 710 226 781 q 260 503 279 586 q 196 253 242 421 q 234 201 210 221 q 311 165 258 182 q 493 346 439 264 m 731 1042 l 494 818 q 433 851 436 818 l 524 982 l 565 1099 q 672 1093 622 1111 q 731 1042 722 1075 z "},"þ":{"ha":757,"x_min":-32,"x_max":736,"o":"m 243 554 l 261 536 q 457 757 358 664 q 651 654 593 724 q 736 451 710 585 q 548 149 689 265 q 203 3 407 32 q 142 -369 167 -256 q -32 -337 22 -400 q 95 189 47 -46 q 189 750 143 424 l 206 1096 q 309 1139 267 1132 q 396 1126 351 1146 l 313 804 l 288 636 l 243 554 m 215 96 q 472 231 375 133 q 593 457 569 329 q 551 570 581 529 q 461 638 521 611 q 258 422 356 546 q 215 96 228 200 z "},"ÿ":{"ha":718,"x_min":26,"x_max":754,"o":"m 493 346 q 582 760 546 653 q 693 754 654 765 q 754 710 732 743 l 631 474 q 510 -303 583 239 q 406 -370 475 -349 q 256 -389 338 -392 q 99 -269 158 -342 q 26 -124 39 -196 q 101 -58 58 -75 q 179 -64 143 -42 q 299 -285 196 -200 q 363 -269 344 -290 q 439 94 400 -137 l 496 200 l 478 215 q 321 58 421 149 q 46 222 78 94 l 114 417 q 117 758 129 604 q 296 710 226 781 q 260 503 279 586 q 196 253 242 421 q 234 201 210 221 q 311 165 258 182 q 493 346 439 264 m 379 878 q 367 866 379 878 q 322 854 356 854 q 265 878 289 854 q 242 934 242 901 q 265 990 242 967 q 322 1013 289 1013 q 379 990 356 1013 q 403 934 403 967 q 379 878 403 901 m 599 917 q 596 913 599 917 q 583 910 593 910 q 567 917 574 910 q 560 933 560 924 q 583 957 560 957 q 606 933 606 957 q 599 917 606 924 z "},"Ā":{"ha":856,"x_min":-8,"x_max":853,"o":"m 688 483 l 833 511 q 851 467 853 497 q 825 403 849 438 l 696 396 l 726 8 q 628 3 679 -6 q 549 40 578 13 l 561 388 l 376 376 l 311 368 l 156 8 q 56 3 104 -6 q -8 42 8 13 l 153 347 l 50 333 q 58 442 11 383 l 207 447 l 303 629 l 442 985 q 622 1021 529 1031 q 689 1006 660 1017 l 665 768 l 688 483 m 347 451 l 563 460 l 564 460 l 549 886 l 535 883 l 347 451 m 804 1140 l 379 1129 q 394 1217 351 1160 l 618 1210 l 826 1232 q 838 1198 844 1224 q 804 1140 832 1172 z "},"ā":{"ha":778,"x_min":42,"x_max":778,"o":"m 488 226 l 297 18 q 108 88 172 22 q 43 265 44 154 q 96 490 42 375 q 246 680 150 604 q 447 757 342 756 q 582 614 525 717 l 583 617 q 607 760 585 714 q 719 755 679 767 q 778 710 758 743 l 667 497 q 631 10 646 329 q 531 4 586 -7 q 442 49 475 15 l 504 211 l 488 226 m 199 268 q 271 125 199 168 q 515 350 482 318 l 556 526 q 438 663 514 611 q 262 507 325 614 q 199 268 199 400 m 718 864 l 293 853 q 308 940 265 883 l 532 933 l 740 956 q 752 922 758 947 q 718 864 746 896 z "},"Ă":{"ha":856,"x_min":-8,"x_max":853,"o":"m 688 483 l 833 511 q 851 467 853 497 q 825 403 849 438 l 696 396 l 726 8 q 628 3 679 -6 q 549 40 578 13 l 561 388 l 376 376 l 311 368 l 156 8 q 56 3 104 -6 q -8 42 8 13 l 153 347 l 50 333 q 58 442 11 383 l 207 447 l 303 629 l 442 985 q 622 1021 529 1031 q 689 1006 660 1017 l 665 768 l 688 483 m 347 451 l 563 460 l 564 460 l 549 886 l 535 883 l 347 451 m 825 1268 q 756 1157 810 1200 q 628 1114 701 1114 q 500 1160 556 1114 q 424 1290 444 1206 q 479 1307 443 1310 q 581 1200 507 1219 q 696 1307 682 1215 q 825 1268 793 1331 z "},"ă":{"ha":778,"x_min":42,"x_max":778,"o":"m 488 226 l 297 18 q 108 88 172 22 q 43 265 44 154 q 96 490 42 375 q 246 680 150 604 q 447 757 342 756 q 582 614 525 717 l 583 617 q 607 760 585 714 q 719 755 679 767 q 778 710 758 743 l 667 497 q 631 10 646 329 q 531 4 586 -7 q 442 49 475 15 l 504 211 l 488 226 m 199 268 q 271 125 199 168 q 515 350 482 318 l 556 526 q 438 663 514 611 q 262 507 325 614 q 199 268 199 400 m 739 992 q 669 881 724 924 q 542 838 615 838 q 414 883 469 838 q 338 1014 358 929 q 393 1031 357 1033 q 494 924 421 943 q 610 1031 596 939 q 739 992 707 1054 z "},"Ą":{"ha":856,"x_min":-8,"x_max":853,"o":"m 726 8 l 707 3 q 599 -56 646 -11 q 538 -157 553 -101 q 645 -207 567 -207 q 786 -156 724 -207 q 829 -201 824 -158 q 614 -296 739 -296 q 485 -258 543 -296 q 426 -169 426 -221 q 472 -66 426 -117 q 582 18 517 -15 q 549 40 561 29 l 561 388 l 376 376 l 311 368 l 156 8 q 56 3 104 -6 q -8 42 8 13 l 153 347 l 50 333 q 58 442 11 383 l 207 447 l 303 629 l 442 985 q 622 1021 529 1031 q 689 1006 660 1017 l 665 768 l 688 483 l 833 511 q 851 467 853 497 q 825 403 849 438 l 696 396 l 726 8 m 347 451 l 563 460 l 564 460 l 549 886 l 535 883 l 347 451 z "},"ą":{"ha":772,"x_min":42,"x_max":778,"o":"m 488 226 l 297 18 q 108 88 172 22 q 43 265 44 154 q 96 490 42 375 q 246 680 150 604 q 447 757 342 756 q 582 614 525 717 l 583 617 q 607 760 585 714 q 719 755 679 767 q 778 710 758 743 l 667 497 q 631 10 646 329 l 614 6 l 614 1 q 424 -183 450 -44 q 541 -208 474 -215 q 654 -157 608 -200 q 701 -201 696 -157 q 504 -296 625 -296 q 375 -259 424 -296 q 326 -170 326 -222 q 367 -65 326 -118 q 476 24 408 -11 q 442 49 454 36 l 504 211 l 488 226 m 199 268 q 271 125 199 168 q 515 350 482 318 l 556 526 q 438 663 514 611 q 262 507 325 614 q 199 268 199 400 z "},"Ć":{"ha":847,"x_min":63,"x_max":829,"o":"m 565 935 q 315 741 417 882 q 213 458 213 600 q 267 238 213 317 q 443 111 322 160 q 703 281 604 176 q 760 265 740 288 q 776 210 779 242 q 638 96 731 154 q 449 0 546 38 q 63 446 63 89 q 163 764 63 588 q 625 1040 374 1000 q 768 930 717 1006 q 829 768 819 854 q 749 722 796 733 q 657 729 703 711 q 588 938 644 872 l 565 935 m 663 1375 q 769 1369 719 1388 q 828 1318 819 1351 l 592 1094 q 531 1128 533 1094 l 621 1258 l 663 1375 z "},"ć":{"ha":715,"x_min":47,"x_max":742,"o":"m 458 760 q 600 685 547 744 q 665 543 653 626 q 595 499 639 510 q 507 501 551 488 q 490 598 506 563 q 438 669 474 633 l 408 664 q 265 527 321 613 q 206 355 210 442 q 233 204 201 268 q 350 99 264 140 q 590 225 504 146 q 642 154 653 228 q 501 59 594 106 q 329 0 408 13 q 114 124 181 32 q 53 338 47 215 q 101 504 54 418 q 458 760 256 717 m 576 1099 q 683 1093 633 1111 q 742 1042 733 1075 l 506 818 q 444 851 447 818 l 535 982 l 576 1099 z "},"Č":{"ha":847,"x_min":63,"x_max":829,"o":"m 565 935 q 315 741 417 882 q 213 458 213 600 q 267 238 213 317 q 443 111 322 160 q 703 281 604 176 q 760 265 740 288 q 776 210 779 242 q 638 96 731 154 q 449 0 546 38 q 63 446 63 89 q 163 764 63 588 q 625 1040 374 1000 q 768 930 717 1006 q 829 768 819 854 q 749 722 796 733 q 657 729 703 711 q 588 938 644 872 l 565 935 m 614 1113 q 475 1118 526 1085 l 369 1299 q 443 1324 393 1340 l 531 1167 l 682 1331 q 753 1335 715 1344 q 803 1292 792 1326 l 614 1113 z "},"č":{"ha":715,"x_min":47,"x_max":717,"o":"m 458 760 q 600 685 547 744 q 665 543 653 626 q 595 499 639 510 q 507 501 551 488 q 490 598 506 563 q 438 669 474 633 l 408 664 q 265 527 321 613 q 206 355 210 442 q 233 204 201 268 q 350 99 264 140 q 590 225 504 146 q 642 154 653 228 q 501 59 594 106 q 329 0 408 13 q 114 124 181 32 q 53 338 47 215 q 101 504 54 418 q 458 760 256 717 m 528 836 q 389 842 440 808 l 283 1022 q 357 1047 307 1064 l 444 890 l 596 1054 q 667 1059 629 1068 q 717 1015 706 1050 l 528 836 z "},"Ď":{"ha":910,"x_min":67,"x_max":896,"o":"m 439 1026 q 772 901 653 1026 q 893 575 890 775 q 817 283 896 415 q 586 61 738 150 q 203 0 399 0 q 67 107 90 29 q 222 679 176 436 l 225 900 l 172 889 q 135 943 140 913 q 149 993 131 974 q 439 1026 274 1026 m 299 483 l 249 107 q 513 139 403 110 q 735 558 739 304 q 647 822 732 722 q 401 913 563 921 q 299 483 329 607 m 728 1292 l 539 1113 q 400 1118 451 1085 l 294 1299 q 368 1324 318 1340 l 456 1167 l 607 1331 q 678 1335 640 1344 q 728 1292 717 1326 z "},"ď":{"ha":871,"x_min":42,"x_max":1050,"o":"m 908 1075 l 878 1247 q 983 1269 935 1286 q 1050 1200 1032 1251 q 997 1056 1043 1129 q 886 929 950 982 q 831 957 846 929 l 908 1075 m 486 224 l 297 18 q 109 86 175 19 q 43 261 43 153 q 166 598 42 440 q 450 757 290 756 q 582 624 525 744 q 610 750 583 629 l 611 1100 q 719 1140 678 1135 q 801 1126 760 1146 l 717 808 q 606 10 690 600 q 507 3 557 -6 q 433 43 457 11 l 501 210 l 486 224 m 271 125 l 515 350 l 558 526 q 498 620 525 592 q 443 667 471 649 q 265 510 331 619 q 199 268 200 400 q 271 125 199 168 z "},"Đ":{"ha":919,"x_min":28,"x_max":906,"o":"m 449 1026 q 781 901 663 1026 q 903 575 900 775 q 826 283 906 415 q 596 61 747 150 q 213 0 408 0 q 76 107 100 29 q 189 479 154 340 l 65 464 q 31 521 33 489 q 51 569 28 553 l 207 556 q 232 679 222 624 l 235 900 l 182 889 q 145 943 150 913 q 158 993 140 974 q 449 1026 283 1026 m 308 483 l 258 107 q 522 139 413 110 q 744 558 749 304 q 657 822 742 722 q 411 913 572 921 q 328 564 344 628 l 547 592 q 582 550 575 579 q 564 493 589 521 l 311 493 l 308 483 z "},"đ":{"ha":726,"x_min":42,"x_max":926,"o":"m 486 224 l 297 18 q 109 86 175 19 q 43 261 43 153 q 166 598 42 440 q 450 757 290 756 q 582 624 525 744 q 610 750 583 629 l 610 857 l 461 853 q 476 940 433 883 l 611 936 l 611 1100 q 719 1140 678 1135 q 801 1126 760 1146 l 751 939 l 908 956 q 920 922 926 947 q 886 864 914 896 l 731 860 l 717 808 q 606 10 690 600 q 507 3 557 -6 q 433 43 457 11 l 501 210 l 486 224 m 271 125 l 515 350 l 558 526 q 498 620 525 592 q 443 667 471 649 q 265 510 331 619 q 199 268 200 400 q 271 125 199 168 z "},"Ē":{"ha":757,"x_min":65,"x_max":819,"o":"m 740 1232 q 752 1198 758 1224 q 718 1140 746 1172 l 293 1129 q 308 1217 265 1160 l 532 1210 l 740 1232 m 328 549 q 632 579 335 550 q 647 519 650 557 q 621 447 643 482 q 314 460 431 463 l 228 110 q 628 179 431 136 q 661 144 653 171 q 635 39 675 96 l 197 0 q 65 111 69 32 q 232 683 182 421 l 249 900 q 176 918 224 914 q 181 999 153 972 q 789 1015 457 1024 q 803 923 819 979 q 736 833 786 867 l 639 906 q 408 908 506 921 l 367 767 l 328 549 z "},"ē":{"ha":715,"x_min":42,"x_max":671,"o":"m 433 768 q 613 653 563 740 q 643 444 663 565 q 197 289 406 332 q 343 100 214 156 q 582 218 496 143 q 627 201 615 218 q 633 146 639 185 q 501 58 597 103 q 329 0 404 14 q 113 121 185 29 q 44 340 42 213 q 93 510 49 417 q 433 768 242 703 m 193 372 l 193 364 q 511 479 344 403 q 494 601 515 556 q 417 675 474 646 l 396 669 q 253 535 311 622 q 193 372 196 447 m 631 864 l 206 853 q 221 940 178 883 l 444 933 l 653 956 q 665 922 671 947 q 631 864 658 896 z "},"Ė":{"ha":757,"x_min":65,"x_max":819,"o":"m 621 1213 q 621 1197 621 1213 q 597 1157 621 1181 q 540 1133 574 1133 q 483 1157 506 1133 q 460 1214 460 1181 q 483 1269 460 1247 q 540 1292 506 1292 q 597 1269 574 1292 q 621 1213 621 1246 m 328 549 q 632 579 335 550 q 647 519 650 557 q 621 447 643 482 q 314 460 431 463 l 228 110 q 628 179 431 136 q 661 144 653 171 q 635 39 675 96 l 197 0 q 65 111 69 32 q 232 683 182 421 l 249 900 q 176 918 224 914 q 181 999 153 972 q 789 1015 457 1024 q 803 923 819 979 q 736 833 786 867 l 639 906 q 408 908 506 921 l 367 767 l 328 549 z "},"ė":{"ha":715,"x_min":42,"x_max":663,"o":"m 433 768 q 613 653 563 740 q 643 444 663 565 q 197 289 406 332 q 343 100 214 156 q 582 218 496 143 q 627 201 615 218 q 633 146 639 185 q 501 58 597 103 q 329 0 404 14 q 113 121 185 29 q 44 340 42 213 q 93 510 49 417 q 433 768 242 703 m 193 372 l 193 364 q 511 479 344 403 q 494 601 515 556 q 417 675 474 646 l 396 669 q 253 535 311 622 q 193 372 196 447 m 510 881 q 498 869 510 881 q 453 857 486 857 q 396 880 419 857 q 372 937 372 903 q 395 993 372 971 q 452 1015 418 1015 q 510 992 486 1015 q 533 937 533 969 q 510 881 533 904 z "},"Ę":{"ha":750,"x_min":65,"x_max":819,"o":"m 328 549 q 632 579 335 550 q 647 519 650 557 q 621 447 643 482 q 314 460 431 463 l 228 110 q 628 179 431 136 q 661 144 653 171 q 635 39 675 96 q 497 -46 565 15 q 419 -165 428 -107 q 533 -214 454 -214 q 682 -157 611 -214 q 713 -167 703 -156 q 725 -201 724 -178 q 519 -296 644 -296 q 377 -256 436 -296 q 318 -156 318 -215 q 460 24 318 -62 l 197 0 q 65 111 69 32 q 232 683 182 421 l 249 900 q 176 918 224 914 q 181 999 153 972 q 789 1015 457 1024 q 803 923 819 979 q 736 833 786 867 l 639 906 q 408 908 506 921 l 367 767 l 328 549 z "},"ę":{"ha":718,"x_min":-7,"x_max":663,"o":"m 256 -161 q 371 -208 288 -208 q 528 -153 454 -208 q 575 -196 574 -149 q 353 -296 493 -296 q 212 -254 268 -296 q 156 -154 156 -212 q 265 17 156 -60 q 97 142 153 57 q 93 510 -7 301 q 433 768 242 703 q 613 653 563 740 q 643 444 663 565 q 197 289 406 332 q 343 100 214 156 q 582 218 496 143 q 627 201 615 218 q 633 146 639 185 q 442 33 585 88 l 442 31 q 325 -48 381 8 q 256 -161 269 -104 m 193 372 l 193 364 q 511 479 344 403 q 494 601 515 556 q 417 675 474 646 l 396 669 q 253 535 311 622 q 193 372 196 447 z "},"Ě":{"ha":757,"x_min":65,"x_max":819,"o":"m 328 549 q 632 579 335 550 q 647 519 650 557 q 621 447 643 482 q 314 460 431 463 l 228 110 q 628 179 431 136 q 661 144 653 171 q 635 39 675 96 l 197 0 q 65 111 69 32 q 232 683 182 421 l 249 900 q 176 918 224 914 q 181 999 153 972 q 789 1015 457 1024 q 803 923 819 979 q 736 833 786 867 l 639 906 q 408 908 506 921 l 367 767 l 328 549 m 590 1113 q 451 1118 503 1085 l 346 1299 q 419 1324 369 1340 l 507 1167 l 658 1331 q 730 1335 692 1344 q 779 1292 768 1326 l 590 1113 z "},"ě":{"ha":715,"x_min":42,"x_max":692,"o":"m 433 768 q 613 653 563 740 q 643 444 663 565 q 197 289 406 332 q 343 100 214 156 q 582 218 496 143 q 627 201 615 218 q 633 146 639 185 q 501 58 597 103 q 329 0 404 14 q 113 121 185 29 q 44 340 42 213 q 93 510 49 417 q 433 768 242 703 m 193 372 l 193 364 q 511 479 344 403 q 494 601 515 556 q 417 675 474 646 l 396 669 q 253 535 311 622 q 193 372 196 447 m 692 1015 l 503 836 q 364 842 415 808 l 258 1022 q 332 1047 282 1064 l 419 890 l 571 1054 q 642 1059 604 1068 q 692 1015 681 1050 z "},"Ğ":{"ha":900,"x_min":72,"x_max":857,"o":"m 854 1268 q 785 1157 839 1200 q 658 1114 731 1114 q 529 1160 585 1114 q 453 1290 474 1206 q 508 1307 472 1310 q 610 1200 536 1219 q 725 1307 711 1215 q 854 1268 822 1331 m 742 332 l 732 336 q 464 0 642 126 q 165 156 254 51 q 74 419 75 261 q 174 744 72 578 q 363 931 246 850 q 631 1036 481 1011 q 853 775 819 976 q 774 721 819 735 q 683 729 729 707 q 660 848 675 803 q 608 935 646 893 l 588 935 q 330 740 435 881 q 224 438 225 600 q 279 231 224 300 q 349 165 310 193 q 450 107 388 138 q 704 424 619 251 l 699 431 l 483 393 q 451 459 454 422 q 478 521 447 496 q 810 518 642 493 q 829 306 857 438 q 795 174 814 233 q 739 4 776 115 q 671 6 703 -3 q 626 40 639 15 q 742 332 721 236 z "},"ğ":{"ha":742,"x_min":43,"x_max":775,"o":"m 489 228 l 297 18 q 108 88 174 22 q 43 265 43 154 q 97 490 43 375 q 247 681 151 604 q 446 757 342 757 q 582 619 521 743 q 604 760 583 715 q 715 756 676 767 q 775 710 754 744 l 654 463 q 578 20 619 303 q 532 -297 538 -262 q 434 -365 501 -340 q 292 -390 367 -389 q 130 -269 190 -340 q 56 -125 69 -199 q 130 -58 88 -75 q 210 -64 172 -42 q 328 -285 222 -192 q 383 -265 361 -287 q 453 81 419 -133 l 506 214 l 489 228 m 199 271 q 271 125 199 168 q 515 350 482 318 l 556 528 l 554 526 q 443 667 507 626 q 264 511 329 619 q 199 271 199 403 m 717 992 q 647 881 701 924 q 520 838 593 838 q 392 883 447 838 q 315 1014 336 929 q 371 1031 335 1033 q 472 924 399 943 q 588 1031 574 939 q 717 992 685 1054 z "},"Ģ":{"ha":900,"x_min":72,"x_max":857,"o":"m 742 332 l 732 336 q 464 0 642 126 q 165 156 254 51 q 74 419 75 261 q 174 744 72 578 q 363 931 246 850 q 631 1036 481 1011 q 853 775 819 976 q 774 721 819 735 q 683 729 729 707 q 660 848 675 803 q 608 935 646 893 l 588 935 q 330 740 435 881 q 224 438 225 600 q 279 231 224 300 q 349 165 310 193 q 450 107 388 138 q 704 424 619 251 l 699 431 l 483 393 q 451 459 454 422 q 478 521 447 496 q 810 518 642 493 q 829 306 857 438 q 795 174 814 233 q 739 4 776 115 q 671 6 703 -3 q 626 40 639 15 q 742 332 721 236 m 367 -372 q 311 -344 328 -375 l 389 -226 l 358 -54 q 464 -33 415 -15 q 531 -101 513 -51 q 477 -246 524 -172 q 367 -372 431 -319 z "},"ģ":{"ha":742,"x_min":43,"x_max":775,"o":"m 489 228 l 297 18 q 108 88 174 22 q 43 265 43 154 q 97 490 43 375 q 247 681 151 604 q 446 757 342 757 q 582 619 521 743 q 604 760 583 715 q 715 756 676 767 q 775 710 754 744 l 654 463 q 578 20 619 303 q 532 -297 538 -262 q 434 -365 501 -340 q 292 -390 367 -389 q 130 -269 190 -340 q 56 -125 69 -199 q 130 -58 88 -75 q 210 -64 172 -42 q 328 -285 222 -192 q 383 -265 361 -287 q 453 81 419 -133 l 506 214 l 489 228 m 199 271 q 271 125 199 168 q 515 350 482 318 l 556 528 l 554 526 q 443 667 507 626 q 264 511 329 619 q 199 271 199 403 m 533 1031 l 586 876 q 490 817 547 822 q 406 850 432 813 q 532 1190 378 1013 q 600 1168 576 1197 l 533 1031 z "},"Ī":{"ha":351,"x_min":28,"x_max":525,"o":"m 507 1232 q 519 1198 525 1224 q 485 1140 513 1172 l 60 1129 q 75 1217 32 1160 l 299 1210 l 507 1232 m 189 986 q 301 1026 257 1026 q 381 1011 346 1026 l 271 574 q 242 307 264 499 q 208 10 219 115 q 105 4 163 -7 q 28 50 47 15 q 172 704 126 417 l 189 986 z "},"ī":{"ha":353,"x_min":7,"x_max":500,"o":"m 482 956 q 494 922 500 947 q 460 864 488 896 l 35 853 q 50 940 7 883 l 274 933 l 482 956 m 156 499 l 150 728 q 326 731 272 782 l 271 535 q 222 10 251 360 q 122 4 176 -7 q 43 50 67 15 q 156 499 101 231 z "},"Į":{"ha":351,"x_min":-56,"x_max":381,"o":"m 43 -175 q 157 -212 81 -212 q 293 -157 233 -212 q 339 -201 338 -160 q 132 -296 256 -296 q -5 -257 46 -296 q -56 -166 -56 -218 q -20 -67 -56 -114 q 75 13 15 -19 q 28 50 42 26 q 172 704 126 417 l 189 986 q 301 1026 257 1026 q 381 1011 346 1026 l 271 574 q 242 307 264 499 q 208 10 219 115 l 201 7 l 201 4 q 93 -68 142 -19 q 43 -175 44 -117 z "},"į":{"ha":354,"x_min":-44,"x_max":357,"o":"m 54 -176 q 172 -214 92 -214 q 313 -157 253 -214 q 357 -201 351 -158 q 153 -296 282 -296 q 8 -256 60 -296 q -44 -163 -44 -215 q -9 -63 -44 -111 q 86 17 26 -15 q 44 50 58 31 q 157 499 103 231 l 151 728 q 328 731 274 782 l 272 535 q 224 10 253 360 l 218 8 l 218 6 q 54 -176 72 -58 m 349 914 q 350 895 349 914 q 325 849 351 876 q 260 822 299 822 q 193 849 221 822 q 164 913 165 875 q 190 978 163 951 q 256 1004 217 1004 q 321 978 294 1004 q 349 914 347 951 z "},"İ":{"ha":351,"x_min":28,"x_max":386,"o":"m 363 1157 q 351 1145 363 1157 q 306 1133 339 1133 q 249 1157 272 1133 q 225 1214 225 1181 q 248 1269 225 1247 q 305 1292 271 1292 q 363 1269 339 1292 q 386 1213 386 1246 q 363 1157 386 1181 m 189 986 q 301 1026 257 1026 q 381 1011 346 1026 l 271 574 q 242 307 264 499 q 208 10 219 115 q 105 4 163 -7 q 28 50 47 15 q 172 704 126 417 l 189 986 z "},"ı":{"ha":353,"x_min":43,"x_max":326,"o":"m 156 499 l 150 728 q 326 731 272 782 l 271 535 q 222 10 251 360 q 122 4 176 -7 q 43 50 67 15 q 156 499 101 231 z "},"Ķ":{"ha":864,"x_min":47,"x_max":868,"o":"m 207 990 q 324 1029 279 1029 q 400 1014 369 1029 l 289 574 l 288 556 l 471 679 l 756 1029 q 838 998 811 1022 q 868 929 864 974 q 645 726 789 846 q 376 529 501 607 q 764 140 494 233 q 760 58 783 99 q 676 0 736 18 q 460 199 554 67 q 311 496 365 332 l 279 474 q 228 10 240 143 q 123 4 181 -7 q 47 50 65 15 q 190 704 146 422 l 207 990 m 328 -226 l 297 -54 q 403 -33 354 -15 q 469 -101 451 -51 q 416 -246 463 -172 q 306 -372 369 -319 q 250 -344 267 -375 l 328 -226 z "},"ķ":{"ha":735,"x_min":15,"x_max":693,"o":"m 226 501 l 233 489 q 615 760 413 651 q 676 713 660 753 q 667 624 693 672 q 272 429 428 546 q 650 133 388 226 q 649 63 672 101 q 571 0 626 24 q 385 140 474 53 q 235 326 296 226 q 188 10 219 222 q 84 4 135 -6 q 15 44 33 14 q 186 806 113 344 l 160 1085 q 331 1133 228 1150 q 265 556 338 1004 l 226 501 m 278 -226 l 249 -54 q 353 -33 304 -15 q 419 -101 401 -51 q 367 -245 414 -172 q 257 -372 321 -318 q 200 -344 217 -375 l 278 -226 z "},"Ĺ":{"ha":674,"x_min":24,"x_max":628,"o":"m 196 986 q 388 1011 310 1051 l 272 538 l 188 107 q 582 179 382 133 q 614 144 607 169 q 592 47 628 96 l 154 0 q 24 107 33 35 q 182 703 111 340 l 196 986 m 386 1375 q 493 1369 443 1388 q 551 1318 543 1351 l 315 1094 q 254 1128 257 1094 l 344 1258 l 386 1375 z "},"ĺ":{"ha":378,"x_min":50,"x_max":561,"o":"m 203 750 l 213 1097 q 401 1126 325 1164 l 317 810 q 233 10 260 249 q 128 4 188 -7 q 50 50 69 15 q 203 750 153 410 m 396 1468 q 503 1463 453 1481 q 561 1411 553 1444 l 325 1188 q 264 1221 267 1188 l 354 1351 l 396 1468 z "},"Ļ":{"ha":674,"x_min":24,"x_max":628,"o":"m 196 986 q 388 1011 310 1051 l 272 538 l 188 107 q 582 179 382 133 q 614 144 607 169 q 592 47 628 96 l 154 0 q 24 107 33 35 q 182 703 111 340 l 196 986 m 233 -372 q 178 -344 192 -375 l 256 -226 l 225 -54 q 331 -33 282 -15 q 397 -101 379 -51 q 344 -246 390 -172 q 233 -372 297 -319 z "},"ļ":{"ha":378,"x_min":3,"x_max":401,"o":"m 203 750 l 213 1097 q 401 1126 325 1164 l 317 810 q 233 10 260 249 q 128 4 188 -7 q 50 50 69 15 q 203 750 153 410 m 58 -372 q 3 -344 17 -375 l 81 -226 l 50 -54 q 156 -33 107 -15 q 222 -101 204 -51 q 169 -246 215 -172 q 58 -372 122 -319 z "},"Ľ":{"ha":674,"x_min":24,"x_max":686,"o":"m 196 986 q 388 1011 310 1051 l 272 538 l 188 107 q 582 179 382 133 q 614 144 607 169 q 592 47 628 96 l 154 0 q 24 107 33 35 q 182 703 111 340 l 196 986 m 522 813 q 467 840 482 810 l 544 958 l 514 1131 q 619 1152 571 1169 q 686 1083 668 1135 q 633 940 679 1013 q 522 813 586 867 z "},"ľ":{"ha":465,"x_min":50,"x_max":644,"o":"m 203 750 l 213 1097 q 401 1126 325 1164 l 317 810 q 233 10 260 249 q 128 4 188 -7 q 50 50 69 15 q 203 750 153 410 m 481 929 q 425 957 440 929 l 503 1075 l 472 1247 q 578 1269 529 1286 q 644 1200 626 1251 q 591 1056 638 1129 q 481 929 544 982 z "},"Ł":{"ha":757,"x_min":38,"x_max":711,"o":"m 350 513 l 271 107 q 665 179 465 133 q 697 144 690 169 q 675 47 711 96 l 238 0 q 107 107 117 35 q 218 478 168 269 l 90 439 q 47 489 56 457 q 58 538 38 521 l 233 550 q 265 703 258 657 l 279 986 q 471 1011 393 1051 l 369 594 l 525 646 q 567 614 554 642 q 557 553 579 586 l 350 513 z "},"ł":{"ha":556,"x_min":49,"x_max":578,"o":"m 382 621 l 524 674 q 567 642 556 667 q 560 581 578 618 l 374 540 q 318 10 351 315 q 213 4 272 -7 q 135 50 154 15 q 244 500 208 311 l 106 456 q 58 504 68 472 q 69 556 49 536 l 260 579 q 288 750 278 678 l 297 1097 q 486 1126 410 1164 l 401 810 q 392 720 399 785 q 382 621 386 656 z "},"Ń":{"ha":926,"x_min":10,"x_max":974,"o":"m 782 986 q 895 1026 850 1026 q 974 1011 940 1026 l 861 575 q 830 319 854 511 q 793 10 806 126 q 696 3 746 -4 q 614 39 646 11 q 318 839 447 376 l 256 574 q 224 301 249 493 q 190 10 200 108 q 86 4 143 -7 q 10 50 29 15 q 160 703 107 399 l 178 986 q 308 1026 250 1026 q 372 1010 339 1026 q 583 340 468 651 l 661 199 q 764 701 740 549 l 782 986 m 868 1318 l 632 1094 q 571 1128 574 1094 l 661 1258 l 703 1375 q 810 1369 760 1388 q 868 1318 860 1351 z "},"ń":{"ha":768,"x_min":29,"x_max":726,"o":"m 244 550 l 256 539 q 521 757 378 688 q 658 697 606 750 q 726 578 711 643 l 672 435 q 650 10 653 218 q 554 4 601 -6 q 476 44 507 14 q 568 558 504 243 q 511 635 560 611 q 261 429 392 579 q 200 10 242 254 q 99 3 149 -6 q 29 43 49 13 q 154 507 108 292 l 121 711 q 292 761 193 776 q 285 618 303 722 l 244 550 m 719 1042 l 483 818 q 422 851 425 818 l 513 982 l 554 1099 q 661 1093 611 1111 q 719 1042 711 1075 z "},"Ņ":{"ha":926,"x_min":10,"x_max":974,"o":"m 782 986 q 895 1026 850 1026 q 974 1011 940 1026 l 861 575 q 830 319 854 511 q 793 10 806 126 q 696 3 746 -4 q 614 39 646 11 q 318 839 447 376 l 256 574 q 224 301 249 493 q 190 10 200 108 q 86 4 143 -7 q 10 50 29 15 q 160 703 107 399 l 178 986 q 308 1026 250 1026 q 372 1010 339 1026 q 583 340 468 651 l 661 199 q 764 701 740 549 l 782 986 m 354 -226 l 324 -54 q 429 -33 381 -15 q 496 -101 478 -51 q 442 -246 489 -172 q 332 -372 396 -319 q 276 -344 290 -375 l 354 -226 z "},"ņ":{"ha":768,"x_min":29,"x_max":726,"o":"m 244 550 l 256 539 q 521 757 378 688 q 658 697 606 750 q 726 578 711 643 l 672 435 q 650 10 653 218 q 554 4 601 -6 q 476 44 507 14 q 568 558 504 243 q 511 635 560 611 q 261 429 392 579 q 200 10 242 254 q 99 3 149 -6 q 29 43 49 13 q 154 507 108 292 l 121 711 q 292 761 193 776 q 285 618 303 722 l 244 550 m 299 -226 l 268 -54 q 374 -33 325 -15 q 440 -101 422 -51 q 387 -246 433 -172 q 276 -372 340 -319 q 221 -344 238 -375 l 299 -226 z "},"Ň":{"ha":926,"x_min":10,"x_max":974,"o":"m 782 986 q 895 1026 850 1026 q 974 1011 940 1026 l 861 575 q 830 319 854 511 q 793 10 806 126 q 696 3 746 -4 q 614 39 646 11 q 318 839 447 376 l 256 574 q 224 301 249 493 q 190 10 200 108 q 86 4 143 -7 q 10 50 29 15 q 160 703 107 399 l 178 986 q 308 1026 250 1026 q 372 1010 339 1026 q 583 340 468 651 l 661 199 q 764 701 740 549 l 782 986 m 843 1292 l 654 1113 q 515 1118 567 1085 l 410 1299 q 483 1324 433 1340 l 571 1167 l 722 1331 q 794 1335 756 1344 q 843 1292 832 1326 z "},"ň":{"ha":768,"x_min":29,"x_max":726,"o":"m 244 550 l 256 539 q 521 757 378 688 q 658 697 606 750 q 726 578 711 643 l 672 435 q 650 10 653 218 q 554 4 601 -6 q 476 44 507 14 q 568 558 504 243 q 511 635 560 611 q 261 429 392 579 q 200 10 242 254 q 99 3 149 -6 q 29 43 49 13 q 154 507 108 292 l 121 711 q 292 761 193 776 q 285 618 303 722 l 244 550 m 693 1015 l 504 836 q 365 842 417 808 l 260 1022 q 333 1047 283 1064 l 421 890 l 572 1054 q 644 1059 606 1068 q 693 1015 682 1050 z "},"Ō":{"ha":882,"x_min":11,"x_max":863,"o":"m 221 443 q 267 238 221 336 q 399 89 314 140 q 601 265 525 164 q 721 504 676 367 q 667 757 704 650 q 554 943 629 864 q 313 730 404 867 q 221 443 221 593 m 564 1031 q 698 956 629 1031 q 813 760 767 881 q 861 532 860 640 q 785 299 863 424 q 598 87 708 174 q 404 0 488 0 q 242 69 321 0 q 117 236 164 138 q 142 711 11 458 q 330 942 214 854 q 564 1031 446 1031 m 801 1235 q 813 1201 819 1226 q 779 1143 807 1175 l 354 1132 q 369 1219 326 1163 l 593 1213 l 801 1235 z "},"ō":{"ha":722,"x_min":39,"x_max":685,"o":"m 442 933 l 650 956 q 662 922 668 947 q 628 864 656 896 l 203 853 q 218 940 175 883 l 442 933 m 39 325 q 97 519 39 414 q 248 699 156 625 q 423 774 340 774 q 592 646 506 774 q 682 415 679 518 q 550 142 685 283 q 289 0 415 0 q 123 99 207 0 q 39 325 39 199 m 410 683 q 176 342 215 563 q 294 83 182 181 q 468 212 407 136 q 553 400 529 288 q 410 683 529 569 z "},"Ő":{"ha":882,"x_min":11,"x_max":863,"o":"m 221 443 q 267 238 221 336 q 399 89 314 140 q 601 265 525 164 q 721 504 676 367 q 667 757 704 650 q 554 943 629 864 q 313 730 404 867 q 221 443 221 593 m 564 1031 q 698 956 629 1031 q 813 760 767 881 q 861 532 860 640 q 785 299 863 424 q 598 87 708 174 q 404 0 488 0 q 242 69 321 0 q 117 236 164 138 q 142 711 11 458 q 330 942 214 854 q 564 1031 446 1031 m 631 1114 l 738 1336 q 860 1336 819 1360 l 821 1257 l 700 1101 q 631 1114 657 1097 m 535 1336 q 603 1346 568 1346 q 656 1336 639 1346 l 617 1257 l 499 1101 q 425 1114 453 1097 l 535 1336 z "},"ő":{"ha":722,"x_min":39,"x_max":710,"o":"m 385 1057 q 453 1067 418 1067 q 506 1057 489 1067 l 467 978 l 349 822 q 275 835 303 818 l 385 1057 m 481 835 l 588 1057 q 710 1057 669 1081 l 671 978 l 550 822 q 481 835 507 818 m 39 325 q 97 519 39 414 q 248 699 156 625 q 423 774 340 774 q 592 646 506 774 q 682 415 679 518 q 550 142 685 283 q 289 0 415 0 q 123 99 207 0 q 39 325 39 199 m 410 683 q 176 342 215 563 q 294 83 182 181 q 468 212 407 136 q 553 400 529 288 q 410 683 529 569 z "},"Œ":{"ha":1263,"x_min":71,"x_max":1289,"o":"m 222 443 q 269 237 221 333 q 408 89 317 140 q 618 276 540 160 q 718 532 696 392 q 678 767 710 681 q 557 943 647 854 q 315 729 408 865 q 222 443 222 593 m 833 550 l 1138 579 q 1152 519 1156 557 q 1128 447 1149 482 q 825 460 946 461 l 743 117 q 1138 179 889 129 q 1175 119 1178 165 q 1147 39 1175 78 l 728 0 q 597 96 636 26 q 409 0 494 0 q 244 69 324 0 q 119 235 165 138 q 72 421 72 333 q 144 711 71 568 q 333 942 217 854 q 567 1031 449 1031 q 736 926 638 1031 q 933 1003 824 986 q 1257 1017 1043 1019 q 1272 924 1289 979 q 1207 835 1256 869 l 1108 907 q 865 893 976 922 l 819 825 l 833 550 z "},"œ":{"ha":1203,"x_min":39,"x_max":1158,"o":"m 588 185 q 443 52 525 104 q 284 0 361 0 q 123 99 207 0 q 39 325 39 199 q 97 519 39 414 q 248 699 156 625 q 428 774 340 774 q 534 717 476 774 q 633 579 592 660 q 939 768 785 735 q 1110 653 1061 740 q 1139 444 1158 565 q 688 290 913 335 q 828 100 704 157 q 1081 225 1004 153 q 1126 209 1114 225 q 1133 153 1138 193 q 990 58 1089 106 q 811 0 890 10 q 588 185 651 60 m 294 83 q 468 212 407 136 q 553 400 529 288 q 410 683 529 569 q 176 342 215 563 q 294 83 182 181 m 685 372 l 685 365 q 1001 479 869 414 q 985 597 1004 551 q 913 675 965 643 l 892 669 q 746 535 806 621 q 685 372 686 450 z "},"Ŕ":{"ha":844,"x_min":79,"x_max":801,"o":"m 174 914 q 156 965 156 939 q 174 1001 156 990 q 421 1032 283 1032 q 701 955 601 1032 q 801 772 801 878 q 745 597 800 667 q 565 460 690 526 q 396 444 451 446 q 519 256 444 324 q 733 138 593 188 q 726 58 754 97 q 638 0 697 18 q 333 442 381 149 l 311 440 q 260 13 293 247 q 165 3 226 -6 q 79 43 104 13 q 215 658 147 272 l 243 915 l 174 914 m 322 588 l 317 513 q 529 547 421 517 q 620 642 593 594 q 647 765 647 690 q 586 889 647 840 q 401 932 525 938 l 322 588 m 744 1318 l 508 1094 q 447 1128 450 1094 l 538 1258 l 579 1375 q 686 1369 636 1388 q 744 1318 736 1351 z "},"ŕ":{"ha":600,"x_min":35,"x_max":628,"o":"m 250 550 l 264 538 q 458 757 383 675 q 567 693 525 746 q 610 564 608 640 q 451 539 528 497 q 425 621 454 601 q 269 444 333 519 q 206 10 240 206 q 104 3 154 -6 q 35 43 54 13 q 160 507 119 311 l 126 711 q 297 761 197 776 q 290 618 308 724 l 250 550 m 628 1042 l 392 818 q 331 851 333 818 l 421 982 l 463 1099 q 569 1093 519 1111 q 628 1042 619 1075 z "},"Ŗ":{"ha":844,"x_min":79,"x_max":801,"o":"m 174 914 q 156 965 156 939 q 174 1001 156 990 q 421 1032 283 1032 q 701 955 601 1032 q 801 772 801 878 q 745 597 800 667 q 565 460 690 526 q 396 444 451 446 q 519 256 444 324 q 733 138 593 188 q 726 58 754 97 q 638 0 697 18 q 333 442 381 149 l 311 440 q 260 13 293 247 q 165 3 226 -6 q 79 43 104 13 q 215 658 147 272 l 243 915 l 174 914 m 322 588 l 317 513 q 529 547 421 517 q 620 642 593 594 q 647 765 647 690 q 586 889 647 840 q 401 932 525 938 l 322 588 m 346 -226 l 317 -54 q 422 -33 374 -15 q 489 -101 469 -51 q 435 -245 482 -172 q 325 -372 389 -318 q 268 -344 285 -375 l 346 -226 z "},"ŗ":{"ha":600,"x_min":-14,"x_max":610,"o":"m 250 550 l 264 538 q 458 757 383 675 q 567 693 525 746 q 610 564 608 640 q 451 539 528 497 q 425 621 454 601 q 269 444 333 519 q 206 10 240 206 q 104 3 154 -6 q 35 43 54 13 q 160 507 119 311 l 126 711 q 297 761 197 776 q 290 618 308 724 l 250 550 m 64 -226 l 33 -54 q 139 -33 90 -15 q 206 -101 188 -51 q 152 -246 199 -172 q 42 -372 106 -319 q -14 -344 0 -375 l 64 -226 z "},"Ř":{"ha":844,"x_min":79,"x_max":801,"o":"m 174 914 q 156 965 156 939 q 174 1001 156 990 q 421 1032 283 1032 q 701 955 601 1032 q 801 772 801 878 q 745 597 800 667 q 565 460 690 526 q 396 444 451 446 q 519 256 444 324 q 733 138 593 188 q 726 58 754 97 q 638 0 697 18 q 333 442 381 149 l 311 440 q 260 13 293 247 q 165 3 226 -6 q 79 43 104 13 q 215 658 147 272 l 243 915 l 174 914 m 322 588 l 317 513 q 529 547 421 517 q 620 642 593 594 q 647 765 647 690 q 586 889 647 840 q 401 932 525 938 l 322 588 m 719 1292 l 531 1113 q 392 1118 443 1085 l 286 1299 q 360 1324 310 1340 l 447 1167 l 599 1331 q 670 1335 632 1344 q 719 1292 708 1326 z "},"ř":{"ha":600,"x_min":35,"x_max":610,"o":"m 250 550 l 264 538 q 458 757 383 675 q 567 693 525 746 q 610 564 608 640 q 451 539 528 497 q 425 621 454 601 q 269 444 333 519 q 206 10 240 206 q 104 3 154 -6 q 35 43 54 13 q 160 507 119 311 l 126 711 q 297 761 197 776 q 290 618 308 724 l 250 550 m 603 1015 l 414 836 q 275 842 326 808 l 169 1022 q 243 1047 193 1064 l 331 890 l 482 1054 q 553 1059 515 1068 q 603 1015 592 1050 z "},"Ś":{"ha":831,"x_min":28,"x_max":821,"o":"m 621 314 q 572 379 621 344 q 453 451 524 414 q 310 530 382 488 q 183 633 239 572 q 118 758 128 693 q 285 950 167 872 q 531 1039 403 1028 q 797 822 714 983 q 654 749 779 731 q 598 871 629 826 q 521 951 567 915 q 353 870 436 931 q 271 763 269 810 q 317 692 272 729 q 429 617 363 656 q 565 538 496 579 q 695 443 635 497 q 779 332 756 389 q 651 117 758 204 q 356 0 543 29 q 147 110 243 31 q 28 267 50 190 q 95 338 60 319 q 186 338 131 356 q 251 197 214 247 q 368 89 288 146 q 549 177 478 115 q 621 314 621 239 m 656 1375 q 763 1369 713 1388 q 821 1318 813 1351 l 585 1094 q 524 1128 526 1094 l 614 1258 l 656 1375 z "},"ś":{"ha":683,"x_min":26,"x_max":694,"o":"m 465 232 q 296 350 465 275 q 169 426 231 378 q 92 526 107 475 q 215 700 117 631 q 433 778 313 769 q 622 593 583 731 q 583 546 618 561 q 483 542 547 531 q 417 703 475 631 q 291 635 349 683 q 233 559 233 588 q 286 499 233 531 q 405 436 339 467 q 533 354 471 406 q 610 246 596 303 q 491 70 583 135 q 257 0 399 6 q 109 76 175 19 q 26 196 43 133 q 85 263 54 244 q 163 269 117 282 q 268 72 186 143 q 412 138 358 90 q 465 232 465 185 m 529 1099 q 636 1093 586 1111 q 694 1042 686 1075 l 458 818 q 397 851 400 818 l 488 982 l 529 1099 z "},"Ş":{"ha":831,"x_min":28,"x_max":797,"o":"m 621 314 q 572 379 621 344 q 453 451 524 414 q 310 530 382 488 q 183 633 239 572 q 118 758 128 693 q 285 950 167 872 q 531 1039 403 1028 q 797 822 714 983 q 654 749 779 731 q 598 871 629 826 q 521 951 567 915 q 353 870 436 931 q 271 763 269 810 q 317 692 272 729 q 429 617 363 656 q 565 538 496 579 q 695 443 635 497 q 779 332 756 389 q 671 135 761 218 q 426 14 581 51 l 363 -108 q 459 -68 407 -68 q 539 -106 511 -68 q 555 -208 567 -143 q 487 -312 543 -272 q 356 -351 431 -351 q 219 -322 282 -350 q 121 -244 157 -293 q 154 -187 124 -190 q 322 -268 232 -268 q 426 -201 411 -268 q 414 -142 433 -168 q 328 -181 371 -147 q 257 -137 268 -181 l 326 8 q 135 120 222 44 q 28 267 49 196 q 95 338 60 319 q 186 338 131 356 q 251 197 214 247 q 368 89 288 146 q 549 177 478 115 q 621 314 621 239 z "},"ş":{"ha":683,"x_min":26,"x_max":622,"o":"m 465 232 q 296 350 465 275 q 169 426 231 378 q 92 526 107 475 q 215 700 117 631 q 433 778 313 769 q 622 593 583 731 q 583 546 618 561 q 483 542 547 531 q 417 703 475 631 q 291 635 349 683 q 233 559 233 588 q 286 499 233 531 q 405 436 339 467 q 533 354 471 406 q 610 246 596 303 q 516 89 588 150 q 335 8 444 28 l 274 -108 q 370 -68 318 -68 q 450 -106 422 -68 q 466 -208 478 -143 q 398 -312 454 -272 q 267 -351 342 -351 q 131 -322 193 -350 q 32 -244 68 -293 q 65 -187 35 -190 q 233 -268 143 -268 q 338 -201 322 -268 q 325 -142 344 -168 q 239 -181 282 -147 q 168 -137 179 -181 l 236 6 q 101 84 161 29 q 26 196 42 139 q 85 263 54 244 q 163 269 117 282 q 268 72 186 143 q 412 138 358 90 q 465 232 465 185 z "},"Š":{"ha":831,"x_min":28,"x_max":797,"o":"m 621 314 q 572 379 621 344 q 453 451 524 414 q 310 530 382 488 q 183 633 239 572 q 118 758 128 693 q 285 950 167 872 q 531 1039 403 1028 q 797 822 714 983 q 654 749 779 731 q 598 871 629 826 q 521 951 567 915 q 353 870 436 931 q 271 763 269 810 q 317 692 272 729 q 429 617 363 656 q 565 538 496 579 q 695 443 635 497 q 779 332 756 389 q 651 117 758 204 q 356 0 543 29 q 147 110 243 31 q 28 267 50 190 q 95 338 60 319 q 186 338 131 356 q 251 197 214 247 q 368 89 288 146 q 549 177 478 115 q 621 314 621 239 m 607 1113 q 468 1118 519 1085 l 363 1299 q 436 1324 386 1340 l 524 1167 l 675 1331 q 747 1335 708 1344 q 796 1292 785 1326 l 607 1113 z "},"š":{"ha":683,"x_min":26,"x_max":669,"o":"m 465 232 q 296 350 465 275 q 169 426 231 378 q 92 526 107 475 q 215 700 117 631 q 433 778 313 769 q 622 593 583 731 q 583 546 618 561 q 483 542 547 531 q 417 703 475 631 q 291 635 349 683 q 233 559 233 588 q 286 499 233 531 q 405 436 339 467 q 533 354 471 406 q 610 246 596 303 q 491 70 583 135 q 257 0 399 6 q 109 76 175 19 q 26 196 43 133 q 85 263 54 244 q 163 269 117 282 q 268 72 186 143 q 412 138 358 90 q 465 232 465 185 m 481 836 q 342 842 393 808 l 236 1022 q 310 1047 260 1064 l 397 890 l 549 1054 q 620 1059 582 1068 q 669 1015 658 1050 l 481 836 z "},"Ţ":{"ha":801,"x_min":99,"x_max":901,"o":"m 340 -108 q 437 -68 385 -68 q 517 -106 489 -68 q 533 -208 544 -143 q 465 -312 521 -272 q 334 -351 408 -351 q 197 -322 260 -350 q 99 -244 135 -293 q 132 -187 101 -190 q 299 -268 210 -268 q 404 -201 389 -268 q 392 -142 411 -168 q 306 -181 349 -147 q 235 -137 246 -181 l 306 11 q 256 49 269 25 q 404 714 353 397 l 411 913 l 160 890 q 143 999 111 944 q 885 1011 485 1024 q 897 965 901 996 q 864 899 893 933 l 576 921 l 493 564 q 436 10 483 449 q 397 1 417 3 l 340 -108 z "},"ţ":{"ha":586,"x_min":-10,"x_max":611,"o":"m 232 -108 q 328 -68 276 -68 q 408 -106 381 -68 q 424 -208 436 -143 q 356 -312 413 -272 q 226 -351 300 -351 q 89 -322 151 -350 q -10 -244 26 -293 q 24 -187 -7 -190 q 191 -268 101 -268 q 296 -201 281 -268 q 283 -142 303 -168 q 197 -181 240 -147 q 126 -137 138 -181 l 199 13 q 115 93 131 36 q 247 660 203 426 l 69 626 q 71 739 26 678 l 256 738 l 249 950 q 431 965 363 1021 l 365 754 l 590 797 q 611 752 611 782 q 589 686 611 722 l 351 678 q 289 110 350 665 q 478 204 399 144 q 526 189 515 206 q 533 136 536 172 q 294 11 440 57 l 232 -108 z "},"Ť":{"ha":801,"x_min":111,"x_max":901,"o":"m 411 913 l 160 890 q 143 999 111 944 q 885 1011 485 1024 q 897 965 901 996 q 864 899 893 933 l 576 921 l 493 564 q 436 10 483 449 q 333 4 390 -7 q 256 49 276 15 q 404 714 353 397 l 411 913 m 775 1292 l 586 1113 q 447 1118 499 1085 l 342 1299 q 415 1324 365 1340 l 503 1167 l 654 1331 q 726 1335 688 1344 q 775 1292 764 1326 z "},"ť":{"ha":586,"x_min":25,"x_max":685,"o":"m 590 744 q 611 699 611 729 q 589 633 611 669 l 347 625 l 346 625 q 317 353 338 533 q 289 110 296 174 q 478 204 399 144 q 526 189 515 206 q 533 136 536 172 q 403 55 482 93 q 250 0 325 17 q 115 93 136 17 q 236 606 193 390 l 69 575 q 71 686 25 625 l 253 685 l 257 710 l 249 950 q 431 965 363 1021 l 356 724 l 353 699 l 590 744 m 543 932 l 513 1104 q 618 1126 569 1143 q 685 1057 667 1108 q 631 913 678 986 q 521 786 585 840 q 465 814 481 786 l 543 932 z "},"Ū":{"ha":840,"x_min":68,"x_max":885,"o":"m 740 1232 q 752 1198 758 1224 q 718 1140 746 1172 l 293 1129 q 308 1217 265 1160 l 532 1210 l 740 1232 m 378 0 q 165 78 246 0 q 68 249 83 156 q 175 990 154 742 q 293 1029 247 1029 q 368 1014 339 1029 q 224 297 228 553 q 300 134 218 194 q 510 121 382 74 q 631 340 590 210 q 706 686 671 469 l 693 990 q 809 1029 763 1029 q 885 1014 856 1029 q 842 774 869 940 q 791 495 814 608 q 739 297 768 382 q 663 139 710 211 q 378 0 571 0 z "},"ū":{"ha":767,"x_min":38,"x_max":761,"o":"m 115 385 l 124 617 l 124 758 q 300 710 235 781 q 190 182 285 550 q 288 115 207 139 q 496 342 421 236 l 496 344 q 588 760 542 590 q 701 753 663 764 q 761 710 740 743 l 651 497 q 622 10 626 285 q 526 4 575 -6 q 446 44 478 14 l 513 215 l 496 229 q 293 0 415 124 q 38 150 75 28 l 115 385 m 639 864 l 214 853 q 229 940 186 883 l 453 933 l 661 956 q 673 922 679 947 q 639 864 667 896 z "},"Ů":{"ha":840,"x_min":68,"x_max":885,"o":"m 378 0 q 165 78 246 0 q 68 249 83 156 q 175 990 154 742 q 293 1029 247 1029 q 368 1014 339 1029 q 224 297 228 553 q 300 134 218 194 q 510 121 382 74 q 631 340 590 210 q 706 686 671 469 l 693 990 q 809 1029 763 1029 q 885 1014 856 1029 q 842 774 869 940 q 791 495 814 608 q 739 297 768 382 q 663 139 710 211 q 378 0 571 0 m 607 1342 q 571 1329 599 1342 q 532 1242 544 1290 q 563 1140 500 1140 q 601 1154 579 1140 q 639 1242 625 1186 q 607 1342 665 1342 m 427 1240 q 438 1272 427 1240 q 506 1347 449 1304 q 632 1390 564 1390 q 735 1349 700 1390 q 747 1244 769 1308 q 665 1137 724 1181 q 540 1093 607 1093 q 439 1135 472 1093 q 427 1240 406 1176 z "},"ů":{"ha":767,"x_min":38,"x_max":761,"o":"m 115 385 l 124 617 l 124 758 q 300 710 235 781 q 190 182 285 550 q 288 115 207 139 q 496 342 421 236 l 496 344 q 588 760 542 590 q 701 753 663 764 q 761 710 740 743 l 651 497 q 622 10 626 285 q 526 4 575 -6 q 446 44 478 14 l 513 215 l 496 229 q 293 0 415 124 q 38 150 75 28 l 115 385 m 667 968 q 656 936 667 968 q 586 860 644 904 q 460 817 528 817 q 360 858 393 817 q 348 964 326 900 q 427 1071 369 1028 q 553 1114 485 1114 q 656 1073 621 1114 q 667 968 690 1032 m 483 864 q 522 878 500 864 q 560 965 546 910 q 528 1065 586 1065 q 492 1053 519 1065 q 453 965 465 1014 q 483 864 421 864 z "},"Ű":{"ha":840,"x_min":68,"x_max":885,"o":"m 571 1111 l 678 1333 q 800 1333 760 1357 l 761 1254 l 640 1099 q 571 1111 597 1094 m 475 1333 q 544 1343 508 1343 q 596 1333 579 1343 l 557 1254 l 439 1099 q 365 1111 393 1094 l 475 1333 m 378 0 q 165 78 246 0 q 68 249 83 156 q 175 990 154 742 q 293 1029 247 1029 q 368 1014 339 1029 q 224 297 228 553 q 300 134 218 194 q 510 121 382 74 q 631 340 590 210 q 706 686 671 469 l 693 990 q 809 1029 763 1029 q 885 1014 856 1029 q 842 774 869 940 q 791 495 814 608 q 739 297 768 382 q 663 139 710 211 q 378 0 571 0 z "},"ű":{"ha":767,"x_min":38,"x_max":761,"o":"m 115 385 l 124 617 l 124 758 q 300 710 235 781 q 190 182 285 550 q 288 115 207 139 q 496 342 421 236 l 496 344 q 588 760 542 590 q 701 753 663 764 q 761 710 740 743 l 651 497 q 622 10 626 285 q 526 4 575 -6 q 446 44 478 14 l 513 215 l 496 229 q 293 0 415 124 q 38 150 75 28 l 115 385 m 394 1057 q 463 1067 428 1067 q 515 1057 499 1067 l 476 978 l 358 822 q 285 835 313 818 l 394 1057 m 681 978 l 560 822 q 490 835 517 818 l 597 1057 q 719 1057 679 1081 l 681 978 z "},"Ų":{"ha":840,"x_min":68,"x_max":885,"o":"m 693 990 q 809 1029 763 1029 q 885 1014 856 1029 q 842 774 869 940 q 792 501 814 608 q 744 313 769 393 q 678 163 718 232 q 442 4 599 26 q 330 -63 375 -18 q 275 -167 285 -108 q 392 -214 318 -214 q 532 -157 467 -214 q 576 -201 571 -157 q 374 -296 493 -296 q 227 -256 279 -296 q 175 -164 175 -217 q 296 10 175 -60 q 140 103 199 33 q 68 249 81 172 q 175 990 154 742 q 293 1029 247 1029 q 368 1014 339 1029 q 224 297 228 553 q 300 134 218 194 q 510 121 382 74 q 631 340 590 210 q 706 686 671 469 l 693 990 z "},"ų":{"ha":767,"x_min":38,"x_max":761,"o":"m 115 385 l 124 617 l 124 758 q 300 710 235 781 q 190 182 285 550 q 288 115 207 139 q 496 342 421 236 l 496 344 q 588 760 542 590 q 701 753 663 764 q 761 710 740 743 l 651 497 q 622 10 626 285 l 606 6 l 606 1 q 480 -67 529 -19 q 417 -183 431 -114 q 534 -208 467 -215 q 647 -157 601 -200 q 680 -167 669 -157 q 694 -201 690 -178 q 497 -296 618 -296 q 368 -259 417 -296 q 319 -170 319 -222 q 361 -64 319 -118 q 472 25 403 -10 q 446 44 463 31 l 513 215 l 496 229 q 293 0 415 124 q 38 150 75 28 l 115 385 z "},"Ÿ":{"ha":831,"x_min":151,"x_max":888,"o":"m 724 810 l 671 1000 q 888 992 808 1061 q 822 799 886 881 q 544 458 757 718 q 489 10 508 322 q 400 -1 458 -10 q 308 38 342 8 q 396 419 360 181 q 151 969 324 608 q 232 1024 183 1010 q 319 1018 281 1039 l 358 767 l 472 468 l 478 468 l 511 531 l 724 810 m 350 1266 q 362 1277 350 1266 q 407 1289 374 1289 q 464 1266 440 1289 q 488 1210 488 1243 q 464 1154 488 1178 q 407 1131 440 1131 q 350 1154 374 1131 q 326 1210 326 1178 q 350 1266 326 1243 m 644 1210 q 667 1233 644 1233 q 690 1210 690 1233 q 684 1193 690 1200 q 668 1186 678 1186 q 651 1193 658 1186 q 644 1210 644 1200 z "},"Ź":{"ha":853,"x_min":8,"x_max":876,"o":"m 169 68 l 163 63 l 174 32 q 38 1 136 -8 q 11 86 8 35 q 203 325 11 142 q 376 495 286 407 q 551 689 465 583 q 682 883 638 794 l 674 894 q 311 917 417 894 q 257 772 267 857 q 103 821 133 753 q 265 1029 146 981 q 478 990 346 1007 q 707 969 611 972 l 736 1039 q 833 1023 801 1038 q 876 971 864 1008 q 613 578 832 828 q 200 157 393 329 l 206 144 q 621 129 536 140 q 660 243 646 179 q 817 192 788 269 q 658 0 788 88 q 434 47 578 29 q 169 68 290 64 m 649 1375 q 756 1369 706 1388 q 814 1318 806 1351 l 578 1094 q 517 1128 519 1094 l 607 1258 l 649 1375 z "},"ź":{"ha":757,"x_min":22,"x_max":738,"o":"m 232 510 q 92 557 119 489 q 244 757 129 714 q 575 689 446 694 l 601 757 q 694 742 664 757 q 738 692 724 728 q 199 151 714 519 l 203 139 q 292 136 231 138 q 511 119 433 131 q 549 228 538 169 q 685 174 672 257 q 531 0 650 61 q 171 68 394 61 l 165 63 l 176 31 q 47 0 149 -7 q 24 81 22 38 q 63 168 25 125 q 163 257 101 211 q 292 351 225 303 q 432 467 360 400 q 549 603 504 535 l 542 615 q 279 649 425 615 q 232 510 239 592 m 547 1099 q 654 1093 604 1111 q 713 1042 704 1075 l 476 818 q 415 851 418 818 l 506 982 l 547 1099 z "},"Ż":{"ha":853,"x_min":8,"x_max":876,"o":"m 607 1157 q 595 1145 607 1157 q 550 1133 583 1133 q 493 1157 517 1133 q 469 1214 469 1181 q 492 1269 469 1247 q 549 1292 515 1292 q 607 1269 583 1292 q 631 1213 631 1246 q 607 1157 631 1181 m 169 68 l 163 63 l 174 32 q 38 1 136 -8 q 11 86 8 35 q 203 325 11 142 q 376 495 286 407 q 551 689 465 583 q 682 883 638 794 l 674 894 q 311 917 417 894 q 257 772 267 857 q 103 821 133 753 q 265 1029 146 981 q 478 990 346 1007 q 707 969 611 972 l 736 1039 q 833 1023 801 1038 q 876 971 864 1008 q 613 578 832 828 q 200 157 393 329 l 206 144 q 621 129 536 140 q 660 243 646 179 q 817 192 788 269 q 658 0 788 88 q 434 47 578 29 q 169 68 290 64 z "},"ż":{"ha":757,"x_min":22,"x_max":738,"o":"m 529 937 q 529 920 529 937 q 506 881 529 904 q 448 857 482 857 q 391 880 414 857 q 368 937 368 903 q 391 993 368 971 q 448 1015 414 1015 q 506 992 482 1015 q 529 937 529 969 m 232 510 q 92 557 119 489 q 244 757 129 714 q 575 689 446 694 l 601 757 q 694 742 664 757 q 738 692 724 728 q 199 151 714 519 l 203 139 q 292 136 231 138 q 511 119 433 131 q 549 228 538 169 q 685 174 672 257 q 531 0 650 61 q 171 68 394 61 l 165 63 l 176 31 q 47 0 149 -7 q 24 81 22 38 q 63 168 25 125 q 163 257 101 211 q 292 351 225 303 q 432 467 360 400 q 549 603 504 535 l 542 615 q 279 649 425 615 q 232 510 239 592 z "},"Ž":{"ha":853,"x_min":8,"x_max":876,"o":"m 169 68 l 163 63 l 174 32 q 38 1 136 -8 q 11 86 8 35 q 203 325 11 142 q 376 495 286 407 q 551 689 465 583 q 682 883 638 794 l 674 894 q 311 917 417 894 q 257 772 267 857 q 103 821 133 753 q 265 1029 146 981 q 478 990 346 1007 q 707 969 611 972 l 736 1039 q 833 1023 801 1038 q 876 971 864 1008 q 613 578 832 828 q 200 157 393 329 l 206 144 q 621 129 536 140 q 660 243 646 179 q 817 192 788 269 q 658 0 788 88 q 434 47 578 29 q 169 68 290 64 m 600 1113 q 461 1118 513 1085 l 356 1299 q 429 1324 379 1340 l 517 1167 l 668 1331 q 740 1335 701 1344 q 789 1292 778 1326 l 600 1113 z "},"ž":{"ha":757,"x_min":22,"x_max":738,"o":"m 232 510 q 92 557 119 489 q 244 757 129 714 q 575 689 446 694 l 601 757 q 694 742 664 757 q 738 692 724 728 q 199 151 714 519 l 203 139 q 292 136 231 138 q 511 119 433 131 q 549 228 538 169 q 685 174 672 257 q 531 0 650 61 q 171 68 394 61 l 165 63 l 176 31 q 47 0 149 -7 q 24 81 22 38 q 63 168 25 125 q 163 257 101 211 q 292 351 225 303 q 432 467 360 400 q 549 603 504 535 l 542 615 q 279 649 425 615 q 232 510 239 592 m 499 836 q 360 842 411 808 l 254 1022 q 328 1047 278 1064 l 415 890 l 567 1054 q 638 1059 600 1068 q 688 1015 676 1050 l 499 836 z "},"ƒ":{"ha":707,"x_min":-19,"x_max":786,"o":"m 668 611 q 689 567 689 597 q 667 501 689 536 l 419 489 q 299 -250 379 136 q 113 -289 232 -319 l -19 -58 q 50 -17 -3 -4 l 169 -179 q 318 472 263 97 l 124 436 q 126 547 81 489 l 326 540 l 329 561 l 313 992 q 579 1156 438 1139 q 721 1079 668 1139 q 786 940 774 1019 q 717 896 763 908 q 633 899 672 883 q 613 992 631 958 q 556 1063 596 1026 q 451 1007 503 1053 q 428 561 456 822 l 668 611 z "},"Ș":{"ha":831,"x_min":28,"x_max":797,"o":"m 621 314 q 572 379 621 344 q 453 451 524 414 q 310 530 382 488 q 183 633 239 572 q 118 758 128 693 q 285 950 167 872 q 531 1039 403 1028 q 797 822 714 983 q 654 749 779 731 q 598 871 629 826 q 521 951 567 915 q 353 870 436 931 q 271 763 269 810 q 317 692 272 729 q 429 617 363 656 q 565 538 496 579 q 695 443 635 497 q 779 332 756 389 q 651 117 758 204 q 356 0 543 29 q 147 110 243 31 q 28 267 50 190 q 95 338 60 319 q 186 338 131 356 q 251 197 214 247 q 368 89 288 146 q 549 177 478 115 q 621 314 621 239 m 289 -372 q 233 -344 247 -375 l 310 -226 l 281 -54 q 385 -33 338 -15 q 453 -101 433 -51 q 399 -245 446 -172 q 289 -372 353 -318 z "},"ș":{"ha":683,"x_min":26,"x_max":622,"o":"m 465 232 q 296 350 465 275 q 169 426 231 378 q 92 526 107 475 q 215 700 117 631 q 433 778 313 769 q 622 593 583 731 q 583 546 618 561 q 483 542 547 531 q 417 703 475 631 q 291 635 349 683 q 233 559 233 588 q 286 499 233 531 q 405 436 339 467 q 533 354 471 406 q 610 246 596 303 q 491 70 583 135 q 257 0 399 6 q 109 76 175 19 q 26 196 43 133 q 85 263 54 244 q 163 269 117 282 q 268 72 186 143 q 412 138 358 90 q 465 232 465 185 m 194 -372 q 139 -344 153 -375 l 217 -226 l 186 -54 q 291 -33 243 -15 q 358 -101 339 -51 q 305 -245 351 -172 q 194 -372 258 -318 z "},"Ț":{"ha":801,"x_min":111,"x_max":901,"o":"m 411 913 l 160 890 q 143 999 111 944 q 885 1011 485 1024 q 897 965 901 996 q 864 899 893 933 l 576 921 l 493 564 q 436 10 483 449 q 333 4 390 -7 q 256 49 276 15 q 404 714 353 397 l 411 913 m 272 -226 l 242 -54 q 347 -33 299 -15 q 414 -101 396 -51 q 360 -246 407 -172 q 250 -372 314 -319 q 194 -344 211 -375 l 272 -226 z "},"ț":{"ha":586,"x_min":26,"x_max":611,"o":"m 590 797 q 611 752 611 782 q 589 686 611 722 l 351 678 q 289 110 350 665 q 478 204 399 144 q 526 189 515 206 q 533 136 536 172 q 403 55 482 93 q 250 0 325 17 q 115 93 136 17 q 247 660 203 426 l 69 626 q 71 739 26 678 l 256 738 l 249 950 q 431 965 363 1021 l 365 754 l 590 797 m 194 -226 l 164 -54 q 269 -33 221 -15 q 336 -101 318 -51 q 284 -245 331 -172 q 174 -372 238 -318 q 117 -344 133 -375 l 194 -226 z "},"ʼ":{"ha":442,"x_min":219,"x_max":464,"o":"m 282 886 q 219 917 235 886 l 306 1050 l 272 1242 q 390 1266 336 1286 q 464 1189 443 1246 q 404 1028 456 1110 q 282 886 353 946 z "},"ˆ":{"ha":497,"x_min":103,"x_max":561,"o":"m 103 869 l 321 1071 q 457 1054 406 1089 l 561 850 q 511 825 540 831 q 424 836 463 815 l 350 992 l 163 828 q 103 869 107 831 z "},"ˇ":{"ha":471,"x_min":133,"x_max":567,"o":"m 378 836 q 239 842 290 808 l 133 1022 q 207 1047 157 1064 l 294 890 l 446 1054 q 517 1059 479 1068 q 567 1015 556 1050 l 378 836 z "},"ˉ":{"ha":496,"x_min":89,"x_max":582,"o":"m 564 956 q 576 922 582 947 q 542 864 569 896 l 117 853 q 132 940 89 883 l 356 933 l 564 956 z "},"˘":{"ha":442,"x_min":132,"x_max":533,"o":"m 533 992 q 464 881 518 924 q 337 838 410 838 q 208 883 264 838 q 132 1014 153 929 q 188 1031 151 1033 q 289 924 215 943 q 404 1031 390 939 q 533 992 501 1054 z "},"˙":{"ha":200,"x_min":119,"x_max":281,"o":"m 257 881 q 245 869 257 881 q 200 857 233 857 q 143 880 167 857 q 119 937 119 903 q 142 993 119 971 q 199 1015 165 1015 q 257 992 233 1015 q 281 937 281 969 q 257 881 281 904 z "},"˚":{"ha":354,"x_min":100,"x_max":464,"o":"m 301 1065 q 265 1053 293 1065 q 226 965 239 1014 q 257 864 194 864 q 296 878 274 864 q 333 965 319 910 q 301 1065 360 1065 m 122 964 q 132 996 122 964 q 201 1071 143 1028 q 326 1114 258 1114 q 429 1073 394 1114 q 441 968 464 1032 q 360 860 418 904 q 234 817 301 817 q 133 858 167 817 q 122 964 100 900 z "},"˛":{"ha":461,"x_min":-83,"x_max":342,"o":"m 54 -160 q 162 -208 81 -208 q 303 -157 243 -208 q 342 -201 336 -160 q 133 -296 251 -296 q -22 -251 40 -296 q -72 -136 -83 -206 q 151 25 -53 -11 q 210 -18 215 22 q 103 -67 146 -29 q 54 -160 61 -106 z "},"˜":{"ha":549,"x_min":101,"x_max":638,"o":"m 285 1024 q 469 910 418 978 l 475 908 l 561 1013 q 615 1005 593 1019 q 632 965 638 990 q 458 822 579 879 q 264 933 317 860 l 256 931 l 178 826 q 124 839 147 824 q 103 876 101 854 q 147 932 128 910 q 203 981 167 954 q 285 1024 240 1007 z "},"˝":{"ha":432,"x_min":100,"x_max":535,"o":"m 306 835 l 413 1057 q 535 1057 494 1081 l 496 978 l 375 822 q 306 835 332 818 m 210 1057 q 278 1067 243 1067 q 331 1057 314 1067 l 292 978 l 174 822 q 100 835 128 818 l 210 1057 z "},"π":{"ha":1129,"x_min":46,"x_max":1126,"o":"m 865 690 l 1022 825 q 1126 735 1113 813 q 1024 652 1083 682 q 883 601 965 622 q 807 76 803 358 q 935 135 861 93 q 975 13 1014 114 q 707 -25 881 -37 q 774 604 661 246 q 556 638 669 613 q 382 21 490 244 q 217 -28 328 -33 q 108 54 138 17 q 46 171 78 92 q 102 228 78 215 q 171 228 126 242 q 203 128 186 164 q 258 54 219 92 q 270 58 263 56 q 282 61 278 60 q 378 333 329 151 q 450 665 428 514 q 336 707 379 688 l 329 706 l 201 614 q 153 654 150 622 q 339 824 206 747 q 854 686 628 701 l 865 690 z "},"ँ":{"ha":0,"x_min":-260,"x_max":275,"o":"m 275 1101 q 148 993 233 1038 q -10 949 63 949 q -160 1030 -82 949 q -260 1206 -237 1111 q -129 1258 -204 1289 q -94 1119 -126 1183 q -12 1017 -62 1056 q 182 1161 115 1035 q 275 1101 251 1178 m 85 1112 q 75 1101 85 1112 q 33 1090 64 1090 q -19 1112 3 1090 q -42 1164 -42 1133 q -19 1216 -42 1194 q 33 1238 3 1238 q 85 1215 64 1238 q 107 1163 107 1193 q 85 1112 107 1133 z "},"ं":{"ha":0,"x_min":-78,"x_max":81,"o":"m 81 1062 q 81 1045 81 1062 q 58 1006 81 1029 q 2 982 35 982 q -54 1005 -31 982 q -78 1061 -78 1028 q -55 1117 -78 1094 q 1 1140 -32 1140 q 58 1117 35 1140 q 81 1062 81 1094 z "},"ः":{"ha":331,"x_min":49,"x_max":289,"o":"m 229 135 q 229 116 229 135 q 203 71 229 97 q 140 44 178 44 q 75 71 101 44 q 49 135 49 97 q 75 198 49 172 q 140 224 101 224 q 203 198 178 224 q 229 135 229 172 m 289 593 q 289 574 289 593 q 263 529 289 556 q 199 503 236 503 q 134 529 161 503 q 107 593 107 556 q 133 657 107 631 q 199 683 160 683 q 263 657 238 683 q 289 593 289 631 z "},"अ":{"ha":997,"x_min":-7,"x_max":1211,"o":"m 396 407 q 317 432 365 425 q 257 426 278 429 q 213 485 224 447 q 218 553 201 522 q 294 569 244 558 q 485 779 464 642 l 479 786 q 249 694 363 803 q 185 735 208 706 q 171 790 161 764 q 475 897 311 904 q 613 764 588 872 q 358 513 574 588 l 361 506 q 503 458 439 496 q 815 622 674 544 l 854 793 l 707 793 l 689 811 q 726 863 703 847 l 871 863 l 881 904 q 1038 863 999 910 l 1194 863 l 1211 846 q 1175 793 1201 810 l 1015 793 l 926 606 l 847 7 q 757 5 801 -6 q 681 44 713 15 l 781 476 l 829 535 l 819 549 q 561 410 656 458 q 593 335 593 371 q 518 190 593 261 q 347 77 443 118 q 179 38 251 36 q 53 86 113 43 q -7 168 -7 129 q 13 210 -7 193 q 47 239 32 228 q 87 264 61 250 q 134 289 113 278 q 192 316 156 300 q 253 344 228 332 q 396 407 324 376 m 201 125 q 361 191 265 131 q 464 315 457 251 q 451 351 461 333 q 139 171 161 199 q 160 140 140 154 q 201 125 181 126 z "},"आ":{"ha":1319,"x_min":-7,"x_max":1533,"o":"m 396 407 q 317 432 365 425 q 257 426 278 429 q 213 485 224 447 q 218 553 201 522 q 294 569 244 558 q 485 779 464 642 l 479 786 q 249 694 363 803 q 185 735 208 706 q 171 790 161 764 q 475 897 311 904 q 613 764 588 872 q 358 513 574 588 l 361 506 q 503 458 439 496 q 815 622 674 544 l 854 793 l 707 793 l 689 811 q 726 863 703 847 l 871 863 l 881 904 q 1038 863 999 910 l 1193 863 l 1203 904 q 1308 898 1272 907 q 1364 863 1344 889 l 1517 863 l 1533 846 q 1497 793 1524 810 l 1336 793 l 1249 606 l 1169 7 q 1081 5 1125 -6 q 1004 44 1036 15 l 1178 793 l 1015 793 l 926 606 l 847 7 q 757 5 801 -6 q 681 44 713 15 l 781 476 l 829 535 l 819 549 q 561 410 656 458 q 593 335 593 371 q 518 190 593 261 q 347 77 443 118 q 179 38 251 36 q 53 86 113 43 q -7 168 -7 129 q 13 210 -7 193 q 47 239 32 228 q 87 264 61 250 q 134 289 113 278 q 192 316 156 300 q 253 344 228 332 q 396 407 324 376 m 201 125 q 361 191 265 131 q 464 315 457 251 q 451 351 461 333 q 139 171 161 199 q 160 140 140 154 q 201 125 181 126 z "},"इ":{"ha":644,"x_min":-1,"x_max":858,"o":"m 842 863 l 858 846 q 822 793 849 810 l 478 793 q 568 714 531 761 q 560 650 572 686 q 524 593 547 614 q 347 531 475 567 q 214 492 219 494 l 210 475 q 369 414 235 453 q 550 343 504 375 q 568 239 592 306 q 460 122 556 181 q 281 61 364 63 q 146 126 239 65 l 139 119 q 245 -6 188 72 q 340 -154 303 -85 q 309 -198 340 -179 q 232 -218 278 -217 q -1 146 115 28 q 59 229 24 200 q 133 250 94 258 q 201 194 161 221 q 274 164 242 168 q 378 201 322 165 q 456 272 433 238 l 456 283 q 287 349 429 310 q 86 433 144 389 q 94 517 76 471 q 150 588 113 564 q 239 611 165 592 q 458 683 408 656 l 460 690 q 324 793 417 747 l 19 793 l 0 811 q 38 863 14 846 l 842 863 z "},"ई":{"ha":644,"x_min":-1,"x_max":858,"o":"m 842 863 l 858 846 q 822 793 849 810 l 478 793 q 568 714 531 761 q 560 650 572 686 q 524 593 547 614 q 347 531 475 567 q 214 492 219 494 l 210 475 q 369 414 235 453 q 550 343 504 375 q 568 239 592 306 q 460 122 556 181 q 281 61 364 63 q 146 126 239 65 l 139 119 q 245 -6 188 72 q 340 -154 303 -85 q 309 -198 340 -179 q 232 -218 278 -217 q -1 146 115 28 q 59 229 24 200 q 133 250 94 258 q 201 194 161 221 q 274 164 242 168 q 378 201 322 165 q 456 272 433 238 l 456 283 q 287 349 429 310 q 86 433 144 389 q 94 517 76 471 q 150 588 113 564 q 239 611 165 592 q 458 683 408 656 l 460 690 q 324 793 417 747 l 19 793 l 0 811 q 38 863 14 846 l 842 863 m 388 1183 l 371 1171 q 432 935 375 1071 q 371 906 422 906 q 236 1138 319 1018 q 399 1288 296 1271 q 597 1192 526 1272 q 582 1135 604 1160 q 510 1097 560 1110 q 388 1183 460 1164 z "},"उ":{"ha":726,"x_min":-44,"x_max":940,"o":"m 643 329 q 529 138 643 238 q 315 39 415 39 q 139 139 225 50 q 11 335 53 228 q 65 397 32 379 q 131 399 97 414 q 215 221 154 306 q 326 126 275 136 q 447 197 378 133 q 517 311 515 261 q 489 353 517 333 q 419 383 461 372 q 332 381 369 386 q 285 438 297 400 q 290 506 274 475 q 365 522 304 508 q 553 744 538 596 l 547 753 q 322 658 428 768 q 259 697 282 669 q 244 753 236 725 q 300 793 267 772 l -25 793 l -44 811 q -6 863 -31 846 l 924 863 l 940 846 q 904 793 931 810 l 651 793 q 678 732 669 768 q 606 585 665 644 q 438 474 547 525 l 442 465 q 585 417 526 460 q 643 329 643 374 z "},"ऊ":{"ha":903,"x_min":-44,"x_max":1118,"o":"m 628 329 q 514 138 628 238 q 300 39 400 39 q 125 139 211 50 q -4 335 39 228 q 51 397 18 379 q 115 399 83 414 q 200 221 139 306 q 313 126 261 136 q 431 197 363 133 q 503 311 500 261 q 418 381 501 354 q 317 381 358 386 q 270 438 282 400 q 275 506 258 475 q 351 522 294 508 q 538 744 522 596 l 532 753 q 307 658 415 768 q 244 697 268 669 q 231 753 221 725 q 285 793 249 768 l -25 793 l -44 811 q -6 863 -31 846 l 1101 863 l 1118 846 q 1082 793 1108 810 l 638 793 q 664 733 656 767 q 558 593 653 649 l 563 588 l 661 628 q 800 555 747 601 q 892 432 853 508 q 728 160 868 281 q 662 191 683 169 q 644 240 640 213 q 792 426 754 317 q 647 546 754 504 q 429 465 549 525 l 433 457 q 571 412 514 451 q 628 329 628 372 z "},"ऋ":{"ha":1182,"x_min":-15,"x_max":1396,"o":"m 1115 135 q 1017 44 1088 88 q 888 0 947 0 q 777 45 829 0 q 725 136 725 90 q 803 321 725 213 q 969 494 881 429 l 815 492 q 636 346 660 367 l 592 7 q 501 5 546 -6 q 425 44 457 15 l 469 233 l 515 296 l 501 308 q 313 151 438 240 q 68 0 189 63 q 3 49 22 19 q 3 107 -15 78 q 482 389 272 203 q 263 563 397 479 l 211 485 q 74 582 81 506 q 141 653 96 624 q 221 683 186 683 q 533 438 318 683 l 546 450 l 525 482 l 599 793 l 19 793 l 0 811 q 38 863 14 846 l 615 863 l 625 904 q 782 863 743 910 l 1379 863 l 1396 846 q 1360 793 1386 810 l 760 793 l 669 606 l 647 438 q 744 521 706 483 q 717 565 725 540 q 781 631 739 606 q 860 654 824 657 q 878 567 893 621 q 1026 585 964 564 q 1097 465 1107 561 q 922 332 999 426 q 824 126 846 238 q 886 76 846 86 q 1043 197 967 92 q 1091 183 1071 201 q 1115 135 1111 164 z "},"ऌ":{"ha":1008,"x_min":6,"x_max":1150,"o":"m 489 458 l 450 374 l 463 364 q 736 624 597 464 q 814 611 774 625 q 867 793 879 706 l 25 793 l 6 811 q 43 863 19 846 l 1133 863 l 1150 846 q 1114 793 1140 810 l 963 793 q 882 568 971 688 q 940 468 925 526 q 874 356 917 410 q 800 273 832 301 q 706 194 768 244 q 624 128 643 144 q 654 84 632 106 q 699 51 676 63 q 847 171 786 83 q 912 149 892 171 q 924 93 932 126 q 823 7 892 47 q 701 -33 754 -33 q 578 19 647 -33 q 510 128 510 71 q 657 278 510 176 q 763 369 713 315 q 819 471 813 422 q 764 517 801 510 q 478 261 669 403 q 373 293 413 263 q 338 356 333 324 q 385 443 371 401 q 358 510 381 479 q 307 547 336 542 q 211 470 253 526 q 163 357 169 414 q 219 215 179 276 q 347 104 260 153 q 340 44 364 76 q 257 0 317 11 q 99 156 165 58 q 33 347 33 254 q 99 494 35 408 q 251 628 163 579 q 381 631 317 639 q 454 562 431 601 q 489 458 478 522 z "},"ऍ":{"ha":704,"x_min":0,"x_max":918,"o":"m 901 863 l 918 846 q 882 793 908 810 l 710 793 q 684 615 711 710 q 603 447 657 519 q 504 506 514 454 q 578 689 571 600 l 567 793 l 349 793 q 200 306 290 482 l 214 296 l 400 407 q 486 392 446 413 q 546 332 526 371 q 506 53 553 200 q 376 -186 460 -93 q 269 -112 278 -178 q 431 210 385 13 l 428 304 l 414 313 l 199 182 q 101 219 140 190 q 56 289 61 249 q 196 651 164 499 l 192 793 l 18 793 l 0 811 q 38 863 14 847 l 901 863 m 588 911 q 454 993 526 911 q 357 1168 382 1075 q 488 1221 413 1251 q 597 978 506 1050 q 781 1133 717 999 q 842 1127 814 1143 q 881 1076 869 1111 q 755 960 838 1010 q 588 911 672 911 z "},"ए":{"ha":704,"x_min":0,"x_max":918,"o":"m 901 863 l 918 846 q 882 793 908 810 l 710 793 q 684 615 711 710 q 603 447 657 519 q 504 506 514 454 q 578 689 571 600 l 567 793 l 349 793 q 200 306 290 482 l 214 296 l 400 407 q 486 392 446 413 q 546 332 526 371 q 506 53 553 200 q 376 -186 460 -93 q 269 -112 278 -178 q 431 210 385 13 l 428 304 l 414 313 l 199 182 q 101 219 140 190 q 56 289 61 249 q 196 651 164 499 l 192 793 l 18 793 l 0 811 q 38 863 14 847 l 901 863 z "},"ऐ":{"ha":704,"x_min":0,"x_max":918,"o":"m 901 863 l 918 846 q 882 793 908 810 l 710 793 q 684 615 711 710 q 603 447 657 519 q 504 506 514 454 q 578 689 571 600 l 567 793 l 349 793 q 200 306 290 482 l 214 296 l 400 407 q 486 392 446 413 q 546 332 526 371 q 506 53 553 200 q 376 -186 460 -93 q 269 -112 278 -178 q 431 210 385 13 l 428 304 l 414 313 l 199 182 q 101 219 140 190 q 56 289 61 249 q 196 651 164 499 l 192 793 l 18 793 l 0 811 q 38 863 14 847 l 901 863 m 425 1293 q 558 1178 483 1293 q 681 938 632 1063 q 624 911 674 911 q 467 1151 554 1060 l 399 1099 q 279 1222 271 1142 q 425 1293 343 1293 z "},"ऑ":{"ha":1319,"x_min":-7,"x_max":1583,"o":"m 1289 949 q 1157 1031 1229 949 q 1060 1206 1085 1113 q 1189 1258 1114 1290 q 1300 1017 1210 1086 q 1483 1171 1419 1035 q 1544 1165 1517 1181 q 1583 1114 1571 1149 q 1457 998 1540 1047 q 1289 949 1374 949 m 396 407 q 317 432 365 425 q 257 426 278 429 q 213 485 224 447 q 218 553 201 522 q 294 569 244 558 q 485 779 464 642 l 479 786 q 249 694 363 803 q 185 735 208 706 q 171 790 161 764 q 475 897 311 904 q 613 764 588 872 q 358 513 574 588 l 361 506 q 503 458 439 496 q 815 622 674 544 l 854 793 l 707 793 l 689 811 q 726 863 703 847 l 871 863 l 881 904 q 1038 863 999 910 l 1193 863 l 1203 904 q 1308 898 1272 907 q 1364 863 1344 889 l 1517 863 l 1533 846 q 1497 793 1524 810 l 1336 793 l 1249 606 l 1169 7 q 1081 5 1125 -6 q 1004 44 1036 15 l 1178 793 l 1015 793 l 926 606 l 847 7 q 757 5 801 -6 q 681 44 713 15 l 781 476 l 829 535 l 819 549 q 561 410 656 458 q 593 335 593 371 q 518 190 593 261 q 347 77 443 118 q 179 38 251 36 q 53 86 113 43 q -7 168 -7 129 q 13 210 -7 193 q 47 239 32 228 q 87 264 61 250 q 134 289 113 278 q 192 316 156 300 q 253 344 228 332 q 396 407 324 376 m 201 125 q 361 191 265 131 q 464 315 457 251 q 451 351 461 333 q 139 171 161 199 q 160 140 140 154 q 201 125 181 126 z "},"ओ":{"ha":1319,"x_min":-7,"x_max":1533,"o":"m 396 407 q 317 432 365 425 q 257 426 278 429 q 213 485 224 447 q 218 553 201 522 q 294 569 244 558 q 485 779 464 642 l 479 786 q 249 694 363 803 q 185 735 208 706 q 171 790 161 764 q 475 897 311 904 q 613 764 588 872 q 358 513 574 588 l 361 506 q 503 458 439 496 q 815 622 674 544 l 854 793 l 707 793 l 689 811 q 726 863 703 847 l 871 863 l 881 904 q 1038 863 999 910 l 1193 863 l 1203 904 q 1308 898 1272 907 q 1364 863 1344 889 l 1517 863 l 1533 846 q 1497 793 1524 810 l 1336 793 l 1249 606 l 1169 7 q 1081 5 1125 -6 q 1004 44 1036 15 l 1178 793 l 1015 793 l 926 606 l 847 7 q 757 5 801 -6 q 681 44 713 15 l 781 476 l 829 535 l 819 549 q 561 410 656 458 q 593 335 593 371 q 518 190 593 261 q 347 77 443 118 q 179 38 251 36 q 53 86 113 43 q -7 168 -7 129 q 13 210 -7 193 q 47 239 32 228 q 87 264 61 250 q 134 289 113 278 q 192 316 156 300 q 253 344 228 332 q 396 407 324 376 m 201 125 q 361 191 265 131 q 464 315 457 251 q 451 351 461 333 q 139 171 161 199 q 160 140 140 154 q 201 125 181 126 m 1057 1331 q 1150 1267 1097 1331 q 1313 976 1243 1153 q 1256 949 1303 949 q 1099 1190 1185 1100 l 1031 1136 q 910 1260 904 1178 q 1057 1331 975 1331 z "},"औ":{"ha":1319,"x_min":-7,"x_max":1533,"o":"m 396 407 q 317 432 365 425 q 257 426 278 429 q 213 485 224 447 q 218 553 201 522 q 294 569 244 558 q 485 779 464 642 l 479 786 q 249 694 363 803 q 185 735 208 706 q 171 790 161 764 q 475 897 311 904 q 613 764 588 872 q 358 513 574 588 l 361 506 q 503 458 439 496 q 815 622 674 544 l 854 793 l 707 793 l 689 811 q 726 863 703 847 l 871 863 l 881 904 q 1038 863 999 910 l 1193 863 l 1203 904 q 1308 898 1272 907 q 1364 863 1344 889 l 1517 863 l 1533 846 q 1497 793 1524 810 l 1336 793 l 1249 606 l 1169 7 q 1081 5 1125 -6 q 1004 44 1036 15 l 1178 793 l 1015 793 l 926 606 l 847 7 q 757 5 801 -6 q 681 44 713 15 l 781 476 l 829 535 l 819 549 q 561 410 656 458 q 593 335 593 371 q 518 190 593 261 q 347 77 443 118 q 179 38 251 36 q 53 86 113 43 q -7 168 -7 129 q 13 210 -7 193 q 47 239 32 228 q 87 264 61 250 q 134 289 113 278 q 192 316 156 300 q 253 344 228 332 q 396 407 324 376 m 201 125 q 361 191 265 131 q 464 315 457 251 q 451 351 461 333 q 139 171 161 199 q 160 140 140 154 q 201 125 181 126 m 1046 1331 q 1193 1217 1111 1331 q 1317 989 1275 1104 q 1253 949 1310 951 q 1133 1025 1190 1008 l 1090 975 q 976 1058 986 990 q 1088 1126 1017 1121 q 1238 1029 1149 1121 l 1243 1035 q 1088 1208 1171 1163 l 1024 1150 q 910 1264 904 1185 q 968 1311 931 1292 q 1046 1331 1006 1331 z "},"क":{"ha":951,"x_min":-6,"x_max":1165,"o":"m 671 793 q 547 522 579 597 l 557 515 q 715 690 693 665 q 878 662 814 707 q 942 529 942 617 q 678 138 942 339 q 629 190 621 158 q 804 507 804 340 q 728 601 804 593 q 651 522 713 585 q 557 425 589 458 l 501 7 q 413 5 457 -6 q 336 44 368 15 l 376 219 l 431 321 l 415 332 q 247 138 311 214 q 92 190 150 142 q 35 326 35 238 q 128 583 35 460 q 335 706 221 706 q 383 685 358 706 q 423 644 408 664 q 463 586 438 624 l 467 589 l 511 793 l 13 793 l -6 811 q 32 863 6 844 l 526 863 l 535 904 q 692 863 653 910 l 1149 863 l 1165 846 q 1129 793 1156 810 l 671 793 m 343 617 q 233 519 286 610 q 179 338 179 428 q 228 225 179 249 q 429 435 350 343 l 444 499 q 343 617 393 610 z "},"ख":{"ha":1115,"x_min":0,"x_max":1329,"o":"m 472 682 q 451 735 471 710 q 400 761 431 761 q 327 740 369 761 q 254 686 285 719 q 198 717 218 696 q 183 763 178 739 q 213 793 193 776 l 19 793 l 0 811 q 38 863 14 846 l 981 863 l 989 904 q 1147 863 1108 910 l 1313 863 l 1329 846 q 1293 793 1319 810 l 1125 793 l 1035 606 l 956 7 q 867 5 911 -6 q 790 44 822 15 l 836 236 l 874 288 l 860 301 q 649 152 796 232 q 401 60 501 72 q 254 126 329 74 q 135 228 179 179 q 28 354 90 276 q 69 440 39 406 q 146 476 100 475 l 169 451 q 383 534 294 468 q 472 682 471 600 m 693 390 q 708 342 693 361 q 754 324 724 324 q 827 365 785 324 q 890 458 869 407 l 900 501 q 871 579 890 544 q 828 618 851 614 q 735 533 776 614 q 693 390 693 451 m 600 694 q 464 486 600 586 q 190 379 328 386 l 185 368 q 363 189 299 228 q 425 167 396 169 q 686 265 496 168 l 682 272 q 599 308 631 274 q 567 395 567 342 q 597 520 567 449 q 688 649 628 592 q 817 706 749 706 q 921 601 886 706 l 926 604 l 965 793 l 554 793 q 600 694 600 740 z "},"ग":{"ha":765,"x_min":-1,"x_max":976,"o":"m 960 863 l 976 846 q 940 793 967 810 l 783 793 l 693 606 l 614 7 q 525 5 569 -6 q 449 44 481 15 l 622 793 l 432 793 q 325 254 394 482 q 201 194 283 210 q -1 326 56 217 q 40 415 4 390 q 278 544 158 475 q 290 661 286 600 l 271 793 l 18 793 l -1 811 q 38 863 13 846 l 638 863 l 647 904 q 806 863 767 910 l 960 863 m 194 296 l 207 304 q 258 453 239 381 q 107 365 197 415 q 194 296 140 314 z "},"घ":{"ha":839,"x_min":0,"x_max":1053,"o":"m 1036 863 l 1053 846 q 1017 793 1043 810 l 857 793 l 768 606 l 689 7 q 600 5 644 -6 q 524 44 556 15 l 588 319 l 638 385 l 626 397 q 418 231 536 308 q 218 135 300 154 q 122 188 161 150 q 82 268 82 226 q 200 389 124 331 q 335 490 257 433 l 328 499 q 144 453 224 463 q 70 508 100 469 q 46 588 40 547 q 321 793 129 686 l 19 793 l 0 811 q 39 863 14 846 l 713 863 l 722 904 q 879 863 840 910 l 1036 863 m 639 544 l 697 793 l 481 793 q 172 561 278 676 l 182 549 q 357 593 243 557 q 424 553 397 586 q 451 475 451 521 q 217 250 297 353 l 228 239 q 455 367 343 281 q 639 544 567 453 z "},"ङ":{"ha":656,"x_min":-3,"x_max":853,"o":"m 836 863 l 853 846 q 817 793 843 810 l 482 793 q 569 717 536 760 q 564 656 576 692 q 525 596 551 619 q 344 522 471 563 q 207 478 217 482 l 204 465 q 376 399 249 439 q 554 329 504 360 q 569 249 576 300 q 536 164 563 199 q 326 72 471 114 q 51 18 181 31 q 6 83 14 49 q 21 140 -3 118 q 463 257 322 156 l 463 267 q 276 340 413 297 q 86 421 140 383 q 90 510 74 465 q 146 576 106 554 q 465 685 388 638 l 469 696 q 324 793 439 739 l 19 793 l 0 811 q 38 863 14 846 l 836 863 m 535 483 q 535 497 535 483 q 555 532 535 511 q 603 553 575 553 q 653 532 632 553 q 674 483 674 511 q 653 435 674 456 q 603 414 632 414 q 555 435 575 414 q 535 483 535 456 z "},"च":{"ha":907,"x_min":-6,"x_max":1121,"o":"m 122 367 q 260 481 122 418 q 336 515 292 496 q 403 544 381 533 l 399 556 q 69 526 197 526 q 38 599 42 553 q 56 660 35 644 q 479 640 263 626 q 517 588 504 628 q 521 518 531 547 q 289 381 310 428 q 324 329 292 356 q 386 301 356 303 q 549 386 450 308 q 711 558 649 464 l 765 793 l 13 793 l -6 811 q 32 863 8 847 l 781 863 l 790 904 q 947 863 908 910 l 1104 863 l 1121 846 q 1085 793 1111 810 l 925 793 l 836 606 l 757 7 q 668 5 713 -6 q 592 44 624 15 l 653 306 l 707 404 l 689 419 q 513 260 606 325 q 342 188 421 196 q 196 251 269 190 q 122 367 122 311 z "},"छ":{"ha":890,"x_min":6,"x_max":1042,"o":"m 1025 863 l 1042 846 q 1006 793 1032 810 l 831 793 q 797 663 833 743 q 858 560 860 610 q 714 340 854 469 q 747 161 751 217 q 658 31 742 106 q 478 -93 574 -43 q 414 6 388 -47 q 508 56 475 38 q 584 108 540 74 q 649 176 628 142 q 631 272 644 217 q 422 139 532 196 q 233 65 313 82 q 137 121 176 85 q 99 201 97 157 q 339 458 189 356 l 333 467 q 146 421 203 426 q 70 488 99 444 q 51 569 42 531 q 336 793 160 690 l 25 793 l 6 811 q 44 863 19 846 l 1025 863 m 683 444 q 751 557 743 511 q 730 591 750 572 q 689 618 710 610 q 683 444 638 603 m 228 185 l 243 172 q 422 247 325 193 q 600 367 518 300 q 561 629 540 533 q 623 688 582 660 q 706 718 664 715 q 731 707 714 715 q 739 793 747 753 l 511 793 q 328 674 419 746 q 175 539 236 603 l 186 519 q 364 560 201 521 q 451 428 475 521 q 228 185 325 324 z "},"ज":{"ha":935,"x_min":-4,"x_max":1149,"o":"m 1132 863 l 1149 846 q 1113 793 1139 810 l 953 793 l 863 606 l 783 7 q 694 5 739 -6 q 618 44 650 15 l 704 413 l 761 511 l 753 518 q 561 436 651 435 l 525 449 l 518 440 l 539 404 q 481 281 535 342 q 361 185 426 219 q 250 153 296 151 q 111 248 168 160 q 61 438 54 336 q 107 557 69 494 q 204 656 144 619 q 267 640 243 658 q 297 588 292 622 q 194 426 206 514 q 206 318 188 367 q 265 246 224 269 q 378 314 326 261 q 435 410 431 367 q 379 461 435 442 q 422 547 390 514 q 492 578 454 581 q 567 522 529 538 q 754 629 667 529 l 792 793 l 14 793 l -4 811 q 33 863 10 847 l 807 863 l 817 904 q 975 863 936 910 l 1132 863 z "},"झ":{"ha":999,"x_min":-6,"x_max":1211,"o":"m 590 282 q 499 133 590 214 q 239 68 379 53 q 142 128 194 88 l 133 119 q 353 -154 249 1 q 322 -198 353 -179 q 246 -218 290 -217 q -6 135 156 -44 q 60 224 18 189 q 143 247 101 258 q 251 167 188 197 q 381 197 324 168 q 469 268 439 225 l 467 279 q 376 325 446 306 q 223 369 306 344 q 97 431 140 393 q 107 517 89 469 q 163 588 125 564 q 468 682 403 647 l 472 690 q 335 793 440 736 l 19 793 l 0 811 q 38 863 14 846 l 871 863 l 881 904 q 1038 863 999 910 l 1194 863 l 1211 846 q 1176 793 1201 810 l 1015 793 l 926 606 l 847 7 q 758 5 803 -6 q 682 44 714 15 l 778 451 l 826 511 l 815 525 q 522 369 671 432 q 590 282 590 336 m 815 618 l 856 793 l 490 793 q 582 714 542 761 q 574 649 586 685 q 536 593 561 614 q 358 528 474 561 q 226 489 243 494 l 222 472 q 314 431 250 451 q 425 404 378 411 q 815 618 667 504 z "},"ञ":{"ha":875,"x_min":0,"x_max":1089,"o":"m 1072 863 l 1089 846 q 1053 793 1079 810 l 893 793 l 804 606 l 725 7 q 636 5 681 -6 q 560 44 592 15 l 650 428 l 699 483 l 689 500 q 493 399 606 446 q 374 221 465 296 q 186 149 282 146 q 92 213 138 156 q 31 349 46 271 q 135 376 92 401 q 207 244 160 271 q 317 317 264 261 q 378 449 371 372 q 363 545 381 507 q 296 610 344 583 q 154 538 222 597 q 88 622 78 572 q 300 701 194 707 q 437 633 381 697 q 501 488 493 569 q 690 610 625 544 l 732 793 l 19 793 l 0 811 q 38 863 14 846 l 749 863 l 758 904 q 915 863 876 910 l 1072 863 z "},"ट":{"ha":682,"x_min":11,"x_max":872,"o":"m 19 315 q 157 503 19 410 q 226 535 167 508 q 320 581 285 563 q 376 611 356 600 q 468 674 435 644 l 471 683 q 329 793 442 729 l 29 793 l 11 811 q 49 863 25 847 l 856 863 l 872 846 q 836 793 863 810 l 474 793 q 574 700 531 757 q 535 592 579 639 q 428 524 486 556 q 316 465 371 493 q 246 428 261 436 q 158 311 157 364 q 194 228 158 268 q 296 161 229 188 q 438 222 372 175 q 546 329 503 268 q 638 240 632 333 q 481 133 579 179 q 279 85 383 86 q 94 173 168 106 q 19 315 19 240 z "},"ठ":{"ha":756,"x_min":7,"x_max":924,"o":"m 18 321 q 60 422 18 375 q 183 524 103 469 q 427 640 394 617 q 475 681 460 664 l 479 693 q 354 793 449 740 l 26 793 l 7 811 q 46 863 21 846 l 907 863 l 924 846 q 888 793 914 810 l 492 793 q 583 706 554 751 q 538 596 586 644 q 478 557 504 574 q 624 482 556 526 q 719 390 693 438 q 593 164 718 260 q 310 61 468 68 q 103 155 188 79 q 18 321 18 231 m 596 376 q 404 514 549 446 q 207 392 249 428 q 163 336 171 361 q 176 250 154 296 q 318 133 217 174 q 509 224 428 151 q 596 376 590 297 z "},"ड":{"ha":639,"x_min":-3,"x_max":853,"o":"m 836 863 l 853 846 q 817 793 843 810 l 482 793 q 569 717 536 760 q 564 656 576 692 q 525 596 551 619 q 344 522 471 563 q 207 478 217 482 l 204 465 q 376 399 249 439 q 554 329 504 360 q 569 249 576 300 q 536 164 563 199 q 326 72 471 114 q 51 18 181 31 q 6 83 14 49 q 21 140 -3 118 q 463 257 322 156 l 463 267 q 276 340 413 297 q 86 421 140 383 q 90 510 74 465 q 146 576 106 554 q 465 685 388 638 l 469 696 q 324 793 439 739 l 19 793 l 0 811 q 38 863 14 846 l 836 863 z "},"ढ":{"ha":747,"x_min":21,"x_max":942,"o":"m 225 196 l 500 407 q 633 358 574 404 q 692 268 692 311 q 629 172 692 225 q 485 83 567 118 q 344 47 403 47 q 153 123 247 49 q 26 289 58 197 q 72 404 26 358 q 285 529 119 439 q 496 663 451 619 l 500 676 q 463 721 488 699 q 422 754 439 743 q 360 793 404 765 l 39 793 l 21 811 q 58 863 35 847 l 925 863 l 942 846 q 906 793 932 810 l 499 793 q 608 701 579 744 q 581 599 625 656 q 336 439 521 536 q 222 367 272 406 q 171 301 171 329 q 225 196 171 250 m 497 314 q 278 154 449 283 q 346 121 307 135 q 481 172 424 135 q 563 260 539 210 q 497 314 549 294 z "},"ण":{"ha":917,"x_min":0,"x_max":1132,"o":"m 585 497 q 456 308 556 382 q 278 235 356 235 q 134 322 201 235 q 67 490 67 410 q 117 629 67 544 q 246 793 167 714 l 18 793 l 0 811 q 38 863 14 847 l 790 863 l 800 904 q 957 863 918 910 l 1115 863 l 1132 846 q 1096 793 1122 810 l 935 793 l 844 606 l 767 7 q 676 5 721 -6 q 600 44 632 15 l 774 793 l 525 793 q 585 497 599 644 m 401 793 l 376 793 q 258 642 308 725 q 196 488 208 560 q 285 329 210 371 q 399 398 350 349 q 464 518 449 447 q 401 793 463 650 z "},"त":{"ha":742,"x_min":0,"x_max":956,"o":"m 939 863 l 956 846 q 919 793 946 810 l 760 793 l 669 606 l 592 7 q 501 5 546 -6 q 425 44 457 15 l 521 456 l 557 501 l 549 514 q 365 425 471 467 q 181 363 258 383 q 153 304 157 335 q 310 64 182 194 q 292 25 311 43 q 239 -3 274 7 q 94 143 149 72 q 15 299 40 214 q 121 465 42 431 q 554 603 343 489 l 599 793 l 19 793 l 0 811 q 38 863 14 846 l 615 863 l 625 904 q 782 863 743 910 l 939 863 z "},"थ":{"ha":824,"x_min":38,"x_max":1038,"o":"m 611 421 q 429 264 526 328 q 261 200 332 200 q 114 261 190 200 q 38 386 38 322 q 82 458 38 421 q 208 547 126 496 q 328 629 289 597 l 214 651 q 124 774 132 706 q 207 905 129 833 q 364 978 285 976 q 480 913 428 975 q 535 789 532 850 q 500 687 533 739 q 419 592 467 635 q 323 513 371 550 q 235 444 275 476 q 188 390 196 411 q 220 331 185 361 q 294 300 256 301 q 466 389 365 307 q 628 564 567 471 l 681 793 l 610 793 l 590 811 q 629 863 604 846 l 696 863 l 706 904 q 863 863 825 910 l 1021 863 l 1038 846 q 1001 793 1028 810 l 840 793 l 751 606 l 672 7 q 583 5 628 -6 q 507 44 539 15 l 569 308 l 626 407 l 611 421 m 382 682 q 422 770 422 729 q 402 843 422 811 q 353 881 382 875 q 276 839 319 878 q 232 774 232 800 q 261 718 232 747 l 382 682 z "},"द":{"ha":699,"x_min":4,"x_max":864,"o":"m 19 306 q 77 415 19 363 q 208 503 135 468 q 479 675 422 606 l 483 686 q 354 793 457 732 l 24 793 l 4 811 q 42 863 18 846 l 847 863 l 864 846 q 828 793 854 810 l 493 793 q 592 706 565 746 q 550 581 611 649 q 356 457 522 556 q 157 301 190 358 q 211 218 169 257 q 303 164 253 179 q 419 295 343 208 q 497 385 494 382 q 576 374 535 393 q 644 308 618 354 q 476 -218 576 143 q 392 -203 426 -219 q 351 -158 358 -187 q 517 271 372 -103 l 507 278 q 419 167 482 250 q 328 50 356 85 q 110 142 201 68 q 19 306 19 217 z "},"ध":{"ha":865,"x_min":32,"x_max":1079,"o":"m 1063 863 l 1079 846 q 1043 793 1069 810 l 883 793 l 794 606 l 715 7 q 626 5 671 -6 q 550 44 582 15 l 615 331 l 667 393 l 653 408 q 435 238 561 319 q 218 132 308 157 q 122 185 161 147 q 82 265 82 224 q 200 388 122 326 q 274 443 226 408 q 340 493 321 478 l 333 500 q 154 450 247 464 q 67 517 101 476 q 36 600 32 557 q 195 815 72 696 q 458 979 318 935 q 533 947 500 982 q 576 851 567 913 q 445 694 549 769 q 238 590 342 619 l 158 608 q 149 585 154 601 q 181 538 150 558 q 354 589 261 547 q 420 550 394 582 q 447 471 446 518 q 217 247 304 357 l 228 235 q 466 365 333 271 q 665 546 599 460 l 722 793 l 629 793 l 610 811 q 649 863 624 846 l 739 863 l 749 904 q 906 863 867 910 l 1063 863 m 186 660 l 229 667 q 376 741 299 682 q 474 858 453 800 q 449 888 469 883 q 306 791 382 856 q 186 660 231 726 z "},"न":{"ha":778,"x_min":0,"x_max":992,"o":"m 975 863 l 992 846 q 956 793 982 810 l 18 793 l 0 811 q 38 863 14 847 l 975 863 m 601 647 l 589 654 q 321 485 507 600 q 343 261 356 392 q 294 224 328 240 q 225 201 260 207 q 21 318 82 221 q 61 421 21 388 q 611 746 440 625 q 772 689 725 747 l 693 538 l 625 7 q 536 5 581 -6 q 460 44 492 15 l 601 647 m 211 293 l 225 303 q 222 425 238 360 l 119 363 q 211 293 154 313 z "},"प":{"ha":717,"x_min":0,"x_max":931,"o":"m 914 863 l 931 846 q 894 793 921 810 l 733 793 l 644 606 l 565 7 q 476 5 521 -6 q 400 44 432 15 l 490 435 l 524 494 l 511 503 q 199 222 303 310 q 98 247 149 222 q 32 310 47 271 q 161 793 90 550 l 18 793 l 0 811 q 38 863 14 847 l 589 863 l 599 904 q 756 863 718 910 l 914 863 m 529 606 l 574 793 l 338 793 l 246 613 q 189 342 204 438 l 201 335 q 529 606 381 467 z "},"फ":{"ha":1013,"x_min":0,"x_max":1201,"o":"m 1019 550 q 900 300 1019 414 q 733 165 842 246 l 683 218 q 835 369 786 299 q 883 524 883 439 q 806 628 883 608 q 708 540 788 611 q 586 431 629 469 l 531 7 q 442 5 486 -6 q 365 44 397 15 l 449 407 l 479 467 l 469 476 q 192 226 338 353 q 91 251 140 226 q 26 313 42 275 q 163 793 94 574 l 19 793 l 0 811 q 38 863 14 846 l 554 863 l 564 904 q 721 863 683 910 l 1185 863 l 1201 846 q 1165 793 1192 810 l 700 793 l 572 522 l 583 511 q 799 722 654 581 q 961 681 903 731 q 1019 550 1019 632 m 490 582 l 539 793 l 339 793 l 247 613 q 181 346 211 486 l 194 339 q 490 582 351 450 z "},"ब":{"ha":664,"x_min":0,"x_max":878,"o":"m 442 361 q 238 133 339 243 q 81 187 139 138 q 24 326 24 236 q 118 585 24 464 q 338 707 213 707 q 475 585 418 699 l 479 586 l 522 793 l 19 793 l 0 811 q 38 863 14 846 l 538 863 l 546 904 q 704 863 665 910 l 861 863 l 878 846 q 842 793 868 810 l 682 793 l 593 606 l 513 7 q 424 5 468 -6 q 347 44 379 15 l 399 258 l 454 350 l 442 361 m 215 507 q 168 335 168 424 q 218 221 168 246 q 356 353 310 310 q 215 507 275 428 m 443 440 l 457 497 q 347 619 401 613 q 256 565 301 615 q 400 397 325 476 l 443 440 z "},"भ":{"ha":817,"x_min":47,"x_max":986,"o":"m 969 863 l 986 846 q 951 793 976 810 l 608 793 l 590 811 q 628 863 604 847 l 969 863 m 356 660 l 231 606 q 138 644 181 613 q 89 707 94 676 q 100 747 90 725 q 122 779 110 769 q 262 870 179 810 q 389 976 344 931 q 465 964 428 979 q 517 924 503 949 q 460 617 481 718 q 657 746 572 683 q 818 689 771 747 l 739 538 l 671 7 q 582 5 626 -6 q 506 44 538 15 l 647 647 l 636 654 q 443 531 557 601 q 375 251 408 375 q 244 197 332 208 q 47 325 107 217 q 90 413 50 390 q 324 538 249 496 q 339 610 336 593 l 363 649 l 356 660 m 376 856 q 193 714 247 754 q 235 679 207 688 l 358 713 q 383 851 371 771 l 376 856 m 239 294 l 251 303 q 299 444 271 357 q 154 361 251 417 q 239 294 186 314 z "},"म":{"ha":776,"x_min":0,"x_max":989,"o":"m 972 863 l 989 846 q 954 793 979 810 l 429 793 q 403 617 417 693 q 610 746 518 685 q 771 689 726 747 l 692 538 l 625 7 q 535 5 579 -6 q 458 44 490 15 l 600 647 l 588 656 q 389 533 481 589 q 322 253 356 363 q 199 197 282 210 q 0 324 61 217 q 43 417 3 393 q 275 543 200 501 q 288 657 283 596 l 268 793 l 19 793 l 0 811 q 38 863 14 846 l 972 863 m 192 294 l 206 304 q 256 456 233 371 q 101 367 156 397 q 192 294 136 315 z "},"य":{"ha":817,"x_min":0,"x_max":1031,"o":"m 417 260 q 364 224 417 260 q 249 189 311 189 q 108 253 186 189 q 29 374 29 317 q 87 456 29 410 q 213 538 144 501 q 341 626 282 575 q 401 724 400 676 q 376 750 397 740 q 192 694 303 785 q 135 726 154 704 q 124 772 115 747 q 149 793 133 783 l 19 793 l 0 811 q 39 863 14 846 l 689 863 l 699 904 q 857 863 818 910 l 1014 863 l 1031 846 q 994 793 1021 810 l 835 793 l 744 606 l 665 7 q 576 5 621 -6 q 500 44 532 15 l 564 314 l 621 411 l 604 425 q 417 260 522 331 m 528 738 q 477 634 528 690 q 364 536 426 578 q 181 379 193 418 q 215 318 178 350 q 286 286 251 286 q 456 381 349 296 q 619 557 563 465 l 674 793 l 503 793 q 528 738 528 765 z "},"र":{"ha":563,"x_min":0,"x_max":776,"o":"m 392 763 q 233 686 314 763 q 178 717 197 696 q 164 763 158 739 q 196 793 179 781 l 19 793 l 0 811 q 38 863 14 846 l 760 863 l 776 846 q 740 793 767 810 l 550 793 q 597 694 597 742 q 526 542 596 618 q 358 422 457 467 q 171 376 258 376 l 165 365 q 453 97 367 164 q 440 37 460 67 q 386 -1 419 7 q 11 356 238 106 q 126 476 36 472 q 176 457 151 461 q 371 534 275 465 q 468 688 467 603 q 443 739 465 715 q 392 763 421 763 z "},"ऱ":{"ha":563,"x_min":-35,"x_max":776,"o":"m 392 763 q 233 686 314 763 q 178 717 197 696 q 164 763 158 739 q 196 793 179 781 l 19 793 l 0 811 q 38 863 14 846 l 760 863 l 776 846 q 740 793 767 810 l 550 793 q 597 694 597 742 q 526 542 596 618 q 358 422 457 467 q 171 376 258 376 l 165 365 q 453 97 367 164 q 440 37 460 67 q 386 -1 419 7 q 11 356 238 106 q 126 476 36 472 q 176 457 151 461 q 371 534 275 465 q 468 688 467 603 q 443 739 465 715 q 392 763 421 763 m -35 51 q -35 67 -35 51 q -12 106 -35 83 q 42 128 10 128 q 98 106 75 128 q 121 51 121 83 q 98 -4 121 18 q 42 -26 75 -26 q -12 -4 10 -26 q -35 51 -35 18 z "},"ल":{"ha":918,"x_min":0,"x_max":1132,"o":"m 260 0 q 96 167 156 68 q 36 340 36 265 q 107 504 36 415 q 253 628 178 593 q 382 631 329 644 q 490 453 479 581 q 451 374 469 401 l 460 368 q 739 631 586 454 l 776 793 l 19 793 l 0 811 q 38 863 14 846 l 792 863 l 801 904 q 958 863 919 910 l 1115 863 l 1132 846 q 1096 793 1122 810 l 936 793 l 847 606 l 768 7 q 678 5 724 -6 q 601 44 633 15 l 686 408 l 725 475 l 714 488 q 465 268 540 326 q 373 298 410 272 q 339 356 336 324 q 386 443 375 408 q 310 547 371 526 q 216 474 261 533 q 164 358 171 415 q 350 104 193 189 q 340 40 365 71 q 260 0 315 10 z "},"ळ":{"ha":1106,"x_min":-1,"x_max":1319,"o":"m 261 0 q 87 90 157 17 q 17 253 17 164 q 131 455 17 342 q 378 574 244 568 q 546 321 481 453 q 636 421 581 357 q 722 516 692 485 q 792 577 751 547 q 869 614 833 607 q 899 793 907 715 l 18 793 l -1 811 q 38 863 13 846 l 1303 863 l 1319 846 q 1283 793 1310 810 l 990 793 q 949 592 996 708 q 1015 497 988 557 q 1042 382 1043 436 q 942 142 1040 258 q 706 0 843 25 q 525 165 613 46 q 261 0 393 44 m 257 94 q 493 268 378 157 q 347 468 424 382 q 216 371 274 438 q 149 242 158 304 q 257 94 160 136 m 861 213 q 878 504 967 360 q 791 438 835 479 q 680 324 747 397 q 583 221 613 251 q 722 94 651 131 q 861 213 806 135 z "},"व":{"ha":671,"x_min":0,"x_max":883,"o":"m 444 354 l 257 138 q 91 197 151 142 q 31 346 31 253 q 125 593 31 481 q 344 706 219 706 q 483 585 415 707 l 490 589 l 531 793 l 18 793 l 0 811 q 38 863 14 847 l 544 863 l 553 904 q 710 863 671 910 l 867 863 l 883 846 q 849 793 874 810 l 688 793 l 599 606 l 519 7 q 431 5 475 -6 q 354 44 386 15 l 404 258 l 458 340 l 444 354 m 354 617 q 231 530 285 610 q 176 353 176 450 q 240 225 176 256 q 449 439 382 369 l 463 499 q 354 617 413 610 z "},"श":{"ha":908,"x_min":14,"x_max":1122,"o":"m 1106 863 l 1122 846 q 1086 793 1113 810 l 926 793 l 838 606 l 758 7 q 669 5 714 -6 q 593 44 625 15 l 767 793 l 650 793 l 631 811 q 669 863 644 846 l 782 863 l 792 904 q 949 863 910 910 l 1106 863 m 594 732 q 465 492 594 600 q 174 376 336 383 l 168 365 q 269 263 211 322 q 450 97 376 154 q 437 37 457 67 q 383 -1 417 7 q 14 356 254 93 q 129 476 39 472 q 194 457 163 461 q 330 508 264 465 q 435 611 396 550 l 263 636 q 194 699 226 657 q 160 774 163 740 q 246 904 165 832 q 408 978 326 976 q 540 895 485 971 q 594 732 594 819 m 460 665 q 471 743 471 699 q 450 831 471 788 q 389 881 429 875 q 315 839 356 878 q 274 768 274 800 q 319 700 274 736 l 460 665 z "},"ष":{"ha":717,"x_min":0,"x_max":931,"o":"m 914 863 l 931 846 q 894 793 921 810 l 733 793 l 644 606 l 565 7 q 476 5 521 -6 q 400 44 432 15 l 490 435 l 524 494 l 511 503 q 199 222 303 310 q 98 247 149 222 q 32 310 47 271 q 161 793 90 550 l 18 793 l 0 811 q 38 863 14 847 l 589 863 l 599 904 q 756 863 718 910 l 914 863 m 189 342 l 201 335 q 422 510 299 407 q 278 674 322 601 l 246 613 q 189 342 204 438 m 474 554 l 529 606 l 574 793 l 338 793 l 310 738 q 474 554 371 654 z "},"स":{"ha":960,"x_min":0,"x_max":1174,"o":"m 429 358 q 315 406 400 358 q 169 376 235 375 l 164 365 q 451 97 365 164 q 438 37 458 67 q 385 -1 418 7 q 10 356 232 110 q 125 476 35 472 q 192 457 149 461 q 378 540 290 472 q 468 682 467 607 q 444 736 465 710 q 397 763 422 763 q 233 686 313 763 q 177 717 197 696 q 163 763 157 739 q 196 793 175 776 l 19 793 l 0 811 q 38 863 14 846 l 833 863 l 843 904 q 1000 863 961 910 l 1157 863 l 1174 846 q 1138 793 1164 810 l 978 793 l 889 606 l 810 7 q 719 5 764 -6 q 643 44 675 15 l 731 417 l 778 481 l 765 497 q 586 400 690 442 q 429 358 482 358 m 547 793 q 596 687 596 742 q 541 565 596 632 q 403 447 486 497 q 438 439 428 439 q 603 492 488 439 q 775 611 718 546 l 817 793 l 547 793 z "},"ह":{"ha":676,"x_min":11,"x_max":838,"o":"m 507 376 q 438 219 507 299 q 371 229 400 214 q 340 264 342 244 q 388 326 381 297 q 349 356 385 354 q 221 308 289 351 q 131 197 153 264 q 186 97 138 143 q 317 33 235 51 q 504 125 431 51 q 554 101 535 122 q 576 44 574 79 q 463 -22 536 4 q 310 -53 389 -49 q 103 33 196 -43 q 11 198 11 110 q 113 353 11 286 q 343 417 215 419 l 347 426 q 189 501 226 488 q 188 576 172 531 q 228 635 203 621 q 540 711 435 646 l 543 721 q 446 793 521 756 l 76 793 l 58 811 q 96 863 69 844 l 821 863 l 838 846 q 801 793 828 810 l 578 793 q 632 732 614 767 q 581 615 643 665 q 299 540 474 560 l 296 531 q 438 466 421 479 q 474 439 454 453 q 507 376 507 414 z "},"़":{"ha":0,"x_min":19,"x_max":178,"o":"m 178 57 q 178 41 178 57 q 155 1 178 25 q 99 -22 132 -22 q 43 1 67 -22 q 19 57 19 25 q 43 113 19 89 q 99 136 67 136 q 155 113 132 136 q 178 57 178 89 z "},"ऽ":{"ha":756,"x_min":22,"x_max":944,"o":"m 306 0 q 151 52 238 0 q 26 154 65 104 q 78 217 22 217 q 311 82 179 115 q 465 182 394 107 q 538 318 536 257 q 342 433 540 363 q 207 499 268 461 q 147 577 146 538 q 198 694 149 617 q 311 810 247 772 q 603 855 431 840 q 921 863 775 869 q 941 820 944 850 q 907 768 938 790 q 375 739 621 782 q 282 592 304 685 q 528 472 347 547 q 628 413 585 450 q 669 333 671 375 q 536 113 667 226 q 306 0 406 0 z "},"ा":{"ha":322,"x_min":0,"x_max":536,"o":"m 519 863 l 536 846 q 500 793 526 810 l 339 793 l 251 606 l 172 7 q 83 5 128 -6 q 7 44 39 15 l 181 793 l 18 793 l 0 811 q 38 863 14 847 l 196 863 l 206 904 q 311 898 275 907 q 367 863 347 889 l 519 863 z "},"ि":{"ha":338,"x_min":0,"x_max":771,"o":"m 246 1226 q 322 1297 271 1267 q 424 1331 374 1328 q 617 1170 525 1268 q 771 978 710 1072 q 690 914 769 917 q 392 1232 549 1136 l 379 1222 l 313 863 l 518 863 l 535 846 q 499 793 525 810 l 300 793 q 176 7 213 314 q 88 4 133 -6 q 11 44 42 14 l 192 793 l 18 793 l 0 811 q 38 863 14 847 l 203 863 l 246 1226 z "},"ी":{"ha":322,"x_min":-85,"x_max":536,"o":"m 274 1331 q 356 1301 313 1331 q 421 1226 400 1271 q 289 863 311 928 l 519 863 l 536 846 q 500 793 526 810 l 271 793 l 267 714 l 172 7 q 83 5 128 -6 q 7 44 39 15 q 174 793 42 188 l 18 793 l 0 811 q 38 863 14 847 l 189 863 q 267 1207 244 1118 l 254 1214 q 19 926 142 1136 q -50 949 -21 929 q -85 1000 -79 968 q 90 1219 -25 1107 q 274 1331 206 1331 z "},"ु":{"ha":0,"x_min":-717,"x_max":-74,"o":"m -249 -28 q -136 -68 -199 -28 q -74 -143 -74 -108 q -185 -282 -74 -215 q -400 -353 -297 -349 q -582 -285 -490 -349 q -717 -144 -674 -222 q -587 -72 -667 -60 q -518 -201 -560 -151 q -400 -286 -476 -251 q -263 -229 -321 -269 q -203 -139 -206 -189 q -235 -121 -219 -122 q -340 -174 -285 -131 q -406 -134 -385 -161 q -417 -76 -426 -107 q -249 -28 -343 -28 z "},"ू":{"ha":0,"x_min":-462,"x_max":104,"o":"m -301 -339 q -413 -267 -364 -315 q -462 -173 -462 -218 q -409 -78 -462 -128 q -289 -28 -356 -28 q -101 -103 -222 -28 q 90 -251 21 -178 q -3 -353 104 -319 q -296 -110 -146 -160 q -356 -164 -336 -110 q -237 -242 -317 -214 q -239 -300 -224 -274 q -301 -339 -254 -326 z "},"ृ":{"ha":0,"x_min":-467,"x_max":-14,"o":"m -329 -353 q -423 -316 -379 -353 q -467 -244 -467 -279 q -396 -122 -467 -190 q -239 -22 -325 -53 q -164 -101 -153 -42 q -290 -161 -244 -126 q -364 -250 -336 -196 l -347 -278 q -204 -250 -271 -283 q -97 -168 -137 -217 q -34 -193 -54 -174 q -21 -242 -14 -212 q -329 -353 -137 -353 z "},"ॄ":{"ha":0,"x_min":-451,"x_max":-104,"o":"m -428 -146 q -211 -22 -344 -61 q -156 -94 -136 -29 q -331 -171 -260 -119 l -324 -186 q -231 -165 -275 -179 q -187 -203 -200 -175 q -189 -258 -175 -232 q -354 -350 -299 -296 l -339 -368 q -157 -287 -240 -358 q -117 -310 -129 -287 q -108 -362 -104 -333 q -351 -436 -207 -439 q -426 -397 -400 -426 q -450 -331 -451 -368 q -289 -237 -385 -265 l -293 -228 q -397 -217 -360 -247 q -428 -146 -433 -187 z "},"ॅ":{"ha":0,"x_min":-249,"x_max":274,"o":"m -19 949 q -151 1031 -79 949 q -249 1206 -224 1113 q -119 1258 -194 1290 q -10 1017 -100 1086 q 174 1171 110 1035 q 235 1165 207 1181 q 274 1114 263 1149 q 149 999 232 1049 q -19 949 65 949 z "},"े":{"ha":0,"x_min":-410,"x_max":-1,"o":"m -257 1331 q -164 1267 -217 1331 q -1 976 -71 1153 q -58 949 -11 949 q -215 1190 -129 1100 l -283 1136 q -404 1260 -410 1178 q -257 1331 -339 1331 z "},"ै":{"ha":0,"x_min":-412,"x_max":-1,"o":"m -272 1331 q -126 1217 -207 1331 q -1 989 -44 1104 q -65 949 -10 951 q -186 1025 -129 1008 l -228 975 q -343 1058 -333 990 q -231 1126 -303 1121 q -81 1029 -169 1121 l -75 1035 q -232 1208 -151 1165 l -294 1150 q -383 1195 -354 1168 q -410 1264 -412 1222 q -350 1311 -387 1292 q -272 1331 -312 1331 z "},"ॉ":{"ha":322,"x_min":0,"x_max":597,"o":"m 304 949 q 172 1031 244 949 q 74 1206 99 1113 q 204 1258 128 1290 q 314 1017 224 1086 q 497 1171 433 1035 q 558 1165 531 1181 q 597 1114 586 1149 q 472 999 554 1049 q 304 949 389 949 m 367 863 l 519 863 l 536 846 q 500 793 526 810 l 339 793 l 251 606 l 172 7 q 83 5 128 -6 q 7 44 39 15 l 181 793 l 18 793 l 0 811 q 38 863 14 847 l 196 863 l 206 904 q 311 898 275 907 q 367 863 347 889 z "},"ो":{"ha":322,"x_min":-97,"x_max":536,"o":"m 519 863 l 536 846 q 500 793 526 810 l 339 793 l 251 606 l 172 7 q 83 5 128 -6 q 7 44 39 15 l 181 793 l 18 793 l 0 811 q 38 863 14 847 l 196 863 l 206 904 q 311 898 275 907 q 367 863 347 889 l 519 863 m 57 1331 q 190 1216 115 1331 q 313 976 264 1101 q 256 949 306 949 q 99 1190 186 1097 l 31 1138 q -89 1260 -97 1178 q 57 1331 -25 1331 z "},"ौ":{"ha":322,"x_min":-96,"x_max":536,"o":"m 519 863 l 536 846 q 500 793 526 810 l 339 793 l 251 606 l 172 7 q 83 5 128 -6 q 7 44 39 15 l 181 793 l 18 793 l 0 811 q 38 863 14 847 l 196 863 l 206 904 q 311 898 275 907 q 367 863 347 889 l 519 863 m 46 1331 q 193 1217 111 1331 q 317 989 275 1104 q 253 949 310 951 q 133 1025 190 1008 l 90 975 q -24 1058 -14 990 q 88 1126 17 1121 q 238 1029 149 1121 l 243 1035 q 88 1208 171 1163 l 24 1150 q -90 1264 -96 1185 q -32 1311 -69 1292 q 46 1331 6 1331 z "},"्":{"ha":0,"x_min":-401,"x_max":74,"o":"m 32 -343 q -171 -218 -74 -265 q -396 -133 -268 -171 q -326 -26 -401 -39 q -115 -136 -226 -61 q 69 -293 -4 -211 q 32 -343 74 -322 z "},"ॐ":{"ha":1506,"x_min":106,"x_max":1363,"o":"m 754 444 l 835 465 q 985 608 881 497 q 1150 743 1090 718 q 1307 614 1257 700 q 1363 394 1357 528 q 1235 169 1333 276 q 989 0 1136 63 q 925 42 942 14 q 928 104 908 69 q 1138 222 1049 139 q 1264 404 1228 304 q 1230 547 1254 493 q 1154 633 1206 600 q 1025 515 1106 600 q 896 390 944 429 l 824 385 q 869 294 869 335 q 742 103 868 200 q 463 0 617 7 q 106 319 211 85 q 156 392 122 371 q 231 400 189 413 q 476 89 313 169 q 647 167 572 111 q 747 292 722 224 q 706 369 739 326 q 635 442 672 411 q 511 400 575 415 q 473 437 482 414 q 482 486 464 460 q 674 568 614 519 q 774 708 733 617 q 672 807 743 782 q 522 740 593 790 q 449 688 496 722 q 374 726 397 694 q 372 790 351 758 q 706 907 543 899 q 828 838 775 889 q 906 725 882 788 q 700 475 875 579 q 754 444 728 463 m 1329 965 q 1202 856 1288 900 q 1044 811 1117 811 q 894 892 971 811 q 794 1068 817 974 q 925 1122 849 1151 q 960 983 928 1047 q 1042 879 992 918 q 1236 1024 1171 900 q 1329 965 1304 1040 m 1160 1026 q 1160 1011 1160 1026 q 1139 974 1160 996 q 1087 953 1118 953 q 1034 974 1056 953 q 1013 1026 1013 996 q 1034 1078 1013 1057 q 1087 1100 1056 1100 q 1139 1078 1118 1100 q 1160 1026 1160 1057 z "},"क़":{"ha":951,"x_min":-6,"x_max":1165,"o":"m 671 793 q 547 522 579 597 l 557 515 q 715 690 693 665 q 878 662 814 707 q 942 529 942 617 q 678 138 942 339 q 629 190 621 158 q 804 507 804 340 q 728 601 804 593 q 651 522 713 585 q 557 425 589 458 l 501 7 q 413 5 457 -6 q 336 44 368 15 l 376 219 l 431 321 l 415 332 q 247 138 311 214 q 92 190 150 142 q 35 326 35 238 q 128 583 35 460 q 335 706 221 706 q 383 685 358 706 q 423 644 408 664 q 463 586 438 624 l 467 589 l 511 793 l 13 793 l -6 811 q 32 863 6 844 l 526 863 l 535 904 q 692 863 653 910 l 1149 863 l 1165 846 q 1129 793 1156 810 l 671 793 m 343 617 q 233 519 286 610 q 179 338 179 428 q 228 225 179 249 q 429 435 350 343 l 444 499 q 343 617 393 610 m 46 26 q 46 42 46 26 q 69 82 46 58 q 126 106 93 106 q 181 82 158 106 q 204 26 204 58 q 181 -29 204 -6 q 126 -53 158 -53 q 69 -29 93 -53 q 46 26 46 -6 z "},"ख़":{"ha":1115,"x_min":0,"x_max":1329,"o":"m 472 682 q 451 735 471 710 q 400 761 431 761 q 327 740 369 761 q 254 686 285 719 q 198 717 218 696 q 183 763 178 739 q 213 793 193 776 l 19 793 l 0 811 q 38 863 14 846 l 981 863 l 989 904 q 1147 863 1108 910 l 1313 863 l 1329 846 q 1293 793 1319 810 l 1125 793 l 1035 606 l 956 7 q 867 5 911 -6 q 790 44 822 15 l 836 236 l 874 288 l 860 301 q 649 152 796 232 q 401 60 501 72 q 254 126 329 74 q 135 228 179 179 q 28 354 90 276 q 69 440 39 406 q 146 476 100 475 l 169 451 q 383 534 294 468 q 472 682 471 600 m 693 390 q 708 342 693 361 q 754 324 724 324 q 827 365 785 324 q 890 458 869 407 l 900 501 q 871 579 890 544 q 828 618 851 614 q 735 533 776 614 q 693 390 693 451 m 600 694 q 464 486 600 586 q 190 379 328 386 l 185 368 q 363 189 299 228 q 425 167 396 169 q 686 265 496 168 l 682 272 q 599 308 631 274 q 567 395 567 342 q 597 520 567 449 q 688 649 628 592 q 817 706 749 706 q 921 601 886 706 l 926 604 l 965 793 l 554 793 q 600 694 600 740 m 33 26 q 33 42 33 26 q 56 81 33 58 q 112 104 79 104 q 168 81 144 104 q 192 26 192 58 q 168 -30 192 -7 q 112 -53 144 -53 q 56 -30 79 -53 q 33 26 33 -7 z "},"ग़":{"ha":765,"x_min":-1,"x_max":976,"o":"m 960 863 l 976 846 q 940 793 967 810 l 783 793 l 693 606 l 614 7 q 525 5 569 -6 q 449 44 481 15 l 622 793 l 432 793 q 325 254 394 482 q 201 194 283 210 q -1 326 56 217 q 40 415 4 390 q 278 544 158 475 q 290 661 286 600 l 271 793 l 18 793 l -1 811 q 38 863 13 846 l 638 863 l 647 904 q 806 863 767 910 l 960 863 m 194 296 l 207 304 q 258 453 239 381 q 107 365 197 415 q 194 296 140 314 m 39 12 q 39 28 39 12 q 62 67 39 44 q 118 90 85 90 q 174 67 151 90 q 197 12 197 44 q 174 -44 197 -21 q 118 -67 151 -67 q 62 -44 85 -67 q 39 12 39 -21 z "},"ज़":{"ha":935,"x_min":-4,"x_max":1149,"o":"m 1132 863 l 1149 846 q 1113 793 1139 810 l 953 793 l 863 606 l 783 7 q 694 5 739 -6 q 618 44 650 15 l 704 413 l 761 511 l 753 518 q 561 436 651 435 l 525 449 l 518 440 l 539 404 q 481 281 535 342 q 361 185 426 219 q 250 153 296 151 q 111 248 168 160 q 61 438 54 336 q 107 557 69 494 q 204 656 144 619 q 267 640 243 658 q 297 588 292 622 q 194 426 206 514 q 206 318 188 367 q 265 246 224 269 q 378 314 326 261 q 435 410 431 367 q 379 461 435 442 q 422 547 390 514 q 492 578 454 581 q 567 522 529 538 q 754 629 667 529 l 792 793 l 14 793 l -4 811 q 33 863 10 847 l 807 863 l 817 904 q 975 863 936 910 l 1132 863 m 65 12 q 65 28 65 12 q 88 67 65 44 q 144 90 111 90 q 200 67 176 90 q 224 12 224 44 q 200 -44 224 -21 q 144 -67 176 -67 q 88 -44 111 -67 q 65 12 65 -21 z "},"ड़":{"ha":639,"x_min":-3,"x_max":853,"o":"m 836 863 l 853 846 q 817 793 843 810 l 482 793 q 569 717 536 760 q 564 656 576 692 q 525 596 551 619 q 344 522 471 563 q 207 478 217 482 l 204 465 q 376 399 249 439 q 554 329 504 360 q 569 249 576 300 q 536 164 563 199 q 326 72 471 114 q 51 18 181 31 q 6 83 14 49 q 21 140 -3 118 q 463 257 322 156 l 463 267 q 276 340 413 297 q 86 421 140 383 q 90 510 74 465 q 146 576 106 554 q 465 685 388 638 l 469 696 q 324 793 439 739 l 19 793 l 0 811 q 38 863 14 846 l 836 863 m 144 -106 q 144 -90 144 -106 q 167 -51 144 -74 q 223 -28 190 -28 q 279 -51 256 -28 q 303 -106 303 -74 q 279 -162 303 -139 q 223 -185 256 -185 q 167 -162 190 -185 q 144 -106 144 -139 z "},"ढ़":{"ha":747,"x_min":21,"x_max":942,"o":"m 225 196 l 500 407 q 633 358 574 404 q 692 268 692 311 q 629 172 692 225 q 485 83 567 118 q 344 47 403 47 q 153 123 247 49 q 26 289 58 197 q 72 404 26 358 q 285 529 119 439 q 496 663 451 619 l 500 676 q 463 721 488 699 q 422 754 439 743 q 360 793 404 765 l 39 793 l 21 811 q 58 863 35 847 l 925 863 l 942 846 q 906 793 932 810 l 499 793 q 608 701 579 744 q 581 599 625 656 q 336 439 521 536 q 222 367 272 406 q 171 301 171 329 q 225 196 171 250 m 497 314 q 278 154 449 283 q 346 121 307 135 q 481 172 424 135 q 563 260 539 210 q 497 314 549 294 m 211 -107 q 211 -91 211 -107 q 235 -51 211 -75 q 291 -28 258 -28 q 347 -51 324 -28 q 369 -107 369 -75 q 347 -162 369 -139 q 291 -186 324 -186 q 235 -162 258 -186 q 211 -107 211 -139 z "},"फ़":{"ha":1013,"x_min":0,"x_max":1201,"o":"m 1019 550 q 900 300 1019 414 q 733 165 842 246 l 683 218 q 835 369 786 299 q 883 524 883 439 q 806 628 883 608 q 708 540 788 611 q 586 431 629 469 l 531 7 q 442 5 486 -6 q 365 44 397 15 l 449 407 l 479 467 l 469 476 q 192 226 338 353 q 91 251 140 226 q 26 313 42 275 q 163 793 94 574 l 19 793 l 0 811 q 38 863 14 846 l 554 863 l 564 904 q 721 863 683 910 l 1185 863 l 1201 846 q 1165 793 1192 810 l 700 793 l 572 522 l 583 511 q 799 722 654 581 q 961 681 903 731 q 1019 550 1019 632 m 490 582 l 539 793 l 339 793 l 247 613 q 181 346 211 486 l 194 339 q 490 582 351 450 m 71 76 q 71 92 71 76 q 94 131 71 108 q 150 154 117 154 q 206 131 183 154 q 229 76 229 108 q 206 20 229 43 q 150 -3 183 -3 q 94 20 117 -3 q 71 76 71 43 z "},"ॠ":{"ha":1171,"x_min":-15,"x_max":1385,"o":"m 221 683 q 533 438 318 683 l 546 450 l 525 482 l 599 793 l 19 793 l 0 811 q 38 863 14 846 l 615 863 l 625 904 q 782 863 743 910 l 1368 863 l 1385 846 q 1349 793 1375 810 l 760 793 l 669 606 l 651 465 q 761 547 683 488 q 724 611 719 582 q 911 688 838 706 q 922 574 956 642 q 1038 558 967 561 q 1092 503 1079 546 q 1082 418 1104 460 q 964 388 1031 413 q 844 329 897 363 q 861 303 850 313 q 974 328 922 303 q 1020 282 1007 318 q 1014 217 1033 246 q 831 117 913 193 q 874 65 844 82 q 1057 164 975 82 q 1097 139 1083 163 q 1106 86 1110 115 q 869 0 1011 7 q 776 47 811 10 q 738 136 740 85 q 903 243 804 215 l 896 254 q 788 265 831 236 q 751 356 746 294 q 992 475 839 436 l 990 489 l 850 510 q 640 381 826 496 l 592 7 q 501 5 546 -6 q 425 44 457 15 l 469 233 l 515 296 l 501 308 q 313 151 438 240 q 68 0 189 63 q 3 49 22 19 q 3 107 -15 78 q 482 389 272 203 q 263 563 397 479 l 211 485 q 74 582 81 506 q 141 653 96 624 q 221 683 186 683 z "},"ॡ":{"ha":1008,"x_min":6,"x_max":1150,"o":"m 489 458 l 450 374 l 463 364 q 736 624 597 464 q 811 613 774 625 q 863 793 875 706 l 25 793 l 6 811 q 43 863 19 846 l 1133 863 l 1150 846 q 1114 793 1140 810 l 958 793 q 879 572 967 692 q 928 497 917 539 q 843 349 903 410 q 690 238 783 288 l 696 222 q 799 243 760 231 q 844 206 831 233 q 844 149 857 178 q 672 44 747 111 l 682 29 q 876 117 786 40 q 917 92 903 115 q 928 40 931 69 q 814 -20 888 4 q 675 -47 740 -44 q 593 -9 621 -37 q 567 57 565 19 q 726 157 626 125 l 722 165 q 608 174 646 142 q 581 260 569 207 q 813 481 785 360 q 792 503 807 492 q 764 517 776 515 q 640 390 724 465 q 476 260 556 315 q 372 292 411 261 q 338 356 332 322 q 385 443 371 401 q 358 510 381 479 q 307 547 336 542 q 211 470 253 526 q 163 357 169 414 q 219 215 179 276 q 347 104 260 153 q 340 44 364 76 q 257 0 317 11 q 99 156 165 58 q 33 347 33 254 q 99 494 35 408 q 251 628 163 579 q 381 631 317 639 q 454 562 431 601 q 489 458 478 522 z "},"ॢ":{"ha":0,"x_min":-472,"x_max":-11,"o":"m -22 -293 q -74 -338 -35 -315 q -144 -361 -112 -361 q -214 -333 -176 -361 q -251 -282 -251 -304 q -228 -239 -251 -260 q -176 -203 -206 -218 q -86 -126 -100 -162 q -111 -92 -82 -100 q -222 -190 -150 -142 q -286 -173 -258 -192 q -317 -132 -314 -154 q -294 -96 -299 -115 q -328 -75 -306 -79 q -389 -162 -376 -106 q -299 -282 -368 -243 q -305 -318 -289 -299 q -357 -342 -321 -337 q -438 -263 -404 -312 q -472 -175 -472 -214 q -439 -93 -472 -136 q -360 -24 -406 -50 q -282 -24 -321 -17 q -221 -86 -233 -47 q -239 -124 -225 -101 l -231 -129 q -131 -25 -187 -99 q -47 -54 -81 -24 q -11 -126 -14 -85 q -53 -186 -26 -161 q -119 -237 -79 -211 q -174 -276 -158 -264 q -144 -308 -168 -293 q -82 -249 -110 -290 q -22 -293 -25 -240 z "},"ॣ":{"ha":0,"x_min":-472,"x_max":6,"o":"m -357 -342 q -437 -263 -403 -312 q -472 -175 -472 -214 q -439 -93 -472 -136 q -360 -24 -406 -50 q -283 -22 -319 -15 q -221 -86 -235 -47 q -239 -124 -228 -108 l -232 -129 q -129 -25 -179 -87 q -53 -49 -86 -25 q -12 -108 -21 -74 q -135 -215 -46 -174 l -132 -221 q -65 -206 -103 -221 q -40 -265 -26 -222 q -139 -322 -89 -282 l -135 -331 q -25 -278 -76 -324 q -2 -290 -10 -278 q 1 -321 6 -303 q -135 -371 -49 -362 q -196 -312 -193 -354 q -97 -253 -169 -281 l -99 -249 q -175 -251 -146 -265 q -201 -204 -204 -236 q -85 -119 -108 -158 q -110 -93 -94 -93 q -222 -190 -157 -149 q -287 -172 -258 -193 q -317 -131 -317 -151 q -294 -94 -297 -118 q -328 -75 -306 -78 q -389 -162 -371 -100 q -299 -282 -369 -240 q -305 -318 -289 -299 q -357 -342 -321 -337 z "},"।":{"ha":531,"x_min":211,"x_max":529,"o":"m 343 619 l 374 982 q 466 1013 432 1010 q 529 989 500 1015 l 435 586 q 367 8 382 171 q 278 4 324 -6 q 211 43 233 14 q 343 619 292 349 z "},"॥":{"ha":832,"x_min":211,"x_max":832,"o":"m 343 619 l 374 982 q 466 1013 432 1010 q 529 989 500 1015 l 435 586 q 367 8 382 171 q 278 4 324 -6 q 211 43 233 14 q 343 619 292 349 m 644 619 l 675 982 q 832 989 789 1036 l 736 586 q 668 8 689 214 q 580 4 625 -6 q 513 43 535 14 q 644 619 593 349 z "},"०":{"ha":671,"x_min":51,"x_max":639,"o":"m 424 721 q 368 706 392 718 q 252 581 304 658 q 175 411 200 504 q 279 204 188 286 q 439 291 378 232 q 521 431 500 350 q 501 581 529 497 q 424 721 474 665 m 264 114 q 124 215 197 114 q 51 397 51 315 q 131 597 51 478 q 292 769 211 717 q 483 815 397 824 q 602 631 568 726 q 639 407 636 536 q 498 203 611 293 q 264 114 385 114 z "},"१":{"ha":658,"x_min":86,"x_max":596,"o":"m 425 922 q 544 850 497 922 q 593 697 592 778 q 458 413 594 657 q 321 131 321 168 q 351 103 324 103 q 436 135 378 103 q 546 211 494 167 q 590 188 582 211 q 596 160 593 179 q 339 0 508 63 q 217 48 257 14 q 178 126 178 82 q 213 209 178 149 q 299 355 247 269 q 376 500 350 440 l 431 543 l 419 560 q 267 493 339 515 q 138 568 185 522 q 86 669 90 614 q 225 842 124 763 q 425 922 326 922 m 417 825 q 305 772 368 825 q 218 668 242 719 q 242 615 226 635 q 289 579 257 596 q 447 639 364 601 q 453 789 488 706 q 417 825 439 825 z "},"२":{"ha":633,"x_min":29,"x_max":651,"o":"m 418 921 q 581 826 511 921 q 649 644 651 732 q 530 454 646 556 q 267 301 414 353 q 449 -3 331 97 q 427 -64 456 -39 q 346 -93 399 -89 q 181 279 218 79 q 114 271 147 272 q 47 418 29 339 q 131 467 74 454 q 235 450 188 479 q 244 393 240 411 q 533 638 469 472 q 501 748 528 704 q 411 824 474 792 q 222 715 301 800 q 150 753 171 726 q 144 814 129 781 q 278 891 201 861 q 418 921 356 921 z "},"३":{"ha":697,"x_min":18,"x_max":700,"o":"m 239 549 l 361 535 q 513 638 467 592 q 574 756 558 683 q 507 818 544 797 q 271 728 386 796 q 204 832 176 761 q 528 915 357 907 q 700 742 656 875 q 446 497 650 574 l 454 485 q 633 325 639 435 q 514 140 632 222 q 272 36 396 57 l 169 181 l 156 165 q 213 -2 171 104 q 271 -182 254 -108 q 153 -221 260 -233 q 18 249 100 54 q 165 317 96 336 q 225 231 179 299 q 297 133 271 164 q 451 213 385 160 q 519 308 517 265 q 486 381 522 351 q 385 422 450 411 q 285 379 294 383 q 224 466 236 414 q 239 549 211 518 z "},"४":{"ha":746,"x_min":153,"x_max":804,"o":"m 315 108 q 444 169 401 124 q 408 436 454 318 q 246 267 314 361 q 263 183 247 217 q 315 108 279 149 m 704 869 q 804 876 774 897 q 544 628 676 772 q 544 254 576 458 q 389 46 514 114 q 254 82 314 47 q 160 175 194 117 q 297 508 190 356 q 153 782 251 646 l 153 871 q 393 696 283 828 q 704 869 528 796 z "},"५":{"ha":639,"x_min":32,"x_max":642,"o":"m 32 381 q 195 676 32 519 q 535 901 358 833 q 589 846 594 892 q 299 624 426 753 q 171 386 171 496 q 192 304 171 336 q 264 242 214 272 q 474 564 331 331 q 594 552 549 574 q 642 485 639 531 q 541 146 604 338 q 418 -178 478 -46 q 331 -124 333 -178 q 517 432 453 156 l 501 439 q 299 126 478 407 q 98 217 164 150 q 32 381 32 283 z "},"६":{"ha":697,"x_min":47,"x_max":633,"o":"m 408 406 q 315 446 364 421 q 171 297 176 404 q 210 201 171 247 q 318 133 249 156 q 471 321 417 232 q 615 258 539 342 q 471 -221 531 65 q 356 -187 369 -237 q 417 -8 375 -117 q 476 168 460 100 l 463 182 l 336 36 q 123 129 199 58 q 47 289 47 200 q 101 417 47 357 q 265 511 156 476 l 275 524 q 151 615 192 564 q 104 739 110 665 q 192 846 136 797 q 321 915 247 894 q 622 832 492 907 q 529 728 633 761 q 318 821 431 799 q 235 758 267 796 q 263 643 242 678 q 365 557 285 608 q 485 574 393 558 q 485 490 507 542 q 408 406 463 439 z "},"७":{"ha":833,"x_min":44,"x_max":831,"o":"m 704 396 l 693 418 q 540 349 590 369 q 430 418 471 376 q 381 504 389 460 q 404 663 361 594 q 621 761 482 749 q 774 665 726 732 q 831 494 822 599 q 618 160 786 324 q 265 -6 450 -4 q 92 247 140 88 q 67 562 44 407 q 157 842 89 717 q 249 854 208 867 q 290 796 289 842 q 189 469 214 679 q 205 263 178 369 q 301 79 232 157 q 644 358 508 132 l 704 396 m 588 672 l 544 661 q 494 591 507 635 q 500 503 481 547 q 568 433 519 458 q 717 483 647 460 q 682 599 710 560 q 588 672 654 639 z "},"८":{"ha":742,"x_min":31,"x_max":700,"o":"m 339 14 q 141 112 242 14 q 31 318 40 210 q 258 617 99 456 q 576 882 418 778 q 629 833 615 883 q 169 314 329 581 q 349 108 193 169 q 639 354 500 175 q 686 340 672 351 q 699 303 700 328 q 528 113 639 213 q 339 14 417 14 z "},"९":{"ha":513,"x_min":-26,"x_max":564,"o":"m 82 636 q 192 805 83 722 q 399 888 300 888 q 531 788 497 888 q 507 554 564 689 l 301 443 q 415 267 399 301 q 421 203 431 242 q 381 133 411 164 q 211 6 311 71 q 31 -90 111 -60 q -7 -19 -26 -72 q 313 199 206 82 l 318 222 q 185 442 290 292 q 82 636 81 592 m 267 497 l 413 588 q 438 705 442 642 q 388 793 435 768 q 277 743 329 785 q 196 628 225 701 q 267 497 219 568 z "},"॰":{"ha":446,"x_min":71,"x_max":397,"o":"m 253 526 q 165 394 176 478 q 208 296 169 335 q 304 418 289 336 q 253 526 296 476 m 264 568 q 349 517 304 568 q 396 418 394 465 q 330 315 397 371 q 197 258 263 258 q 114 297 156 258 q 72 391 72 336 q 134 507 71 446 q 264 568 197 568 z "},"ॲ":{"ha":997,"x_min":-7,"x_max":1271,"o":"m 978 949 q 845 1031 918 949 q 747 1206 772 1113 q 878 1258 801 1290 q 988 1017 897 1086 q 1171 1171 1107 1035 q 1232 1165 1204 1181 q 1271 1114 1260 1149 q 1145 999 1228 1049 q 978 949 1063 949 m 396 407 q 317 432 365 425 q 257 426 278 429 q 213 485 224 447 q 218 553 201 522 q 294 569 244 558 q 485 779 464 642 l 479 786 q 249 694 363 803 q 185 735 208 706 q 171 790 161 764 q 475 897 311 904 q 613 764 588 872 q 358 513 574 588 l 361 506 q 503 458 439 496 q 815 622 674 544 l 854 793 l 707 793 l 689 811 q 726 863 703 847 l 871 863 l 881 904 q 1038 863 999 910 l 1194 863 l 1211 846 q 1175 793 1201 810 l 1015 793 l 926 606 l 847 7 q 757 5 801 -6 q 681 44 713 15 l 781 476 l 829 535 l 819 549 q 561 410 656 458 q 593 335 593 371 q 518 190 593 261 q 347 77 443 118 q 179 38 251 36 q 53 86 113 43 q -7 168 -7 129 q 13 210 -7 193 q 47 239 32 228 q 87 264 61 250 q 134 289 113 278 q 192 316 156 300 q 253 344 228 332 q 396 407 324 376 m 201 125 q 361 191 265 131 q 464 315 457 251 q 451 351 461 333 q 139 171 161 199 q 160 140 140 154 q 201 125 181 126 z "},"​":{"ha":0,"x_min":0,"x_max":0,"o":""},"‌":{"ha":0,"x_min":-32,"x_max":33,"o":"m 33 -319 l -32 -319 l -32 1126 l 33 1126 l 33 -319 z "},"‍":{"ha":0,"x_min":-176,"x_max":179,"o":"m 33 -319 l -32 -319 l -32 882 l -128 781 l -174 826 l -44 956 l -176 1088 l -131 1133 l 1 1001 l 135 1133 l 179 1089 l 46 956 l 179 824 l 133 778 l 33 882 l 33 -319 z "},"–":{"ha":889,"x_min":83,"x_max":839,"o":"m 821 519 q 833 478 839 510 q 799 414 826 446 l 99 403 q 88 446 83 418 q 114 503 92 474 l 468 497 l 821 519 z "},"—":{"ha":1344,"x_min":83,"x_max":1293,"o":"m 1276 519 q 1288 478 1293 510 q 1254 414 1282 446 l 99 403 q 88 446 83 418 q 114 503 92 474 l 703 497 l 1276 519 z "},"‘":{"ha":433,"x_min":208,"x_max":431,"o":"m 363 1275 q 431 1253 406 1282 l 364 1115 l 415 961 q 354 910 390 925 q 286 903 318 896 q 235 935 254 911 q 363 1275 208 1097 z "},"’":{"ha":442,"x_min":219,"x_max":464,"o":"m 282 886 q 219 917 235 886 l 306 1050 l 272 1242 q 390 1266 336 1286 q 464 1189 443 1246 q 404 1028 456 1110 q 282 886 353 946 z "},"‚":{"ha":478,"x_min":-69,"x_max":221,"o":"m 221 65 q 133 -83 199 -11 q -11 -201 68 -154 q -69 -160 -56 -193 l 40 -46 l 42 151 q 160 155 110 183 q 221 65 210 126 z "},"“":{"ha":717,"x_min":208,"x_max":714,"o":"m 363 1275 q 431 1253 406 1282 l 364 1115 l 415 961 q 354 910 390 925 q 286 903 318 896 q 235 935 254 911 q 363 1275 208 1097 m 646 1275 q 714 1253 689 1282 l 647 1115 l 699 961 q 638 910 674 925 q 569 903 601 896 q 518 935 538 911 q 646 1275 492 1097 z "},"”":{"ha":729,"x_min":219,"x_max":751,"o":"m 569 886 q 507 917 522 886 l 593 1050 l 560 1242 q 677 1266 624 1286 q 751 1189 731 1246 q 692 1028 743 1110 q 569 886 640 946 m 282 886 q 219 917 235 886 l 306 1050 l 272 1242 q 390 1266 336 1286 q 464 1189 443 1246 q 404 1028 456 1110 q 282 886 353 946 z "},"„":{"ha":657,"x_min":-75,"x_max":553,"o":"m 372 -46 l 374 151 q 492 155 442 183 q 553 65 542 126 q 465 -83 531 -11 q 321 -201 400 -154 q 263 -160 276 -193 l 372 -46 m 35 -46 l 36 151 q 154 155 104 183 q 215 65 204 126 q 128 -83 193 -11 q -17 -201 63 -154 q -75 -160 -61 -193 l 35 -46 z "},"†":{"ha":633,"x_min":88,"x_max":668,"o":"m 453 811 l 649 839 q 663 792 668 825 q 631 724 658 758 l 431 732 l 214 -399 q 140 -394 182 -419 l 308 682 l 313 726 l 128 713 q 142 825 88 757 l 321 800 l 351 1103 q 542 1113 469 1163 l 453 811 z "},"‡":{"ha":640,"x_min":-43,"x_max":675,"o":"m 439 740 l 353 371 l 307 -4 l 497 10 q 482 -104 535 -36 l 300 -78 l 271 -382 q 88 -393 158 -444 l 176 -87 l -25 -117 q -38 -69 -43 -103 q -6 -1 -33 -36 l 196 -10 l 278 356 l 324 735 l 135 719 q 149 832 96 765 l 332 807 l 360 1113 q 544 1122 474 1174 l 458 817 l 657 846 q 670 799 675 833 q 638 732 665 765 l 439 740 z "},"•":{"ha":536,"x_min":90,"x_max":488,"o":"m 488 510 q 367 396 442 440 q 234 351 293 351 q 137 386 175 351 q 90 478 99 421 q 168 633 101 560 q 308 715 235 706 q 418 649 361 715 q 488 510 475 583 z "},"…":{"ha":961,"x_min":3,"x_max":854,"o":"m 854 88 q 787 25 828 50 q 714 0 746 0 q 661 19 682 0 q 636 69 640 39 q 679 156 643 115 q 756 200 715 196 q 816 164 785 200 q 854 88 847 128 m 538 88 q 470 25 511 50 q 397 0 429 0 q 344 19 365 0 q 319 69 324 39 q 363 156 326 115 q 439 200 399 196 q 499 164 468 200 q 538 88 531 128 m 221 88 q 153 25 194 50 q 81 0 113 0 q 28 19 49 0 q 3 69 7 39 q 46 156 10 115 q 122 200 82 196 q 183 164 151 200 q 221 88 214 128 z "},"‰":{"ha":1447,"x_min":85,"x_max":1407,"o":"m 500 532 l 801 1165 q 922 1129 894 1179 l 224 -115 q 115 -76 139 -125 l 500 532 m 1224 501 q 1128 282 1157 438 q 1113 107 1108 179 q 1171 51 1128 72 q 1268 278 1238 114 q 1281 453 1288 386 q 1224 501 1264 492 m 1385 278 q 1375 212 1385 278 q 1302 68 1364 146 q 1163 -10 1240 -10 q 1036 65 1085 -10 q 1009 272 988 139 q 1090 488 1031 406 q 1228 569 1150 571 q 1357 490 1307 568 q 1385 278 1407 411 m 786 501 q 690 282 719 438 q 676 107 669 176 q 735 51 690 71 q 831 278 800 114 q 842 453 849 381 q 786 501 828 492 m 948 280 q 937 214 948 280 q 865 69 926 147 q 725 -10 803 -10 q 599 65 647 -10 q 572 272 550 139 q 653 488 594 406 q 792 569 713 571 q 920 490 871 568 q 948 280 969 413 m 376 907 q 321 954 361 944 q 225 735 253 889 q 211 560 207 638 q 269 504 224 524 q 367 729 336 567 q 376 907 385 843 m 484 731 q 473 665 484 731 q 401 521 463 599 q 261 443 339 443 q 134 517 183 443 q 107 725 85 592 q 189 941 129 858 q 327 1023 249 1024 q 456 943 406 1022 q 484 731 506 864 z "},"‹":{"ha":488,"x_min":82,"x_max":458,"o":"m 375 321 q 365 235 386 275 q 310 194 343 194 l 82 488 q 96 549 82 517 l 269 676 l 413 792 q 453 742 449 778 q 428 656 458 707 l 179 496 l 261 413 l 375 321 z "},"›":{"ha":488,"x_min":71,"x_max":447,"o":"m 154 665 q 165 751 144 711 q 219 792 186 792 l 447 499 q 433 438 447 465 l 260 310 l 117 194 q 76 244 81 208 q 101 329 71 279 l 350 492 l 267 574 l 154 665 z "},"⁄":{"ha":678,"x_min":-26,"x_max":781,"o":"m 358 532 l 660 1165 q 781 1129 753 1179 l 82 -115 q -26 -76 -3 -125 l 358 532 z "},"₨":{"ha":1432,"x_min":79,"x_max":1371,"o":"m 1165 703 q 1040 635 1097 683 q 982 559 982 588 q 1035 499 982 531 q 1155 436 1089 467 q 1283 354 1221 406 q 1360 246 1346 303 q 1240 70 1333 135 q 1007 0 1147 6 q 858 76 924 19 q 776 196 793 133 q 835 263 804 244 q 913 269 865 282 q 947 158 924 203 q 1017 72 971 113 q 1162 138 1108 90 q 1215 232 1215 185 q 1044 350 1215 275 q 917 426 979 378 q 840 526 856 475 q 965 700 867 631 q 1183 778 1063 769 q 1371 593 1335 729 q 1332 546 1367 561 q 1233 542 1297 531 q 1165 703 1226 629 m 174 914 q 156 965 156 939 q 174 1001 156 990 q 421 1032 283 1032 q 701 955 601 1032 q 801 772 801 878 q 745 597 800 667 q 565 460 690 526 q 396 444 451 446 q 519 256 444 324 q 733 138 593 188 q 726 58 754 97 q 638 0 697 18 q 333 442 381 149 l 311 440 q 260 13 293 247 q 165 3 226 -6 q 79 43 104 13 q 215 658 147 272 l 243 915 l 174 914 m 322 588 l 317 513 q 529 547 421 517 q 620 642 593 594 q 647 765 647 690 q 586 889 647 840 q 401 932 525 938 l 322 588 z "},"€":{"ha":956,"x_min":19,"x_max":904,"o":"m 188 410 q 186 451 186 421 q 193 531 186 482 l 75 522 q 86 611 40 553 l 213 606 q 278 769 233 676 q 682 1040 454 975 q 904 818 857 979 q 747 775 851 742 q 717 861 733 829 q 663 938 700 893 l 640 935 q 474 794 546 878 q 367 617 403 711 l 669 658 q 688 622 690 649 q 658 561 685 594 l 344 540 q 335 465 335 500 q 336 418 335 429 l 651 461 q 668 425 671 451 q 639 367 665 399 l 346 346 q 418 205 364 261 q 567 111 472 149 q 826 281 701 158 q 884 265 864 288 q 901 210 904 242 q 763 96 856 154 q 572 0 669 38 q 197 335 250 75 l 54 325 q 67 417 19 358 l 188 410 z "},"₹":{"ha":785,"x_min":83,"x_max":871,"o":"m 363 956 q 455 993 403 993 q 550 957 507 993 l 840 975 q 824 888 871 951 l 606 883 q 642 744 639 818 l 801 754 q 785 667 831 732 l 632 664 q 495 477 603 550 q 249 410 388 404 l 313 253 l 539 122 q 515 36 550 72 q 419 0 481 0 q 230 202 311 92 q 115 415 149 313 q 196 506 135 488 q 414 531 299 479 q 490 663 471 583 l 106 656 q 117 739 83 683 l 444 733 l 497 736 q 449 882 494 832 l 144 876 q 156 960 122 903 l 363 956 z "},"₺":{"ha":674,"x_min":53,"x_max":726,"o":"m 665 849 q 683 810 683 842 q 663 742 683 779 l 435 690 l 406 582 l 653 653 q 671 614 671 646 q 650 546 671 582 l 379 483 l 276 103 l 406 122 q 621 288 508 168 q 701 247 676 293 q 699 151 726 200 q 281 0 550 54 q 172 45 208 15 q 124 129 136 75 q 243 453 190 282 l 92 418 q 90 519 53 446 l 274 553 q 301 660 293 625 l 104 615 q 103 717 67 643 l 317 756 l 329 986 q 522 1011 460 1064 l 463 792 l 665 849 z "},"₽":{"ha":799,"x_min":-49,"x_max":801,"o":"m 174 914 q 156 965 156 939 q 174 1001 156 990 q 421 1032 283 1032 q 701 955 601 1032 q 801 771 801 878 q 744 593 800 664 q 560 460 688 522 q 310 428 471 440 q 296 299 300 338 l 558 331 q 553 236 600 304 l 288 222 q 260 13 279 149 q 165 3 226 -6 q 79 43 104 13 q 125 213 94 94 l -12 206 q -12 293 -49 240 l 144 294 q 171 421 154 338 q 50 418 85 418 q 42 489 15 451 q 186 494 142 492 q 215 658 196 550 l 243 915 l 174 914 m 529 547 q 620 642 593 594 q 647 765 647 690 q 586 889 647 840 q 401 932 525 938 l 322 588 q 319 547 322 574 q 317 506 317 519 q 529 547 456 524 z "},"ℓ":{"ha":572,"x_min":42,"x_max":635,"o":"m 78 549 l 256 589 q 332 963 290 747 q 524 1132 400 1093 q 602 1053 576 1110 q 635 896 628 997 q 376 596 563 711 q 299 147 361 514 l 315 136 q 467 238 363 163 q 504 193 504 238 q 418 111 454 140 q 343 51 382 82 q 279 0 304 21 q 179 38 210 14 q 140 100 149 61 q 242 526 201 340 q 97 474 189 503 q 78 549 42 503 m 486 1032 q 393 681 436 896 q 544 893 510 783 q 486 1032 540 982 z "},"™":{"ha":1075,"x_min":115,"x_max":1129,"o":"m 1001 1019 q 1076 1029 1039 1029 q 1129 1018 1113 1029 l 1069 771 q 1032 450 1044 579 q 965 447 1006 440 q 914 474 925 454 q 993 842 983 738 l 854 604 q 765 621 808 589 q 693 840 718 718 l 679 771 q 661 617 675 728 q 642 450 647 507 q 574 447 617 440 q 521 474 532 454 q 603 850 575 672 l 614 1014 q 681 1029 642 1029 q 738 1014 721 1029 q 796 726 754 844 l 821 688 l 919 838 l 1001 1019 m 533 933 l 397 946 l 349 746 q 333 593 344 696 q 318 450 322 490 q 250 447 290 440 q 199 474 210 454 q 282 840 253 668 l 286 946 l 133 929 q 117 972 118 947 q 126 1010 115 997 q 546 1017 315 1024 q 553 981 557 1008 q 533 933 550 953 z "},"Ω":{"ha":1210,"x_min":-7,"x_max":1132,"o":"m 314 425 q 317 379 314 400 q 327 336 319 358 q 342 297 335 314 q 360 260 349 279 q 382 226 372 240 q 406 193 392 211 q 428 165 419 175 q 451 138 438 154 q 471 115 465 122 q 425 11 476 44 q 22 15 211 -35 q 64 147 -7 110 q 321 108 206 101 q 210 295 251 193 q 183 471 168 397 q 299 713 210 596 q 509 903 388 831 q 743 975 631 975 q 898 905 817 975 q 1028 730 979 835 q 1059 527 1076 625 q 974 317 1042 429 q 817 113 907 204 q 1072 163 956 114 q 1082 35 1132 139 q 714 6 914 -21 q 675 107 664 64 q 946 529 899 326 q 889 751 938 669 q 721 890 840 833 q 456 725 569 846 q 314 425 314 575 z "},"℮":{"ha":857,"x_min":51,"x_max":822,"o":"m 210 447 l 656 447 l 656 651 q 433 749 582 749 q 210 638 285 749 l 210 447 m 790 165 q 454 0 636 0 q 162 104 272 0 q 51 393 51 208 q 154 699 51 578 q 435 819 257 819 q 718 708 614 819 q 822 444 822 597 l 822 372 l 210 372 l 210 179 q 447 71 297 71 q 599 107 531 71 q 743 218 668 143 l 790 165 z "},"∂":{"ha":699,"x_min":46,"x_max":647,"o":"m 238 1138 q 542 917 438 1063 q 647 578 647 772 q 568 228 647 385 q 322 0 489 72 q 119 109 192 21 q 47 317 46 197 q 144 580 47 456 q 400 749 240 704 q 532 601 483 692 q 449 924 525 793 l 190 1064 q 238 1138 185 1124 m 189 315 q 315 92 189 157 q 526 486 494 224 q 462 584 492 547 q 382 647 432 621 q 237 505 285 592 q 189 315 189 418 z "},"∆":{"ha":964,"x_min":3,"x_max":869,"o":"m 642 972 l 869 106 q 796 3 851 29 l 72 0 q 19 50 36 19 q 11 110 3 81 l 488 988 q 642 972 576 1017 m 124 106 l 297 89 l 715 119 l 535 892 l 124 106 z "},"∏":{"ha":832,"x_min":-18,"x_max":931,"o":"m 740 724 q 749 -17 701 368 q 586 -46 710 -60 q 603 495 576 221 q 676 926 631 769 l 392 944 q 285 448 360 747 q 138 -46 210 149 q -18 7 29 -57 q 131 351 76 203 q 232 685 186 500 l 258 938 l 165 924 q 153 999 149 967 q 179 1047 157 1032 l 733 1011 l 896 1038 q 881 914 931 985 l 801 917 l 740 724 z "},"∑":{"ha":1103,"x_min":90,"x_max":1063,"o":"m 346 151 l 257 63 q 800 58 490 36 q 865 222 860 147 q 1024 165 968 249 q 978 49 1019 101 q 861 -56 936 -3 q 203 -53 490 -79 q 112 28 133 -19 q 121 128 90 75 l 414 329 l 571 497 l 167 832 q 200 942 168 894 q 274 1000 232 989 q 947 1008 626 1028 q 1019 963 994 989 q 1060 896 1044 938 q 999 704 1063 779 q 910 710 950 696 q 850 756 869 725 q 917 908 908 844 q 306 904 589 936 l 663 575 q 632 399 700 496 l 346 151 z "},"−":{"ha":889,"x_min":83,"x_max":839,"o":"m 821 519 q 833 478 839 510 q 799 414 826 446 l 99 403 q 88 446 83 418 q 114 503 92 474 l 468 497 l 821 519 z "},"∕":{"ha":499,"x_min":-22,"x_max":642,"o":"m 329 636 l 518 1224 q 642 1186 617 1251 l 89 -114 q -22 -65 -3 -131 l 329 636 z "},"∙":{"ha":833,"x_min":311,"x_max":529,"o":"m 529 378 q 462 315 503 340 q 389 290 421 290 q 336 310 357 290 q 311 360 315 329 q 354 446 318 406 q 431 490 390 486 q 491 454 460 490 q 529 378 522 418 z "},"√":{"ha":767,"x_min":31,"x_max":867,"o":"m 608 749 l 717 1275 q 819 1289 793 1293 q 867 1261 844 1285 l 349 -290 q 253 -311 301 -317 q 178 -269 204 -306 q 31 163 150 -197 q 110 189 53 217 q 258 -206 140 107 l 608 749 z "}}}
